<svg width="36" height="36" viewBox="0 0 36 36" fill="none" xmlns="http://www.w3.org/2000/svg">
<path d="M17.9364 24.7698C21.7101 24.7698 24.7693 21.7106 24.7693 17.9369C24.7693 14.1632 21.7101 11.104 17.9364 11.104C14.1627 11.104 11.1035 14.1632 11.1035 17.9369C11.1035 21.7106 14.1627 24.7698 17.9364 24.7698Z" fill="#FFBB00"/>
<path d="M17.9365 6.06554V1.5376ZM17.9365 34.3356V29.8076ZM26.3364 9.53666L29.5251 6.34797ZM6.34785 29.5252L9.54565 26.3274ZM9.54565 9.52755L6.35696 6.33886ZM29.5433 29.5252L26.3455 26.3274ZM6.06542 17.9366H1.53748ZM34.3355 17.9366H29.8075Z" fill="#FFBB00"/>
<path d="M17.9365 6.06554V1.5376M17.9365 34.3356V29.8076M26.3364 9.53666L29.5251 6.34797M6.34785 29.5252L9.54565 26.3274M9.54565 9.52755L6.35696 6.33886M29.5433 29.5252L26.3455 26.3274M6.06542 17.9366H1.53748M34.3355 17.9366H29.8075" stroke="#FFBB00" stroke-width="3.075" stroke-miterlimit="10" stroke-linecap="round"/>
</svg>
