<svg width="24" height="24" viewBox="0 0 24 24" fill="none" xmlns="http://www.w3.org/2000/svg">
<g clip-path="url(#clip0_214_2730)">
<path d="M9.78801 2.76953H9.75898C9.61166 11.7009 8.41492 13.0916 0 13.2856V13.3356C8.46064 13.5303 9.624 14.9367 9.76116 24.0001H9.78584C9.92155 14.9949 11.0711 13.549 19.3844 13.3393V13.2819C11.1168 13.0737 9.93389 11.6427 9.78801 2.76953Z" fill="#FFBB00"/>
<path d="M18.2809 0H18.2654C18.1844 4.75646 17.5296 5.49722 12.9231 5.60073V5.62678C17.5549 5.73099 18.1915 6.47949 18.2661 11.3057H18.2802C18.3541 6.51047 18.9836 5.74085 23.5345 5.62889V5.59861C19.0083 5.48736 18.3612 4.72548 18.2809 0Z" fill="#FFBB00"/>
</g>
<defs>
<clipPath id="clip0_214_2730">
<rect width="24" height="24" fill="white"/>
</clipPath>
</defs>
</svg>
