<svg width="24" height="24" viewBox="0 0 24 24" fill="none" xmlns="http://www.w3.org/2000/svg">
<path fill-rule="evenodd" clip-rule="evenodd" d="M11.1633 12.8613L4.78955 0.872778C4.75294 0.803911 4.73024 0.728506 4.72277 0.650868C4.71529 0.573229 4.72318 0.494879 4.74598 0.42029C4.79204 0.26965 4.89605 0.143476 5.03513 0.0695231C5.17422 -0.00442935 5.33698 -0.0201019 5.48762 0.0259532C5.56221 0.0487573 5.63158 0.0860296 5.69176 0.135642C5.75195 0.185254 5.80177 0.246235 5.83839 0.315103L12.2128 12.3037L13.1167 11.8226C13.3922 11.6761 13.6938 11.5854 14.0044 11.5555C14.315 11.5256 14.6284 11.5572 14.9268 11.6485C15.2252 11.7398 15.5026 11.8889 15.7433 12.0875C15.9841 12.286 16.1833 12.53 16.3297 12.8055L16.7146 13.5295L20.7947 19.5006L15.6051 22.2593L13.8074 18.7059L12.7479 19.2422L14.5563 22.8175L12.3315 24L9.66194 17.2782L9.27769 16.5548C9.1312 16.2794 9.04041 15.9777 9.01049 15.6672C8.98058 15.3566 9.01213 15.0432 9.10335 14.7448C9.19457 14.4465 9.34367 14.169 9.54213 13.9283C9.74059 13.6875 9.98452 13.4883 10.26 13.3418L11.1633 12.8613ZM13.6738 12.872L10.8171 14.3906C10.6793 14.4639 10.5574 14.5635 10.4581 14.6839C10.3589 14.8042 10.2844 14.943 10.2388 15.0922C10.1932 15.2413 10.1774 15.398 10.1923 15.5533C10.2073 15.7086 10.2527 15.8594 10.3259 15.9971L10.7102 16.7205L15.6651 14.086L15.2803 13.3632C15.207 13.2254 15.1074 13.1035 14.987 13.0042C14.8667 12.905 14.7279 12.8305 14.5788 12.7848C14.4296 12.7392 14.2729 12.7235 14.1176 12.7384C13.9623 12.7534 13.8115 12.7988 13.6738 12.872Z" fill="#666666"/>
<path d="M8.61345 18.6566C8.5127 18.5356 8.36801 18.4596 8.2112 18.4452C8.05439 18.4308 7.89829 18.4793 7.77723 18.58H7.77842L7.77188 18.5848L7.73506 18.6133C7.68171 18.6532 7.62725 18.6916 7.57174 18.7285C7.42445 18.8265 7.20471 18.9601 6.92201 19.0943C6.19536 19.4436 5.40011 19.6268 4.5939 19.6306C4.43639 19.6306 4.28533 19.6932 4.17395 19.8046C4.06257 19.916 4 20.067 4 20.2245C4 20.3821 4.06257 20.5331 4.17395 20.6445C4.28533 20.7559 4.43639 20.8184 4.5939 20.8184C5.57682 20.8147 6.54656 20.5921 7.43277 20.1669C7.70904 20.0357 7.97577 19.8853 8.23097 19.7168C8.32643 19.6528 8.41953 19.5855 8.51011 19.5148L8.52793 19.5012L8.53386 19.4964L8.53565 19.494H8.53683L8.53743 19.4929C8.65836 19.392 8.7343 19.2473 8.74855 19.0905C8.76281 18.9337 8.71421 18.7776 8.61345 18.6566ZM9.83927 21.6766C9.88256 21.7415 9.91265 21.8143 9.92781 21.8908C9.94298 21.9673 9.94292 22.0461 9.92764 22.1226C9.91237 22.1991 9.88217 22.2718 9.83878 22.3366C9.79539 22.4015 9.73965 22.4571 9.67475 22.5004L9.67357 22.5016L9.67119 22.5028L9.66525 22.5063L9.64684 22.5182L9.57913 22.5616C9.22367 22.7794 8.85426 22.9736 8.47329 23.143C7.77129 23.4548 6.79194 23.788 5.78171 23.788C5.6242 23.788 5.47314 23.7254 5.36176 23.614C5.25038 23.5026 5.18781 23.3516 5.18781 23.1941C5.18781 23.0366 5.25038 22.8855 5.36176 22.7741C5.47314 22.6627 5.6242 22.6002 5.78171 22.6002C6.5526 22.6002 7.35556 22.3394 7.99044 22.0573C8.32141 21.9102 8.6424 21.7415 8.95138 21.5525C8.97474 21.5387 8.99176 21.528 9.00245 21.5204L9.01433 21.5133L9.01552 21.5121C9.08041 21.4688 9.15319 21.4387 9.2297 21.4236C9.30622 21.4084 9.38498 21.4085 9.46147 21.4237C9.53796 21.439 9.6107 21.4692 9.67552 21.5126C9.74035 21.556 9.79599 21.6117 9.83927 21.6766Z" fill="#666666"/>
</svg>
