<svg width="26" height="26" viewBox="0 0 26 26" fill="none" xmlns="http://www.w3.org/2000/svg">
<path d="M13 18C15.7614 18 18 15.7614 18 13C18 10.2386 15.7614 8 13 8C10.2386 8 8 10.2386 8 13C8 15.7614 10.2386 18 13 18Z" fill="#FFBB00"/>
<path d="M13 4.31333V1V4.31333ZM13 25V21.6867V25ZM19.1467 6.85333L21.48 4.52L19.1467 6.85333ZM4.52 21.48L6.86 19.14L4.52 21.48ZM6.86 6.84667L4.52667 4.51333L6.86 6.84667ZM21.4933 21.48L19.1533 19.14L21.4933 21.48ZM4.31333 13H1H4.31333ZM25 13H21.6867H25Z" fill="#FFBB00"/>
<path d="M13 4.31333V1M13 25V21.6867M19.1467 6.85333L21.48 4.52M4.52 21.48L6.86 19.14M6.86 6.84667L4.52667 4.51333M21.4933 21.48L19.1533 19.14M4.31333 13H1M25 13H21.6867" stroke="#FFBB00" stroke-width="1.25" stroke-miterlimit="10" stroke-linecap="round"/>
</svg>
