<svg width="24" height="24" viewBox="0 0 24 24" fill="none" xmlns="http://www.w3.org/2000/svg">
<path d="M3.50781 17.7842C3.64887 17.7435 3.79803 17.7605 3.92676 17.832L10.3086 21.3643C10.574 21.5113 10.6701 21.8474 10.5234 22.1133L9.48047 24L8.51758 23.4668L9.29395 22.0615L3.87598 19.0625L3.09863 20.4678L2.13574 19.9346L3.17871 18.0469C3.24884 17.9205 3.36856 17.8245 3.50781 17.7842ZM22.2246 8.16797C22.5323 8.16803 22.781 8.41768 22.7812 8.72559C22.7812 9.03363 22.5323 9.28403 22.2246 9.28418H20.4434L20.5459 9.36133C20.7296 9.50009 20.8435 9.71129 20.8584 9.94141C20.8733 10.1713 20.7876 10.3957 20.623 10.5566L20.0215 11.1455L15.6367 15.6143C15.3036 15.9404 14.9473 16.2416 14.5771 16.5098L9.81738 19.8438L9.52344 20.4375L8.55859 19.9033L8.89355 19.2285C8.89638 19.2227 8.8999 19.217 8.90332 19.2119C8.9165 19.1891 8.92721 19.1731 8.93848 19.1572C8.94858 19.1425 8.95979 19.1278 8.97168 19.1143C8.98273 19.1013 8.99447 19.0888 9.00684 19.0771C9.02134 19.0633 9.03691 19.0504 9.05273 19.0381C9.06182 19.0296 9.06612 19.0249 9.07129 19.0215L13.9395 15.6123C14.2604 15.3799 14.5699 15.1179 14.8594 14.835L19.2432 10.3662L19.5898 10.0273C19.3789 9.90308 19.0596 9.82932 18.4756 10.1846L14.9199 13.085C14.1337 13.7268 11.9164 14.5057 10.665 14.9131C9.81849 15.1886 8.38986 15.1648 7.86328 14.248C7.69716 13.9584 7.60201 13.6285 7.58789 13.2939V13.2715L7.58496 11.71L7.57715 11.5479C7.52959 10.4821 7.44711 10.0595 6.77344 9.97363L6.72363 10.7344C6.68393 11.345 6.55354 11.944 6.33691 12.5146C6.06317 13.2362 5.96245 14.0249 6.0459 14.7949L6.30957 17.7012C6.32057 17.8231 6.29075 17.9478 6.22461 18.0508L5.95801 18.4639L4.99219 17.9287L5.19629 17.6123L4.95117 14.9043C4.84988 13.9686 4.97347 13.0071 5.30859 12.124C5.48648 11.6559 5.59228 11.1643 5.625 10.6631L5.6748 9.90234C5.66507 9.67815 5.73107 9.46224 5.8584 9.2832H2.55762C2.24978 9.2832 2 9.03357 2 8.72559C2.00006 8.41751 2.24982 8.16797 2.55762 8.16797H22.2246ZM7.91992 9.2832C8.60296 9.84348 8.64733 10.8347 8.67676 11.499L8.68555 11.6963L8.68848 13.2578C8.69635 13.4133 8.74003 13.5629 8.81836 13.6992C8.98682 13.9924 9.80141 14.0365 10.3252 13.8662C11.2868 13.5529 12.1583 13.2346 12.8467 12.9453V12.9443C12.8517 12.9337 12.8577 12.9233 12.8643 12.9131L14.5586 10.3164C14.8189 9.9179 15.2374 9.64154 15.7061 9.55859C16.1746 9.4759 16.6622 9.5926 17.043 9.87793L17.0781 9.9043L17.8115 9.30566C17.8213 9.2975 17.8325 9.29063 17.8428 9.2832H7.91992ZM15.8975 10.6436C15.7246 10.6742 15.5763 10.7719 15.4805 10.9189L15.0781 11.5361L16.1582 10.6543C16.106 10.6405 16.0533 10.6338 16.001 10.6338C15.9665 10.6338 15.9318 10.6375 15.8975 10.6436ZM13.6377 0C13.8591 4.52411e-05 14.0361 0.178508 14.0361 0.398438C14.0361 0.618251 13.8591 0.79683 13.6377 0.796875H13.1182C13.01 0.797085 12.9209 0.884934 12.9209 0.993164C12.921 1.095 13.0007 1.17992 13.1025 1.18945C16.5834 1.50338 19.3912 4.1855 19.8994 7.61035H4.88184C5.38824 4.20314 8.16887 1.52972 11.626 1.19336C11.7279 1.18385 11.8066 1.09955 11.8066 0.996094C11.8066 0.886182 11.7188 0.796933 11.6074 0.796875H11.0898C10.87 0.796875 10.6914 0.618279 10.6914 0.398438C10.6914 0.17848 10.87 0 11.0898 0H13.6377Z" fill="#FFBB00"/>
</svg>
