<svg width="24" height="24" viewBox="0 0 24 24" fill="none" xmlns="http://www.w3.org/2000/svg">
<g clip-path="url(#clip0_598_1004)">
<path d="M9.78801 2.76944H9.75898C9.61166 11.7008 8.41492 13.0915 0 13.2855V13.3355C8.46064 13.5302 9.624 14.9366 9.76116 24H9.78584C9.92155 14.9948 11.0711 13.5489 19.3844 13.3392V13.2818C11.1168 13.0736 9.93389 11.6426 9.78801 2.76944Z" fill="#666666"/>
<path d="M18.2808 0H18.2653C18.1844 4.75646 17.5295 5.49722 12.923 5.60073V5.62678C17.5549 5.73099 18.1914 6.47949 18.266 11.3057H18.2801C18.3541 6.51047 18.9836 5.74085 23.5344 5.62889V5.59861C19.0082 5.48736 18.3611 4.72548 18.2808 0Z" fill="#666666"/>
</g>
<defs>
<clipPath id="clip0_598_1004">
<rect width="24" height="24" fill="white"/>
</clipPath>
</defs>
</svg>
