<svg width="34" height="34" viewBox="0 0 34 34" fill="none" xmlns="http://www.w3.org/2000/svg">
<path d="M16.6552 27.4218C17.0088 27.422 17.2957 27.7089 17.2958 28.0625V32.4137C17.2958 32.7674 17.0088 33.0541 16.6552 33.0543C16.3015 33.0543 16.0146 32.7675 16.0146 32.4137V28.0625C16.0148 27.7088 16.3015 27.4219 16.6552 27.4218ZM8.13892 24.2658C8.38909 24.0158 8.79467 24.0157 9.0448 24.2658C9.29472 24.5159 9.29475 24.9215 9.0448 25.1717L5.9728 28.2447C5.72269 28.4948 5.31611 28.4946 5.06592 28.2447C4.81594 27.9946 4.81616 27.589 5.06592 27.3388L8.13892 24.2658ZM24.2827 24.2658C24.5329 24.0158 24.9384 24.0157 25.1885 24.2658L28.2615 27.3388C28.5114 27.5889 28.5115 27.9946 28.2615 28.2447C28.0114 28.4945 27.6058 28.4945 27.3557 28.2447L24.2827 25.1717C24.0326 24.9216 24.0327 24.516 24.2827 24.2658ZM16.6532 10.0889C20.2795 10.0889 23.2196 13.0291 23.2196 16.6553C23.2196 20.2817 20.2795 23.2218 16.6532 23.2218C13.0271 23.2215 10.0878 20.2815 10.0878 16.6553C10.0879 13.0292 13.0272 10.0892 16.6532 10.0889ZM5.2481 16.0147C5.60164 16.015 5.88868 16.3017 5.88872 16.6553C5.88869 17.009 5.60164 17.2957 5.2481 17.296H0.896851C0.543061 17.296 0.256254 17.0091 0.256226 16.6553C0.256262 16.3016 0.543066 16.0147 0.896851 16.0147H5.2481ZM32.4136 16.0147C32.7672 16.0149 33.0542 16.3017 33.0542 16.6553C33.0542 17.009 32.7672 17.2958 32.4136 17.296H28.0624C27.7087 17.2958 27.4218 17.009 27.4217 16.6553C27.4218 16.3017 27.7087 16.0149 28.0624 16.0147H32.4136ZM27.3386 5.06604C27.5888 4.81644 27.9945 4.81611 28.2445 5.06604C28.4945 5.31618 28.4945 5.7228 28.2445 5.97292L25.1805 9.03691C24.9304 9.28702 24.5239 9.28688 24.2737 9.03691C24.0237 8.78688 24.0239 8.38122 24.2737 8.13103L27.3386 5.06604ZM5.07493 5.05803C5.32512 4.80801 5.73068 4.8079 5.98081 5.05803L9.0448 8.12202C9.29472 8.37217 9.29475 8.77778 9.0448 9.02791C8.79467 9.27777 8.38903 9.27779 8.13892 9.02791L5.07493 5.96392C4.82483 5.71382 4.82499 5.30823 5.07493 5.05803ZM16.6552 0.256348C17.0089 0.256545 17.2958 0.543287 17.2958 0.896973V5.24822C17.2957 5.6018 17.0088 5.88865 16.6552 5.88884C16.3015 5.88881 16.0147 5.6019 16.0146 5.24822V0.896973C16.0146 0.543188 16.3014 0.256385 16.6552 0.256348Z" stroke="#FFBB00" stroke-width="0.5125" stroke-miterlimit="10" stroke-linecap="round"/>
</svg>
