<svg width="24" height="24" viewBox="0 0 24 24" fill="none" xmlns="http://www.w3.org/2000/svg">
<g clip-path="url(#clip0_598_988)">
<mask id="mask0_598_988" style="mask-type:luminance" maskUnits="userSpaceOnUse" x="0" y="0" width="24" height="24">
<path d="M0 0H24V24H0V0Z" fill="white"/>
</mask>
<g mask="url(#mask0_598_988)">
<path fill-rule="evenodd" clip-rule="evenodd" d="M12.0042 -0.00283813C18.6321 -0.00283813 24.0042 5.36932 24.0042 11.9972C24.0042 17.054 20.875 21.3807 16.446 23.1477L16.2699 19.3665V19.3594C16.2798 18.6108 16.5966 18.0213 17.2969 17.7259L17.3863 17.6889L17.392 17.6875L17.3977 17.6847L17.4062 17.6818C17.9219 17.473 18.3423 17.1918 18.6278 16.7045C18.9858 16.098 19.054 15.2898 19.054 14.6023C19.054 13.2798 18.6648 11.7188 17.9929 10.5753C17.5156 9.76279 16.7628 8.94034 15.7471 8.94034C14.7301 8.94034 13.9773 9.76279 13.5 10.5753C12.8281 11.7188 12.4389 13.2798 12.4389 14.6023C12.4389 15.2912 12.5085 16.0994 12.865 16.7045C13.1548 17.1946 13.5795 17.4773 14.098 17.6861C14.1122 17.6918 14.1264 17.6974 14.1406 17.7031H14.1449L14.1903 17.723C14.8935 18.0185 15.2131 18.6009 15.223 19.3594V19.3665L15.0256 23.6136C14.0596 23.8636 13.0483 23.9972 12.0042 23.9972C10.9233 23.9972 9.8764 23.8537 8.88067 23.5867L8.69601 19.6094V19.6009C8.70595 18.8338 9.03265 18.2301 9.74998 17.9261L9.84231 17.8906L9.848 17.8878L9.85936 17.8835C10.365 17.679 10.7784 17.4034 11.0596 16.9247C11.4119 16.3267 11.4787 15.5242 11.4787 14.8452C11.4787 14.7784 11.4773 14.7131 11.473 14.6477C11.4702 14.6094 11.4673 14.5724 11.4631 14.5341L11.456 14.4787L11.4659 14.4418L11.0298 9.36648H10.5738L10.5341 14.7315L9.77413 14.8068L9.32243 8.7429L8.82811 8.77273L8.7301 14.8807L8.46021 14.892C8.40481 14.8949 8.348 14.8949 8.2926 14.8949C8.2372 14.8949 8.17896 14.8949 8.12356 14.892L7.8551 14.8807L7.71873 8.77273L7.223 8.74432L6.81106 14.8068L6.0497 14.7315L6.01135 9.36648H5.55254L4.96305 14.4446L4.973 14.4801L4.96589 14.5341C4.96163 14.5724 4.95879 14.6094 4.95737 14.6477C4.95311 14.7131 4.95027 14.7784 4.95027 14.8452C4.95027 15.5242 5.01845 16.3267 5.37072 16.9247C5.65481 17.4077 6.07243 17.6832 6.58095 17.8878C6.59373 17.892 6.6051 17.8977 6.61646 17.902H6.62072L6.67328 17.9247C7.39345 18.2273 7.723 18.8253 7.73294 19.6009V19.6094L7.56959 23.1534C3.13493 21.3906 0.00140381 17.0597 0.00140381 11.9972C0.00424454 5.36932 5.3764 -0.00283813 12.0042 -0.00283813Z" fill="#666666"/>
</g>
</g>
<defs>
<clipPath id="clip0_598_988">
<rect width="24" height="24" fill="white"/>
</clipPath>
</defs>
</svg>
