<svg width="24" height="24" viewBox="0 0 24 24" fill="none" xmlns="http://www.w3.org/2000/svg">
<g clip-path="url(#clip0_214_2769)">
<path d="M12 11.8623C13.2406 11.8623 14.4086 12.1809 15.4258 12.7412C17.6339 13.9571 19.1338 16.3103 19.1338 19.0078V19.0088C19.1338 19.0997 19.1317 19.1919 19.1279 19.2822C17.2377 20.3709 14.7422 20.9688 12.082 20.9688C9.37271 20.9687 6.75404 20.3193 4.87012 19.1836C4.86824 19.1239 4.86719 19.065 4.86719 19.0078V19.0029C4.86906 16.3075 6.36786 13.9566 8.57422 12.7412C9.59163 12.1809 10.7595 11.8624 12 11.8623ZM18.4736 11.8242C21.5259 11.8243 24.0008 14.3034 24.001 17.3613C24.001 17.4685 23.9971 17.576 23.9912 17.6816C22.8476 18.3621 21.3393 18.8296 19.6533 18.9746C19.6452 16.9392 18.8494 15.0268 17.4121 13.5869C16.9656 13.1398 16.4741 12.7543 15.9473 12.4355C16.704 12.0451 17.5632 11.8242 18.4736 11.8242ZM5.52734 11.8242C6.43783 11.8242 7.29661 12.045 8.05371 12.4355C7.52691 12.7543 7.03507 13.1398 6.58887 13.5869C5.1537 15.0244 4.35891 16.9324 4.34766 18.9639C2.64859 18.8011 1.13551 18.3101 0.00488281 17.6045C0.00144529 17.5239 0 17.4423 0 17.3613C0.000173222 14.3034 2.47471 11.8243 5.52734 11.8242ZM5.52734 5.94629C6.95284 5.94635 8.10827 7.10425 8.1084 8.53223C8.1084 9.00313 7.98235 9.44459 7.7627 9.8252C7.31646 10.598 6.48292 11.1181 5.52734 11.1182C4.58047 11.1182 3.7518 10.6073 3.30273 9.8457C3.0759 9.46073 2.94629 9.01156 2.94629 8.53223C2.94642 7.10421 4.10211 5.94629 5.52734 5.94629ZM18.4736 5.94629C19.8991 5.94635 21.0546 7.10425 21.0547 8.53223C21.0547 9.00307 20.9289 9.44462 20.709 9.8252C20.2628 10.598 19.4289 11.1181 18.4736 11.1182C17.5268 11.1182 16.6981 10.6073 16.249 9.8457C16.0222 9.46073 15.8926 9.01156 15.8926 8.53223C15.8927 7.10421 17.0481 5.94629 18.4736 5.94629ZM12 4C13.7606 4 15.1933 5.43458 15.1934 7.19824C15.1934 7.76043 15.0453 8.31379 14.7656 8.79785C14.1959 9.78419 13.1361 10.3965 12 10.3965C10.8757 10.3964 9.82148 9.79344 9.24902 8.82227C8.95999 8.33228 8.80762 7.7704 8.80762 7.19824C8.80772 5.43467 10.2396 4.00015 12 4Z" fill="#00A1F1"/>
</g>
<defs>
<clipPath id="clip0_214_2769">
<rect width="24" height="24" fill="white"/>
</clipPath>
</defs>
</svg>
