<svg width="24" height="24" viewBox="0 0 24 24" fill="none" xmlns="http://www.w3.org/2000/svg">
<path d="M8.09894 0.0515417C5.98371 0.97703 4.19259 2.48395 2.93892 4.36424C1.71254 6.20341 1 8.40007 1 10.7596C1 13.9978 2.34324 16.9298 4.51466 19.0524C6.68404 21.1729 9.68037 22.4844 12.989 22.4844C15.3404 22.4844 17.5354 21.8211 19.388 20.6749C21.283 19.5031 22.8188 17.826 23.7976 15.8374C23.877 15.7384 23.8844 15.5951 23.8066 15.4876C23.7134 15.3589 23.5334 15.33 23.4047 15.4237C22.4919 16.0853 21.4739 16.6065 20.3791 16.9587C19.3192 17.2991 18.1832 17.4823 16.9971 17.4823C14.0163 17.4823 11.318 16.3024 9.36563 14.394C7.41572 12.488 6.20969 9.85447 6.20969 6.94486C6.20969 5.74372 6.41449 4.59104 6.79153 3.51815C7.18363 2.40415 7.76099 1.37442 8.48738 0.46563C8.58632 0.341851 8.56596 0.161477 8.44259 0.0625352C8.3408 -0.0184908 8.20073 -0.0193052 8.09894 0.0515417Z" fill="#F1DA9C"/>
<path d="M18.4258 11.6445L19.7197 10.9854L19.0605 12.2803L20.0879 13.3076L18.6523 13.0801L17.9932 14.375L17.7656 12.9395L16.3301 12.7119L17.625 12.0527L17.3975 10.6172L18.4258 11.6445ZM15.8604 3.66113L18.7627 3.81348L16.3252 5.39648L17.0771 8.20312L14.8193 6.375L12.3818 7.95703L13.4229 5.24414L11.1641 3.41504L14.0664 3.56738L15.1084 0.854492L15.8604 3.66113Z" fill="#FFBB00"/>
</svg>
