<svg width="24" height="24" viewBox="0 0 24 24" fill="none" xmlns="http://www.w3.org/2000/svg">
<g clip-path="url(#clip0_214_2863)">
<path d="M5.30655 4.13983L11.5566 6.30682C11.6409 6.33626 11.6918 6.42175 11.6776 6.50995L10.9384 10.9904C10.7543 12.1057 10.1702 13.1266 9.26749 13.8068C8.4149 14.4494 7.38331 14.7451 6.35929 14.674C5.87721 14.6407 5.43088 14.9295 5.27237 15.3859L3.4589 20.6183C3.38922 20.8192 3.47922 21.0405 3.66886 21.1369L5.58097 22.1076C5.63852 22.1371 5.66653 22.2043 5.64542 22.2658L5.60245 22.3879C5.57855 22.4556 5.50527 22.4912 5.43741 22.468L0.0878015 20.6135C0.0197802 20.59 -0.0157685 20.5155 0.00772341 20.4474L0.0497156 20.3264C0.0711037 20.2646 0.134339 20.2284 0.198153 20.2414L2.32804 20.6721C2.53657 20.7145 2.74451 20.5958 2.81436 20.3947L4.62686 15.1652C4.78675 14.7045 4.60848 14.2009 4.20597 13.926C3.34921 13.3401 2.71745 12.4556 2.45206 11.4074C2.17793 10.3254 2.35458 9.17787 2.89347 8.20038L5.08585 4.22479C5.12929 4.14655 5.22225 4.1107 5.30655 4.13983ZM18.6933 2.96014C18.7776 2.93089 18.8708 2.96683 18.914 3.0451L21.1064 7.02069C21.6453 7.99823 21.822 9.14569 21.5478 10.2277C21.2824 11.276 20.6511 12.1604 19.7939 12.7463C19.3917 13.0212 19.2134 13.5248 19.373 13.9855L21.1864 19.215C21.2563 19.416 21.4639 19.5348 21.6728 19.4924L23.8017 19.0617C23.8655 19.0487 23.9297 19.085 23.9511 19.1467L23.9931 19.2678C24.0165 19.3358 23.98 19.4103 23.912 19.4338L18.5634 21.2883C18.4954 21.3117 18.4209 21.2758 18.3974 21.2082L18.3554 21.0861C18.3341 21.0245 18.3617 20.9573 18.4198 20.9279L20.3319 19.9572C20.5215 19.8608 20.6106 19.6395 20.5409 19.4387L18.7274 14.2062C18.5689 13.7499 18.1238 13.4612 17.6415 13.4943C16.6177 13.5655 15.5851 13.2698 14.7323 12.6271C13.83 11.947 13.2455 10.9259 13.0614 9.81073L12.3222 5.33026C12.3077 5.24206 12.3595 5.15654 12.4442 5.12714L18.6933 2.96014ZM5.5712 4.82831C5.48681 4.79898 5.39364 4.8349 5.3505 4.91327L3.38272 8.48065C3.2558 8.71136 3.15239 8.95311 3.07315 9.20135C6.73754 10.992 7.25294 7.6958 10.5341 9.44647C10.5604 9.46048 10.5882 9.47634 10.6151 9.49139L11.0439 6.88788C11.0582 6.79952 11.0073 6.71288 10.9228 6.68378L5.5712 4.82831ZM18.4286 3.64862L13.0771 5.50409C12.9926 5.53319 12.9412 5.61983 12.956 5.70819L13.3857 8.31171C13.4126 8.29665 13.4401 8.28079 13.4667 8.26678C16.7477 6.51635 17.2625 9.81209 20.9267 8.02167C20.8474 7.77346 20.7444 7.53165 20.6171 7.30096L18.6503 3.73358C18.6068 3.65504 18.5135 3.61952 18.4286 3.64862ZM7.99112 2.33026C8.12985 2.19679 8.35066 2.20021 8.48429 2.33905L9.9921 3.9035C10.1257 4.04235 10.1212 4.26406 9.98233 4.39764C9.91471 4.46266 9.82697 4.4953 9.74015 4.4953C9.64878 4.49518 9.55743 4.45894 9.48917 4.38788L7.98233 2.82342C7.84877 2.68461 7.85236 2.46421 7.99112 2.33026ZM13.0175 1.03827C13.2025 1.09154 13.3099 1.28485 13.2567 1.46991L12.6562 3.5578C12.612 3.71065 12.472 3.80972 12.3202 3.80975C12.2883 3.80975 12.2558 3.80554 12.2235 3.79608C12.0384 3.74279 11.931 3.54957 11.9843 3.36444L12.5858 1.27655C12.6393 1.09175 12.8322 0.984888 13.0175 1.03827ZM10.331 1.01092C10.5182 0.964993 10.7075 1.07857 10.7538 1.26581L11.2773 3.37421C11.3235 3.56106 11.2096 3.75043 11.0224 3.79706C10.9944 3.80369 10.966 3.80682 10.9384 3.80682C10.7817 3.80682 10.6392 3.70095 10.5995 3.54217L10.0771 1.43378C10.0305 1.24707 10.1441 1.05779 10.331 1.01092Z" fill="#F1DA9C"/>
</g>
<defs>
<clipPath id="clip0_214_2863">
<rect width="24" height="24" fill="white"/>
</clipPath>
</defs>
</svg>
