<svg width="24" height="24" viewBox="0 0 24 24" fill="none" xmlns="http://www.w3.org/2000/svg">
<g clip-path="url(#clip0_598_1000)">
<path d="M6.69995 8.31711L16.6869 18.3081L13.5519 19.4441C11.581 18.85 9.8871 17.8585 8.5143 16.4897C7.14551 15.1209 6.15003 13.423 5.55996 11.4481L6.69995 8.31711ZM5.22278 12.3833L3.33216 17.5936C3.79378 18.4526 4.37582 19.2434 5.07025 19.9378C5.76066 20.6282 6.54742 21.2102 7.41445 21.6759L12.6207 19.7812C10.8665 19.147 9.34521 18.1877 8.08078 16.9232C6.81636 15.6588 5.857 14.1335 5.22278 12.3833ZM3.05519 18.3482L1 24L6.65178 21.9488C5.92122 21.5073 5.24285 20.9814 4.63271 20.3713C4.02659 19.7612 3.50075 19.0868 3.05519 18.3482ZM15.294 12.7446C15.3783 12.7446 15.4626 12.7125 15.5228 12.6443C17.3091 10.6613 21.1385 10.9303 23.2178 11.8856C23.3703 11.9538 23.5549 11.8856 23.6232 11.7331C23.6954 11.5765 23.6272 11.3959 23.4747 11.3236C21.3071 10.3281 17.1405 9.93076 15.0692 12.2308C14.9528 12.3593 14.9649 12.5519 15.0893 12.6683C15.1495 12.7205 15.2218 12.7446 15.294 12.7446ZM21.5078 14.3623C20.143 13.7361 17.5058 13.4872 16.1892 14.9483C16.0768 15.0768 16.0848 15.2694 16.2132 15.3859C16.2735 15.438 16.3457 15.4621 16.418 15.4621C16.5023 15.4621 16.5866 15.43 16.6468 15.3618C17.7105 14.1816 20.0025 14.3462 21.2509 14.9202C21.4074 14.9925 21.5881 14.9242 21.6603 14.7717C21.7285 14.6152 21.6603 14.4345 21.5078 14.3623ZM12.5685 10.0151C12.6407 10.0151 12.713 9.99097 12.7732 9.93879C15.0733 7.86352 14.6759 3.69694 13.6804 1.52935C13.6081 1.37682 13.4275 1.30858 13.2709 1.38083C13.1184 1.44907 13.0502 1.63372 13.1224 1.78625C14.0778 3.86553 14.3427 7.69493 12.3598 9.48118C12.2353 9.59358 12.2233 9.78625 12.3397 9.9147C12.3999 9.98294 12.4842 10.0151 12.5685 10.0151ZM9.84696 8.89513C9.92323 8.89513 9.99548 8.86703 10.0557 8.81485C11.5168 7.49824 11.272 4.86503 10.6417 3.49624C10.5695 3.3437 10.3889 3.27546 10.2363 3.3437C10.0798 3.41596 10.0115 3.6006 10.0838 3.75314C10.6578 5.00151 10.8224 7.29353 9.64225 8.35725C9.51781 8.46964 9.50577 8.66633 9.61816 8.79077C9.68239 8.85901 9.76267 8.89513 9.84696 8.89513ZM11.585 0.875063C11.6814 0.778726 11.7336 0.650276 11.7336 0.509784C11.7336 0.377321 11.6814 0.248871 11.585 0.152534C11.4847 0.0521829 11.3562 0 11.2238 0C11.0833 0 10.9548 0.0521829 10.8585 0.152534C10.7622 0.248871 10.71 0.377321 10.71 0.509784C10.71 0.650276 10.7622 0.778726 10.8585 0.875063C11.0512 1.06774 11.3924 1.06774 11.585 0.875063ZM24.0206 13.6719C23.9202 13.5795 23.7958 13.5273 23.6553 13.5273C23.5228 13.5273 23.3944 13.5795 23.294 13.6719C23.1977 13.7722 23.1415 13.9007 23.1415 14.0371C23.1415 14.1736 23.1977 14.3021 23.294 14.3984C23.4867 14.5951 23.8279 14.5951 24.0206 14.3984C24.1169 14.3061 24.1691 14.1736 24.1691 14.0371C24.1691 13.9007 24.1169 13.7722 24.0206 13.6719ZM19.4686 16.4576C19.4044 16.4576 19.3442 16.4857 19.296 16.5299C19.2519 16.574 19.2278 16.6342 19.2278 16.7025C19.2278 16.7667 19.2519 16.8309 19.296 16.871C19.3884 16.9634 19.5489 16.9634 19.6412 16.871C19.7376 16.7787 19.7376 16.6222 19.6412 16.5299C19.5971 16.4857 19.5329 16.4576 19.4686 16.4576ZM8.33768 6.73156C8.43001 6.82388 8.59057 6.82388 8.68289 6.73156C8.73106 6.68741 8.75514 6.62318 8.75514 6.55896C8.75514 6.49473 8.73106 6.43452 8.68289 6.38635C8.63874 6.3422 8.57451 6.3141 8.51029 6.3141C8.44606 6.3141 8.38585 6.3422 8.33768 6.38635C8.24536 6.48269 8.24536 6.63522 8.33768 6.73156ZM7.09734 2.79378L6.91269 3.43201L7.54691 3.24335C7.60311 3.2273 7.66332 3.2273 7.71952 3.24335L8.35374 3.428L8.16909 2.78976C8.15303 2.73758 8.15303 2.67336 8.16909 2.62117L8.35374 1.98294L7.71952 2.1716C7.65931 2.18766 7.5991 2.18766 7.54691 2.1716L6.90868 1.98695L7.09734 2.62117C7.1134 2.67737 7.1134 2.73758 7.09734 2.79378ZM22.8204 17.1119L22.4591 16.7747L22.3668 17.2604C22.3588 17.3206 22.3307 17.3728 22.2905 17.4129L21.9533 17.7782L22.439 17.8705C22.4992 17.8786 22.5514 17.9067 22.5916 17.9468L22.9568 18.284L23.0452 17.7983C23.0572 17.7421 23.0853 17.6899 23.1254 17.6458L23.4626 17.2805L22.9769 17.1922C22.9207 17.1801 22.8645 17.152 22.8204 17.1119ZM17.8991 7.89162L18.6739 8.54591L18.8023 7.53838C18.8103 7.47817 18.8344 7.42599 18.8746 7.38184L19.5248 6.60311L18.5213 6.47466C18.4611 6.46663 18.4049 6.44255 18.3608 6.40241L17.5861 5.75213L17.4536 6.75564C17.4456 6.81586 17.4215 6.87205 17.3853 6.91621L16.7311 7.69493L17.7386 7.82338C17.7948 7.83141 17.851 7.85549 17.8991 7.89162Z" fill="#666666"/>
</g>
<defs>
<clipPath id="clip0_598_1000">
<rect width="24" height="24" fill="white"/>
</clipPath>
</defs>
</svg>
