<svg width="24" height="24" viewBox="0 0 24 24" fill="none" xmlns="http://www.w3.org/2000/svg">
<g clip-path="url(#clip0_214_2795)">
<path d="M9.63916 7.45312C9.97042 7.45326 10.2388 7.72144 10.2388 8.05273V10.7432L10.2271 10.8633C10.1713 11.1368 9.92914 11.3427 9.63916 11.3428C9.34909 11.3428 9.10708 11.1369 9.05127 10.8633L9.03955 10.7432V8.05273C9.03955 7.72136 9.30779 7.45312 9.63916 7.45312ZM12.3296 6.1084C12.6607 6.10866 12.9292 6.3768 12.9292 6.70801L12.9282 10.7432L12.9165 10.8643C12.8602 11.1373 12.6183 11.3428 12.3286 11.3428C12.039 11.3425 11.7967 11.1364 11.7407 10.8633L11.729 10.7422L11.73 6.70703C11.7302 6.37589 11.9984 6.1084 12.3296 6.1084ZM15.019 4.7627C15.3503 4.7627 15.6185 5.03105 15.6187 5.3623V10.7422C15.6187 11.0736 15.3504 11.3428 15.019 11.3428C14.6878 11.3426 14.4194 11.0735 14.4194 10.7422V5.3623C14.4196 5.03113 14.6879 4.76283 15.019 4.7627Z" fill="white"/>
<rect x="2.24146" y="2" width="20.1752" height="12.1051" rx="1.6" stroke="#FFA500" stroke-width="1.6"/>
<path d="M3.50114 20.0176C5.17434 20.0176 6.89186 21.1055 7.00309 23.291C7.00737 23.3753 6.97756 23.4579 6.92106 23.5205C6.86456 23.583 6.7855 23.6206 6.70133 23.625C5.81807 23.67 1.7297 23.6976 0.301919 23.625C0.217666 23.6207 0.138772 23.5831 0.082192 23.5205C0.0255961 23.4579 -0.00411289 23.3753 0.000160724 23.291C0.111386 21.1061 1.82806 20.0177 3.50114 20.0176ZM11.9992 20.0176C13.6724 20.0176 15.3899 21.1055 15.5011 23.291C15.5054 23.3753 15.4756 23.4579 15.4191 23.5205C15.3626 23.583 15.2835 23.6206 15.1994 23.625C14.3161 23.67 10.2277 23.6976 8.79997 23.625C8.71571 23.6207 8.63682 23.5831 8.58024 23.5205C8.52364 23.4579 8.49393 23.3753 8.49821 23.291C8.60943 21.1061 10.3261 20.0177 11.9992 20.0176ZM20.4972 20.0176C22.1704 20.0176 23.888 21.1055 23.9992 23.291C24.0035 23.3753 23.9737 23.4579 23.9172 23.5205C23.8607 23.5831 23.7816 23.6206 23.6974 23.625C22.8146 23.67 18.7261 23.6976 17.298 23.625C17.2137 23.6207 17.1339 23.5832 17.0773 23.5205C17.0209 23.4579 16.992 23.3752 16.9963 23.291C17.1075 21.106 18.8241 20.0176 20.4972 20.0176ZM3.50114 16.1973C3.92329 16.1973 4.32861 16.3656 4.62711 16.6641C4.92545 16.9625 5.09289 17.3671 5.09293 17.7891C5.09293 18.2112 4.92562 18.6165 4.62711 18.915C4.32862 19.2135 3.92324 19.3809 3.50114 19.3809C3.07923 19.3808 2.67453 19.2133 2.37614 18.915C2.07763 18.6165 1.90934 18.2112 1.90934 17.7891C1.90939 17.367 2.07774 16.9625 2.37614 16.6641C2.67455 16.3656 3.07913 16.1974 3.50114 16.1973ZM11.9992 16.1973C12.4213 16.1973 12.8267 16.3656 13.1252 16.6641C13.4235 16.9625 13.5909 17.3671 13.591 17.7891C13.591 18.2112 13.4237 18.6165 13.1252 18.915C12.8267 19.2135 12.4213 19.3809 11.9992 19.3809C11.5773 19.3808 11.1726 19.2133 10.8742 18.915C10.5757 18.6165 10.4074 18.2112 10.4074 17.7891C10.4074 17.367 10.5758 16.9625 10.8742 16.6641C11.1726 16.3656 11.5772 16.1974 11.9992 16.1973ZM20.4972 16.1973C20.9194 16.1973 21.3247 16.3656 21.6232 16.6641C21.9215 16.9625 22.089 17.3671 22.089 17.7891C22.089 18.2112 21.9217 18.6165 21.6232 18.915C21.3247 19.2135 20.9194 19.3809 20.4972 19.3809C20.0753 19.3808 19.6707 19.2133 19.3722 18.915C19.0737 18.6165 18.9054 18.2112 18.9054 17.7891C18.9055 17.367 19.0738 16.9625 19.3722 16.6641C19.6707 16.3656 20.0751 16.1973 20.4972 16.1973Z" fill="#FFA500"/>
</g>
<defs>
<clipPath id="clip0_214_2795">
<rect width="24" height="24" fill="white"/>
</clipPath>
</defs>
</svg>
