<svg width="24" height="24" viewBox="0 0 24 24" fill="none" xmlns="http://www.w3.org/2000/svg">
<path d="M5.63912 14.206C8.11577 13.9954 10.2815 15.3017 11.9008 17.0839C11.998 17.1911 11.9886 17.3238 11.9008 17.4316C10.6576 18.9612 9.00975 20.2477 7.00143 20.4853C5.27057 20.6896 3.55273 20.0861 2.11764 19.1455C1.38064 18.6623 0.652118 18.0959 0.0649022 17.4316C0.0218332 17.3822 0.00267658 17.3279 0.00142566 17.2753C-0.00599669 17.2116 0.0106539 17.1439 0.0649022 17.0839C0.382629 16.733 0.752925 16.4203 1.12643 16.1308C2.43181 15.1187 3.97402 14.3477 5.63912 14.206ZM12.0981 17.0839C13.7175 15.3016 15.8841 13.9954 18.3608 14.206C20.0258 14.3477 21.5675 15.1187 22.8735 16.1308C23.247 16.4203 23.617 16.733 23.934 17.0839C23.9883 17.144 24.0059 17.2116 23.9985 17.2753C23.9966 17.3279 23.9778 17.3821 23.934 17.4316C23.3475 18.0959 22.6193 18.6623 21.8823 19.1455C20.4465 20.0861 18.7294 20.6896 16.9985 20.4853C14.9894 20.2477 13.3414 18.9613 12.0981 17.4316C12.0107 17.3239 12.0013 17.191 12.0981 17.0839ZM12.0659 2.0019C12.1292 1.99438 12.1971 2.01183 12.2573 2.06636C13.2725 2.98633 14.1191 4.18335 14.7495 5.39155C15.5936 7.00903 16.0877 8.84916 15.8784 10.6816C15.6985 12.2583 15.0618 13.6803 14.1626 14.9355C13.5924 15.2726 13.0533 15.6641 12.5483 16.0839C12.3634 16.2375 12.1683 16.4002 11.9985 16.58C11.2993 15.8414 10.5044 15.184 9.61666 14.6884C9.08522 13.9615 8.65098 13.1675 8.36959 12.3027C7.90837 10.8864 7.88978 9.36552 8.2651 7.92671C8.66427 6.39581 9.44315 4.98493 10.4038 3.73726C10.8587 3.147 11.3507 2.56202 11.9096 2.06636C11.9591 2.02252 12.0133 2.00381 12.0659 2.0019ZM2.39889 6.47651C4.22993 6.56428 6.11124 6.99452 7.72799 7.89058C7.57758 8.48844 7.48492 9.10085 7.46236 9.72065C7.40416 11.3036 7.86571 12.8521 8.686 14.1962C8.69974 14.2187 8.71425 14.2402 8.72799 14.2626C7.41132 13.7337 6.00394 13.6338 4.61959 13.9521C4.24298 14.0392 3.87584 14.1575 3.51803 14.2998C3.49611 14.2722 3.47486 14.2443 3.45357 14.2167C2.71538 13.226 2.20384 12.0751 1.87545 10.8876C1.50759 9.55659 1.2922 8.101 1.3774 6.71479C1.38116 6.64899 1.40648 6.59642 1.44283 6.55757C1.48228 6.50761 1.54254 6.47313 1.62252 6.4687C1.88072 6.45617 2.14131 6.46398 2.39889 6.47651ZM22.268 6.4687C22.3488 6.47309 22.4092 6.50752 22.4487 6.55757C22.485 6.59642 22.5097 6.64899 22.5141 6.71479C22.5987 8.101 22.383 9.55659 22.0151 10.8876C21.6867 12.0751 21.1758 13.226 20.437 14.2167C20.4163 14.2443 20.3948 14.2722 20.3735 14.2998C20.0157 14.1575 19.6476 14.0392 19.271 13.9521C17.8867 13.6338 16.4795 13.7337 15.1635 14.2626C15.1773 14.2401 15.1924 14.2188 15.2055 14.1962C16.0258 12.8521 16.4864 11.3035 16.4282 9.72065C16.4056 9.10085 16.3133 8.48844 16.1635 7.89058C17.7797 6.99454 19.6616 6.56426 21.4926 6.47651C21.7502 6.46398 22.0105 6.45617 22.268 6.4687Z" fill="#9900FF"/>
</svg>
