<svg width="24" height="24" viewBox="0 0 24 24" fill="none" xmlns="http://www.w3.org/2000/svg">
<path d="M14.4945 2.46973L12.2938 3.81264L12.596 4.3359L13.9598 3.50353L13.5646 6.10235L13.8087 6.5235L16.0909 5.13012L15.7887 4.60687L14.3434 5.48651L14.7348 2.88889L14.4945 2.46973ZM18.2452 5.8878L17.9778 6.54336L19.6865 7.27442L17.0402 8.70076L16.8271 9.22521L19.6826 10.4489L19.95 9.79337L18.1405 9.01861L20.7869 7.59226L21 7.06781L18.2452 5.8878ZM13.7894 8.43059L10 9.82118L10.3138 10.7231L12.6619 9.86091L11.2902 13.7506L11.5421 14.4697L15.4709 13.0315L15.1571 12.1296L12.6696 13.0434L14.0412 9.1537L13.7894 8.43059Z" fill="white"/>
<path d="M8.09894 1.05154C5.98371 1.97703 4.19259 3.48395 2.93892 5.36424C1.71254 7.20341 1 9.40007 1 11.7596C1 14.9978 2.34324 17.9298 4.51466 20.0524C6.68404 22.1729 9.68037 23.4844 12.989 23.4844C15.3404 23.4844 17.5354 22.8211 19.388 21.6749C21.283 20.5031 22.8188 18.826 23.7976 16.8374C23.877 16.7384 23.8844 16.5951 23.8066 16.4876C23.7134 16.3589 23.5334 16.33 23.4047 16.4237C22.4919 17.0853 21.4739 17.6065 20.3791 17.9587C19.3192 18.2991 18.1832 18.4823 16.9971 18.4823C14.0163 18.4823 11.318 17.3024 9.36563 15.394C7.41572 13.488 6.20969 10.8545 6.20969 7.94486C6.20969 6.74372 6.41449 5.59104 6.79153 4.51815C7.18363 3.40415 7.76099 2.37442 8.48738 1.46563C8.58632 1.34185 8.56596 1.16148 8.44259 1.06254C8.3408 0.981509 8.20073 0.980695 8.09894 1.05154Z" fill="#FFBB00"/>
</svg>
