<svg width="414" height="154" viewBox="0 0 414 154" fill="#FFFFFF" xmlns="http://www.w3.org/2000/svg">
<path fill-rule="evenodd" clip-rule="evenodd" d="M0.282959 86.152H145.956L135.363 152.976H114.607C117.495 151.755 120.087 150.037 122.38 147.819C127.492 142.891 130.049 136.609 130.049 128.956C130.049 122.073 127.862 116.561 123.504 112.449C119.146 108.322 113.326 106.259 106.042 106.259C98.158 106.259 91.691 108.738 86.625 113.712C81.575 118.671 79.049 125.015 79.049 132.744C79.049 139.551 81.19 145.001 85.485 149.082C87.175 150.699 89.09 151.997 91.225 152.975H74.304L58.462 127.293C64.19 126.369 68.686 124.06 71.951 120.379C75.231 116.684 76.863 112.11 76.863 106.629C76.863 102.656 76.001 99.253 74.291 96.42C72.567 93.571 70.041 91.369 66.7 89.799C64.806 88.906 62.558 88.259 59.971 87.89C57.385 87.505 53.443 87.32 48.13 87.32H30.546L20.2 152.976H0.283959V86.152H0.282959ZM161.552 86.152H299.743C298.592 86.568 297.554 87.245 296.626 88.182C294.948 89.86 294.116 91.877 294.116 94.233C294.116 96.635 294.948 98.683 296.626 100.377C298.289 102.086 300.306 102.933 302.693 102.933C305.126 102.933 307.189 102.086 308.868 100.408C310.546 98.73 311.393 96.666 311.393 94.233C311.393 91.754 310.562 89.721 308.914 88.089C308 87.2 306.965 86.554 305.803 86.151H413.049V152.975H388.073C389.383 152.369 390.585 151.636 391.679 150.775C395.375 147.88 397.222 144.046 397.222 139.257C397.222 136.224 396.345 133.698 394.605 131.665C392.865 129.632 389.816 127.677 385.443 125.783C384.673 125.429 383.595 124.982 382.209 124.475C379.098 123.273 377.543 121.981 377.543 120.594C377.543 119.624 378.02 118.808 378.96 118.145C379.9 117.483 381.101 117.16 382.533 117.16C384.258 117.16 385.982 117.499 387.722 118.177C389.462 118.855 391.356 119.932 393.435 121.41L398.147 111.139C395.744 109.584 393.173 108.383 390.432 107.567C387.691 106.751 384.873 106.351 381.978 106.351C376.265 106.351 371.584 107.798 367.95 110.693C364.301 113.572 362.484 117.206 362.484 121.579C362.484 124.32 363.223 126.599 364.701 128.447C366.18 130.28 368.674 131.973 372.2 133.544C372.924 133.852 373.94 134.268 375.265 134.807C379.685 136.608 381.886 138.364 381.886 140.073C381.886 141.181 381.409 142.09 380.439 142.799C379.484 143.507 378.206 143.861 376.604 143.861C374.772 143.861 372.816 143.476 370.738 142.691C368.675 141.906 366.103 140.581 363.024 138.687L357.681 149.589C359.903 150.982 362.186 152.109 364.523 152.975H348.705L348.873 152.916L351.306 137.949C349.659 139.212 347.995 140.151 346.317 140.782C344.654 141.413 342.914 141.737 341.112 141.737C338.279 141.737 336.046 140.86 334.383 139.104C332.735 137.348 331.904 134.962 331.904 131.959C331.904 128.34 332.967 125.322 335.107 122.874C337.247 120.426 339.896 119.194 343.052 119.194C344.916 119.194 346.702 119.625 348.395 120.502C350.104 121.365 351.783 122.689 353.43 124.46L355.647 110.54C353.722 109.092 351.598 108.014 349.288 107.275C346.963 106.536 344.53 106.167 341.974 106.167C333.982 106.167 327.515 108.615 322.572 113.496C317.644 118.377 315.181 124.737 315.181 132.59C315.181 139.288 317.167 144.724 321.155 148.882C322.799 150.602 324.65 151.966 326.708 152.976H301.94L309.082 107.83H292.899L285.772 152.976H271.359L276.608 119.472H284.77L286.618 107.831H278.457L280.582 94.619H264.537L262.504 107.831H254.928L253.081 119.472H260.656L255.346 152.976H232.85C235.738 151.755 238.33 150.037 240.623 147.819C245.735 142.891 248.292 136.609 248.292 128.956C248.292 122.073 246.105 116.561 241.747 112.449C237.389 108.322 231.569 106.259 224.285 106.259C216.401 106.259 209.934 108.738 204.868 113.712C199.818 118.671 197.292 125.015 197.292 132.744C197.292 139.551 199.433 145.001 203.728 149.082C205.418 150.699 207.333 151.997 209.468 152.975H176.63C179.295 151.677 181.702 149.794 183.85 147.326C188.377 142.121 190.641 135.577 190.641 127.693C190.641 121.472 188.963 116.391 185.591 112.449C182.218 108.507 177.907 106.536 172.641 106.536C169.777 106.536 166.99 107.167 164.28 108.414C161.585 109.662 158.937 111.571 156.35 114.127C156.858 112.679 157.258 111.417 157.566 110.308C157.859 109.215 158.075 108.198 158.197 107.259L161.554 86.15L161.552 86.152ZM158.156 152.976H150.316L151.296 147.112C153.509 149.718 155.792 151.677 158.155 152.976H158.156ZM54.193 152.976H37.737L41.646 128.156L54.193 152.976ZM43.309 117.531H48.852C52.347 117.531 55.011 116.731 56.874 115.145C58.737 113.543 59.677 111.249 59.677 108.231C59.677 105.413 58.799 103.35 57.059 102.072C55.319 100.794 52.517 100.162 48.682 100.162H46.065L43.309 117.531ZM105.719 119.379C102.593 119.379 99.929 120.688 97.758 123.321C95.572 125.954 94.478 129.172 94.478 132.96C94.478 135.747 95.279 137.98 96.865 139.627C98.466 141.275 100.591 142.107 103.239 142.107C106.581 142.107 109.321 140.844 111.477 138.304C113.633 135.763 114.711 132.499 114.711 128.526C114.711 125.708 113.91 123.475 112.293 121.843C110.676 120.195 108.491 119.379 105.719 119.379ZM174.471 128.88C174.471 125.97 173.578 123.629 171.792 121.858C170.006 120.088 167.665 119.195 164.771 119.195C161.552 119.195 158.889 120.427 156.764 122.875C154.654 125.323 153.592 128.403 153.592 132.129C153.592 134.962 154.485 137.257 156.256 139.012C158.026 140.768 160.336 141.645 163.2 141.645C166.48 141.645 169.174 140.444 171.299 138.041C173.409 135.639 174.471 132.575 174.471 128.879V128.88ZM223.962 119.379C220.836 119.379 218.172 120.688 216.001 123.321C213.815 125.954 212.721 129.172 212.721 132.96C212.721 135.747 213.522 137.98 215.108 139.627C216.709 141.275 218.834 142.107 221.482 142.107C224.824 142.107 227.564 140.844 229.72 138.304C231.876 135.763 232.954 132.499 232.954 128.526C232.954 125.708 232.153 123.475 230.536 121.843C228.919 120.195 226.733 119.379 223.961 119.379H223.962Z" fill="black" stroke="black" stroke-width="0.567" stroke-miterlimit="10"/>
<path d="M9.42896 44.993C12.201 47.965 14.834 50.121 17.344 51.476C19.854 52.816 22.456 53.494 25.136 53.494C27.353 53.494 29.124 52.954 30.448 51.877C31.773 50.784 32.434 49.367 32.434 47.597C32.434 45.194 29.77 42.592 24.427 39.805C23.903 39.528 23.503 39.312 23.21 39.174C17.99 36.465 14.433 33.862 12.509 31.367C10.584 28.873 9.61396 25.824 9.61396 22.251C9.61396 15.722 11.816 10.379 16.22 6.221C20.624 2.079 26.306 0 33.251 0C36.915 0 40.442 0.647 43.829 1.94C47.201 3.233 50.404 5.158 53.407 7.684L45.846 20.696C43.475 18.663 41.304 17.154 39.348 16.169C37.393 15.183 35.591 14.691 33.943 14.691C32.142 14.691 30.632 15.214 29.431 16.246C28.23 17.277 27.63 18.54 27.63 20.049C27.63 21.913 29.878 23.991 34.39 26.301C35.976 27.117 37.208 27.779 38.085 28.287C42.72 30.844 45.938 33.446 47.74 36.11C49.542 38.773 50.45 42.1 50.45 46.103C50.45 53.171 48.002 58.822 43.09 63.041C38.194 67.276 31.526 69.385 23.103 69.385C18.683 69.385 14.557 68.446 10.707 66.567C6.85696 64.689 3.37796 61.886 0.282959 58.19L9.42896 44.993ZM69.344 67.721L57.21 1.663H74.749L79.846 37.31C80.154 39.45 80.37 41.298 80.508 42.884C80.647 44.455 80.739 45.964 80.801 47.365C81.34 45.209 81.863 43.223 82.372 41.437C82.895 39.651 83.342 38.157 83.727 36.956L95.46 1.663H111.736L116.51 37.31C116.818 39.389 117.034 41.221 117.172 42.808C117.311 44.409 117.402 45.933 117.464 47.366C117.71 46.134 118.065 44.764 118.526 43.239C118.988 41.73 119.696 39.621 120.666 36.957L133.97 1.663H152.278L124.638 67.722H106.545L102.033 36.987C101.741 34.923 101.51 33.076 101.355 31.459C101.216 29.857 101.124 28.333 101.093 26.885C100.584 28.871 100.077 30.75 99.584 32.505C99.076 34.261 98.614 35.862 98.152 37.309L88.143 67.721H69.342H69.344ZM140.222 67.721L173.282 1.663H195.394L209.422 67.722H191.514L188.85 55.25H165.753L159.424 67.722L140.222 67.721ZM172.373 40.559H186.324L183.291 25.13C182.999 23.59 182.767 22.22 182.613 21.019C182.474 19.818 182.382 18.694 182.351 17.631C181.72 19.448 181.134 21.034 180.611 22.405C180.088 23.759 179.672 24.776 179.38 25.438L172.373 40.559ZM215.15 50.167C216.628 51.799 217.906 52.939 218.984 53.601C220.062 54.263 221.171 54.602 222.279 54.602C224.327 54.602 225.867 53.756 226.898 52.046C227.945 50.352 229.039 45.809 230.209 38.434L236.03 1.663H253.769L246.948 44.793C246.887 45.07 246.84 45.455 246.778 45.979C245.423 54.725 243.19 60.715 240.095 63.933C238.14 65.95 235.845 67.475 233.212 68.491C230.579 69.523 227.669 70.031 224.481 70.031C220.57 70.031 217.105 69.4 214.118 68.137C211.116 66.874 208.575 64.98 206.466 62.455L215.15 50.167ZM249.811 67.721L282.871 1.663H304.983L319.011 67.722H301.103L298.439 55.25H275.342L269.014 67.722H249.812L249.811 67.721ZM281.963 40.559H295.914L292.88 25.13C292.588 23.59 292.356 22.22 292.202 21.019C292.063 19.818 291.971 18.694 291.94 17.631C291.309 19.448 290.724 21.034 290.2 22.405C289.677 23.759 289.261 24.776 288.969 25.438L281.962 40.559H281.963Z" fill="black"/>
</svg>
