<svg width="60" height="76" viewBox="0 0 60 76" fill="none" xmlns="http://www.w3.org/2000/svg">
<rect width="60" height="76" fill="black"/>
<rect y="16" width="60" height="60" fill="black"/>
<path d="M19.082 54.2041C19.235 54.2042 19.3881 54.2547 19.541 54.3057C19.7463 54.3063 21.8878 55.2253 22.7549 57.5205C23.4181 59.3572 23.0611 61.5005 21.6836 63.8984C19.133 68.388 21.8372 70.3772 22.3984 70.7344C22.9594 71.0405 23.1632 71.8059 22.8574 72.418C22.5513 72.8261 22.0915 72.9795 21.7344 72.9795C21.4795 72.9795 21.3261 72.9282 21.1221 72.8262C20.2028 72.2132 15.8683 68.9986 19.4902 62.6221C20.4594 60.8876 20.7145 59.51 20.3574 58.3877C19.9493 57.1122 18.6221 56.6016 18.6221 56.6016C18.0102 56.3463 17.7041 55.6326 17.959 55.0205C18.1631 54.5103 18.5718 54.2041 19.082 54.2041ZM10.5615 52.7246C10.7145 52.7247 10.8676 52.7752 11.0205 52.8262C11.5307 53.0302 13.3159 53.898 14.0303 55.8877C14.6425 57.6224 14.286 59.6125 13.0615 61.8574C10.6126 66.2451 13.5715 68.031 13.7246 68.082C13.9796 68.2351 14.1841 68.4899 14.2861 68.7959C14.3881 69.102 14.3366 69.4595 14.1836 69.7656C13.9285 70.1225 13.4186 70.2753 13.0615 70.2754C12.8064 70.2754 12.6533 70.2241 12.4492 70.1221C10.6125 69.0506 8.00981 65.7344 10.918 60.5303C11.7853 58.9487 12.0407 57.6735 11.6836 56.7041C11.3283 55.5875 10.1655 55.1268 10.1533 55.1221C9.49015 54.867 9.18357 54.2042 9.43848 53.541C9.64256 53.0308 10.0513 52.7246 10.5615 52.7246ZM27.5 52.7246C27.653 52.7246 27.806 52.7752 27.959 52.8262C28.4692 53.0303 30.2554 53.8469 30.9697 55.8877C31.5819 57.6223 31.2753 59.6119 30 61.8057C27.5524 66.1909 30.5069 67.9773 30.6631 68.0303C30.9182 68.1833 31.1226 68.439 31.2246 68.7451C31.3265 69.0511 31.275 69.4079 31.1221 69.7139C30.8159 70.122 30.3571 70.2754 30 70.2754C29.7449 70.2754 29.5918 70.2241 29.3877 70.1221C27.551 69.0505 24.9494 65.7342 27.8574 60.5303C28.7246 58.9488 28.9792 57.6734 28.6221 56.7041C28.2649 55.5817 27.0918 55.1221 27.0918 55.1221C26.4287 54.8669 26.1229 54.2042 26.3779 53.541C26.582 53.0308 26.9898 52.7246 27.5 52.7246ZM44.1836 52.8779C44.5918 52.8779 44.949 53.031 45.2041 53.2861C45.459 53.5412 45.6122 53.8979 45.6123 54.2549C45.6123 54.714 45.3574 55.1736 44.8984 55.4287H44.7451V58.082L46.9902 56.8057V56.7549C46.9903 56.3468 47.1432 55.8371 47.6533 55.582C47.8574 55.429 48.1121 55.3779 48.3672 55.3779C48.8774 55.3779 49.3369 55.6329 49.541 56.041C49.745 56.3981 49.7963 56.7553 49.6943 57.1123C49.5923 57.4694 49.3874 57.7757 49.0303 57.9287C48.8262 58.0816 48.5712 58.1328 48.3672 58.1328C48.1122 58.1328 47.8573 58.0816 47.6533 57.9287L45.3057 59.2549L47.6016 60.582C47.9076 60.48 48.1631 60.4287 48.3672 60.4287C48.6222 60.4287 48.8262 60.48 49.0303 60.582C49.6425 60.9902 49.8982 61.8575 49.541 62.4697C49.2859 62.8778 48.8265 63.1328 48.3164 63.1328C48.0613 63.1328 47.8056 63.0818 47.6016 62.9287C47.1936 62.6736 46.9385 62.265 46.9385 61.7549V61.7041L44.7451 60.4795V63.1328H44.7959C45.2549 63.3368 45.5096 63.7957 45.5098 64.3057C45.5098 65.1219 44.898 65.7343 44.1328 65.7344C43.7246 65.7344 43.4182 65.5813 43.1631 65.3262C42.9082 65.0712 42.755 64.7143 42.7549 64.3574C42.7549 63.7963 43.112 63.2854 43.6221 63.0303H43.6738V60.2754L41.0713 61.7549V61.8057C41.0713 62.2138 40.9184 62.7244 40.4082 62.9795C40.2042 63.1325 39.9493 63.1835 39.6943 63.1836C39.1842 63.1836 38.7246 62.9286 38.5205 62.5205C38.3165 62.1635 38.2652 61.8063 38.3672 61.4492C38.4692 61.0922 38.6733 60.7859 39.0303 60.6328C39.2344 60.4798 39.4903 60.4287 39.6943 60.4287C39.9493 60.4288 40.2042 60.4798 40.4082 60.6328L42.7549 59.3057L40.459 57.9795C40.1532 58.0814 39.8983 58.1327 39.6943 58.1328C39.4392 58.1328 39.2344 58.0815 39.0303 57.9795C38.4182 57.5713 38.1634 56.7039 38.5205 56.0918C38.7756 55.6837 39.2349 55.4287 39.7451 55.4287C40.0001 55.4287 40.255 55.4798 40.459 55.6328C40.867 55.8878 41.1219 56.2957 41.1221 56.8057V56.8574L43.7246 58.3369V55.582H43.6738C43.1636 55.3269 42.8057 54.8161 42.8057 54.2549C42.8058 53.4897 43.4184 52.878 44.1836 52.8779ZM53.0098 19C56.8873 19 60 22.1127 60 25.9902V42.6221C60 46.4996 56.8873 49.6123 53.0098 49.6123H6.99023C3.11268 49.6123 0 46.4996 0 42.6221V25.9902C0 22.1127 3.11268 19 6.99023 19H53.0098ZM6.27539 22.0615C4.43882 22.0616 2.95916 23.5917 2.95898 25.5303V43.2861C2.9592 45.1737 4.43885 46.7548 6.27539 46.7549H53.6738C55.5103 46.7547 56.99 45.2246 56.9902 43.2861V25.5303C56.9901 23.6428 55.5103 22.0617 53.6738 22.0615H6.27539ZM51.1738 39.5098C51.8368 39.51 52.3983 40.0714 52.3984 40.7344C52.3984 41.3975 51.8369 41.9588 51.1738 41.959H7.65332C6.99006 41.959 6.42871 41.3976 6.42871 40.7344C6.42889 40.0712 6.99016 39.5098 7.65332 39.5098H51.1738ZM51.1738 34.3574C51.8369 34.3576 52.3984 34.9189 52.3984 35.582C52.3982 36.245 51.8368 36.8055 51.1738 36.8057H7.65332C6.99019 36.8057 6.42894 36.2451 6.42871 35.582C6.42871 34.9188 6.99006 34.3574 7.65332 34.3574H51.1738ZM19.8936 26.8369C20.3579 26.8369 20.7344 27.1845 20.7344 27.6133V29.4893C20.7342 29.9179 20.3578 30.2656 19.8936 30.2656H7.12695C6.66256 30.2656 6.28631 29.9179 6.28613 29.4893V27.6133C6.28613 27.1845 6.66245 26.8369 7.12695 26.8369H19.8936Z" fill="#00A1F1"/>
<path d="M51.1982 5.6H52.7982V4H51.1982M51.9982 14.4C48.4702 14.4 45.5982 11.528 45.5982 8C45.5982 4.472 48.4702 1.6 51.9982 1.6C55.5262 1.6 58.3982 4.472 58.3982 8C58.3982 11.528 55.5262 14.4 51.9982 14.4ZM51.9982 0C50.9476 0 49.9073 0.206926 48.9367 0.608964C47.9661 1.011 47.0842 1.60028 46.3413 2.34315C44.841 3.84344 43.9982 5.87827 43.9982 8C43.9982 10.1217 44.841 12.1566 46.3413 13.6569C47.0842 14.3997 47.9661 14.989 48.9367 15.391C49.9073 15.7931 50.9476 16 51.9982 16C54.1199 16 56.1547 15.1571 57.655 13.6569C59.1553 12.1566 59.9982 10.1217 59.9982 8C59.9982 6.94943 59.7912 5.90914 59.3892 4.93853C58.9872 3.96793 58.3979 3.08601 57.655 2.34315C56.9122 1.60028 56.0302 1.011 55.0596 0.608964C54.089 0.206926 53.0487 0 51.9982 0ZM51.1982 12H52.7982V7.2H51.1982V12Z" fill="white"/>
</svg>
