<svg width="60" height="76" viewBox="0 0 60 76" fill="none" xmlns="http://www.w3.org/2000/svg">
<rect width="60" height="76" fill="black"/>
<rect y="16" width="60" height="60" fill="black"/>
<path fill-rule="evenodd" clip-rule="evenodd" d="M0.595703 18.0195H57.1338C57.2021 18.0098 57.2705 18 57.3438 18C57.417 18 57.4854 18.0049 57.5537 18.0195C57.6563 18.0244 57.749 18.0488 57.832 18.0977C58.2764 18.2832 58.584 18.708 58.584 19.2061V67.6062C58.584 67.6501 58.5791 67.6989 58.5742 67.7429C59.4189 68.1872 60 69.0759 60 70.0965V73.3437C60 74.8037 58.8037 76 57.3438 76C55.8838 76 54.6875 74.8037 54.6875 73.3437V70.0965C54.6875 69.0808 55.2686 68.1921 56.1133 67.7429C56.1084 67.6989 56.1035 67.655 56.1035 67.6062V23.0246H0.595703C0.268555 23.0246 0 22.7609 0 22.4337V18.6104C0 18.2832 0.268555 18.0195 0.595703 18.0195ZM1.56738 63.0259H52.3389V65.4235H1.56738V63.0259ZM1.56738 56.9222H52.3389V59.3198H1.56738V56.9222ZM1.56738 50.8185H52.3389V53.216H1.56738V50.8185ZM1.56738 44.7148H52.3389V47.1123H1.56738V44.7148ZM1.56738 38.6062H52.3389V41.0037H1.56738V38.6062ZM1.56738 32.5024H52.3389V34.9H1.56738V32.5024ZM1.56738 26.3987H52.3389V28.7963H1.56738V26.3987Z" fill="#F58700"/>
<path d="M51.1982 5.6H52.7982V4H51.1982M51.9982 14.4C48.4702 14.4 45.5982 11.528 45.5982 8C45.5982 4.472 48.4702 1.6 51.9982 1.6C55.5262 1.6 58.3982 4.472 58.3982 8C58.3982 11.528 55.5262 14.4 51.9982 14.4ZM51.9982 0C50.9476 0 49.9073 0.206926 48.9367 0.608964C47.9661 1.011 47.0842 1.60028 46.3413 2.34315C44.841 3.84344 43.9982 5.87827 43.9982 8C43.9982 10.1217 44.841 12.1566 46.3413 13.6569C47.0842 14.3997 47.9661 14.989 48.9367 15.391C49.9073 15.7931 50.9476 16 51.9982 16C54.1199 16 56.1547 15.1571 57.655 13.6569C59.1553 12.1566 59.9982 10.1217 59.9982 8C59.9982 6.94943 59.7912 5.90914 59.3892 4.93853C58.9872 3.96793 58.3979 3.08601 57.655 2.34315C56.9122 1.60028 56.0302 1.011 55.0596 0.608964C54.089 0.206926 53.0487 0 51.9982 0ZM51.1982 12H52.7982V7.2H51.1982V12Z" fill="white"/>
</svg>
