<svg width="60" height="76" viewBox="0 0 60 76" fill="none" xmlns="http://www.w3.org/2000/svg">
<rect width="60" height="76" fill="black"/>
<rect y="16" width="60" height="60" fill="black"/>
<path d="M18 25V31H27V46.81C25.14 47.89 24 49.87 24 52V55H36V52C36 49.87 34.86 47.89 33 46.81V31H42V25H18ZM12 52C5.37 52 0 54.01 0 56.5C0 58.99 5.37 61 12 61C18.63 61 24 58.99 24 56.5C24 54.01 18.63 52 12 52ZM48 52C41.37 52 36 54.01 36 56.5C36 58.99 41.37 61 48 61C54.63 61 60 58.99 60 56.5C60 54.01 54.63 52 48 52ZM24 58V61C24 63.16 25.14 65.14 27 66.19C28.86 67.27 31.14 67.27 33 66.19C34.86 65.14 36 63.13 36 61V58H24Z" fill="#00F8EB"/>
<path d="M51.2 5.6H52.8V4H51.2M52 14.4C48.472 14.4 45.6 11.528 45.6 8C45.6 4.472 48.472 1.6 52 1.6C55.528 1.6 58.4 4.472 58.4 8C58.4 11.528 55.528 14.4 52 14.4ZM52 0C50.9494 0 49.9091 0.206926 48.9385 0.608964C47.9679 1.011 47.086 1.60028 46.3431 2.34315C44.8429 3.84344 44 5.87827 44 8C44 10.1217 44.8429 12.1566 46.3431 13.6569C47.086 14.3997 47.9679 14.989 48.9385 15.391C49.9091 15.7931 50.9494 16 52 16C54.1217 16 56.1566 15.1571 57.6569 13.6569C59.1571 12.1566 60 10.1217 60 8C60 6.94943 59.7931 5.90914 59.391 4.93853C58.989 3.96793 58.3997 3.08601 57.6569 2.34315C56.914 1.60028 56.0321 1.011 55.0615 0.608964C54.0909 0.206926 53.0506 0 52 0ZM51.2 12H52.8V7.2H51.2V12Z" fill="white"/>
</svg>
