<svg width="24" height="24" viewBox="0 0 24 24" fill="none" xmlns="http://www.w3.org/2000/svg">
<path d="M21.3916 9C22.8321 9.00016 23.9998 10.1679 24 11.6084C24 13.049 22.8322 14.2176 21.3916 14.2178H2.6084C1.16779 14.2176 0 13.049 0 11.6084C0.000160782 10.1679 1.16789 9.00016 2.6084 9H21.3916ZM3.65234 10.0439C2.78802 10.0441 2.08789 10.745 2.08789 11.6094C2.08814 12.4735 2.78818 13.1737 3.65234 13.1738C4.51664 13.1738 5.21753 12.4736 5.21777 11.6094C5.21777 10.7449 4.51679 10.0439 3.65234 10.0439ZM7.82617 10.0439C6.96173 10.0439 6.26074 10.7449 6.26074 11.6094C6.26094 12.4737 6.96185 13.1738 7.82617 13.1738C8.6904 13.1737 9.3914 12.4736 9.3916 11.6094C9.3916 10.745 8.69052 10.0441 7.82617 10.0439ZM11.999 10.0439C11.1347 10.0441 10.4346 10.745 10.4346 11.6094C10.4348 12.4735 11.1349 13.1737 11.999 13.1738C12.8633 13.1738 13.5642 12.4736 13.5645 11.6094C13.5645 10.7449 12.8635 10.0439 11.999 10.0439ZM16.1738 10.0439C15.3095 10.0441 14.6094 10.745 14.6094 11.6094C14.6096 12.4736 15.3096 13.1737 16.1738 13.1738C17.0382 13.1738 17.7391 12.4737 17.7393 11.6094C17.7393 10.7449 17.0383 10.0439 16.1738 10.0439ZM20.3477 10.0439C19.4832 10.0439 18.7822 10.7449 18.7822 11.6094C18.7824 12.4737 19.4833 13.1738 20.3477 13.1738C21.2119 13.1737 21.9129 12.4736 21.9131 11.6094C21.9131 10.745 21.212 10.0441 20.3477 10.0439Z" fill="#FFBB00"/>
</svg>
