<svg width="61" height="76" viewBox="0 0 61 76" fill="none" xmlns="http://www.w3.org/2000/svg">
<rect x="1" width="60" height="76" fill="black"/>
<rect x="1" y="16" width="60" height="60" fill="black"/>
<ellipse cx="31" cy="48.1044" rx="30" ry="21.8644" fill="url(#paint0_radial_536_328)" fill-opacity="0.5"/>
<g filter="url(#filter0_d_536_328)">
<mask id="path-4-inside-1_536_328" fill="white">
<path d="M51.5395 32.0355C52.744 32.3456 53.9108 32.7885 55.0191 33.3561C55.5174 33.607 55.9651 33.9489 56.3395 34.3646C56.5717 34.6292 56.6972 34.9718 56.6914 35.3251C56.6485 35.6243 56.5166 35.9034 56.313 36.1255C55.8636 36.591 55.3336 36.9698 54.7492 37.2433C52.8367 38.097 50.8287 38.7142 48.7691 39.0816C45.5644 39.7054 42.3235 40.1225 39.0661 40.3302C38.7622 40.3666 38.4565 40.3853 38.1505 40.3862C37.5869 40.4502 37.026 40.4422 36.4623 40.4983C35.9702 40.5463 35.478 40.4983 34.9832 40.5463C34.0941 40.6157 33.2051 40.565 32.3107 40.6157L32.1665 40.6174C30.8543 40.6329 29.5399 40.6485 28.2278 40.597C27.4975 40.581 26.7778 40.6103 26.0475 40.5436C25.55 40.4903 25.0446 40.549 24.5578 40.4903C24.0709 40.4316 23.5814 40.4636 23.0918 40.3995C21.2396 40.2982 19.3874 40.1247 17.5351 39.9086C14.8357 39.6146 12.1614 39.1215 9.53347 38.4333C8.69173 38.2084 7.86676 37.924 7.0647 37.5822C6.26223 37.2693 5.51995 36.8179 4.87112 36.2482C4.70602 36.1119 4.57532 35.938 4.48977 35.7409C4.40421 35.5438 4.36624 35.3291 4.37896 35.1143C4.51851 34.5744 4.85738 34.1087 5.32624 33.8123C6.23653 33.1975 7.23394 32.7253 8.28453 32.4117C10.7286 31.6567 13.232 31.1131 15.7676 30.7869C18.9929 30.3479 22.2371 30.063 25.4892 29.9331C26.2406 29.9358 26.9895 29.8611 27.741 29.8611C29.1725 29.8611 30.604 29.8451 32.0329 29.8611C32.9696 29.8691 33.9195 29.8371 34.8509 29.9091C35.3907 29.9518 35.9384 29.9118 36.4676 29.9705C36.8989 30.0185 37.3461 29.9945 37.7907 30.0478C39.2222 30.1279 40.6563 30.2533 42.0852 30.3947C45.2746 30.6899 48.4358 31.2386 51.5395 32.0355Z"/>
<path d="M10.2638 30.1999C9.18141 30.4608 8.12001 30.8032 7.08851 31.2244C6.18008 31.5492 5.36115 32.0869 4.69913 32.7932L4.05085 33.5722L4.20432 32.5611C4.23701 32.3045 4.25116 32.046 4.24665 31.7874C4.24536 31.6088 4.25775 31.4304 4.2837 31.2538C4.30308 31.1293 4.31369 31.0036 4.31545 30.8776V30.7202C4.29637 30.2457 4.3472 29.7709 4.46628 29.3115V29.2901C4.72322 28.776 5.11842 28.3452 5.60673 28.0469C6.51391 27.4779 7.49291 27.0346 8.51738 26.7289C9.6361 26.3667 10.7739 26.0675 11.9255 25.8325C15.9421 25.0448 20.01 24.5517 24.0973 24.3571H24.1106C24.4558 24.3551 24.8008 24.3417 25.1452 24.3171C25.5438 24.2761 25.9513 24.2628 26.3677 24.277C27.3467 24.2077 28.3363 24.2077 29.2942 24.2077H31.8582C32.714 24.2019 33.5698 24.217 34.4249 24.253C34.6763 24.277 34.9329 24.277 35.179 24.277L35.1835 24.2771C35.5525 24.2824 35.932 24.2879 36.3142 24.3304C37.3134 24.357 38.3285 24.4343 39.3092 24.5089L39.3121 24.5091L40.2806 24.5812C43.6646 24.8338 47.0255 25.3386 50.3356 26.0912C51.6808 26.3986 52.9959 26.8272 54.265 27.3719C54.9858 27.6703 55.6459 28.0998 56.2125 28.6392C56.3958 28.8238 56.5399 29.0441 56.6359 29.2868C56.7319 29.5295 56.7778 29.7893 56.7708 30.0505C56.7653 30.3828 56.7803 30.7152 56.8158 31.0457V31.155C56.828 31.5226 56.8457 31.8899 56.8687 32.2569L56.9322 33.3695L56.403 32.7532C56.1556 32.4565 55.8668 32.1977 55.5457 31.9848C54.5344 31.3915 53.4535 30.9281 52.3281 30.6054C50.8392 30.1606 49.3257 29.8043 47.7954 29.5383C44.3706 28.9486 40.914 28.5655 37.444 28.391H37.4255C37.1819 28.3663 36.9373 28.353 36.6926 28.351C36.4791 28.3492 36.2612 28.3395 36.039 28.3217C35.7011 28.2919 35.362 28.2786 35.0229 28.2816C34.7089 28.2799 34.3993 28.2683 34.0941 28.247C33.7449 28.2149 33.4141 28.2149 33.078 28.2149H32.1863C31.0644 28.2149 29.9028 28.1936 28.765 28.2149H28.2358C27.8494 28.2149 27.4525 28.2149 27.1218 28.2496C26.791 28.2843 26.4708 28.2816 26.148 28.2843L26.1449 28.2843C25.8231 28.287 25.4908 28.2897 25.1716 28.319C24.9388 28.3537 24.735 28.3483 24.481 28.3537C24.227 28.359 23.9862 28.3644 23.7454 28.3937H23.7269C21.184 28.5271 18.6756 28.7565 16.2703 29.0767C14.2484 29.3342 12.2428 29.7092 10.2638 30.1999Z"/>
<path d="M7.94319 26.3634C7.68917 26.4594 7.42897 26.567 7.1626 26.6862C6.98444 26.7645 6.80274 26.8418 6.61752 26.9183L6.05391 27.1451L6.14123 26.5421L6.15446 26.4434C6.1797 26.1886 6.24119 25.9388 6.33704 25.7017C6.48733 25.4021 6.69826 25.1376 6.95621 24.9253C7.47239 24.51 8.0432 24.1688 8.65233 23.9115C9.63893 23.4967 10.6553 23.1577 11.6926 22.8977C13.9308 22.3442 16.2024 21.9387 18.493 21.6838C20.4008 21.4543 22.3086 21.2916 24.1608 21.1875H24.1741C24.3916 21.1895 24.6089 21.1779 24.825 21.1528C25.0049 21.1368 25.1769 21.1155 25.3542 21.1155H25.3674C25.7788 21.1169 26.19 21.1044 26.6005 21.0781C27.0794 21.0408 27.5743 21.0408 28.0717 21.0408C29.2862 21.0008 30.2864 21.0008 31.2178 21.0008H31.2179C31.6968 20.9954 32.1784 21.0248 32.6467 21.0248C33.0463 21.0488 33.4591 21.0488 33.8665 21.0488H33.8666C34.1111 21.0526 34.3555 21.0633 34.5995 21.0808C34.8924 21.1022 35.1799 21.1128 35.4621 21.1128C35.7998 21.108 36.1374 21.125 36.4729 21.1635C38.0738 21.2382 39.8202 21.3743 41.7783 21.5797C44.5659 21.8625 47.3283 22.3575 50.0419 23.0604C51.2848 23.3815 52.4812 23.864 53.6008 24.4958C53.9959 24.7246 54.3457 25.0248 54.6328 25.3816C54.8582 25.7145 54.9816 26.107 54.9874 26.5101L55.0535 27.1771L54.4978 26.9103C54.1618 26.7529 53.7596 26.5715 53.3362 26.4141C51.3829 25.7223 49.3717 25.2098 47.327 24.8827C43.9113 24.3119 40.4657 23.9404 37.0074 23.7701C36.7549 23.7727 36.4927 23.7533 36.2484 23.7353L36.2136 23.7328C35.9614 23.7114 35.717 23.7008 35.4807 23.7008C35.1076 23.7061 34.9012 23.6954 34.3773 23.6634C34.028 23.6421 33.6752 23.6314 33.3188 23.6314H31.0829C30.4823 23.618 29.8737 23.6314 29.2862 23.6314H27.651C27.3864 23.6349 27.1156 23.6456 26.8387 23.6634C26.6587 23.6741 26.4497 23.6901 26.2856 23.6901H25.7935C25.5479 23.6893 25.3024 23.7 25.0579 23.7221C24.7985 23.7621 24.5392 23.7621 24.2905 23.7621C24.059 23.7635 23.8277 23.775 23.5972 23.7968H23.5761C19.6435 23.9899 15.7307 24.4777 11.8699 25.2562C10.537 25.5322 9.22482 25.9022 7.94319 26.3634Z"/>
</mask>
<path d="M51.5395 32.0355C52.744 32.3456 53.9108 32.7885 55.0191 33.3561C55.5174 33.607 55.9651 33.9489 56.3395 34.3646C56.5717 34.6292 56.6972 34.9718 56.6914 35.3251C56.6485 35.6243 56.5166 35.9034 56.313 36.1255C55.8636 36.591 55.3336 36.9698 54.7492 37.2433C52.8367 38.097 50.8287 38.7142 48.7691 39.0816C45.5644 39.7054 42.3235 40.1225 39.0661 40.3302C38.7622 40.3666 38.4565 40.3853 38.1505 40.3862C37.5869 40.4502 37.026 40.4422 36.4623 40.4983C35.9702 40.5463 35.478 40.4983 34.9832 40.5463C34.0941 40.6157 33.2051 40.565 32.3107 40.6157L32.1665 40.6174C30.8543 40.6329 29.5399 40.6485 28.2278 40.597C27.4975 40.581 26.7778 40.6103 26.0475 40.5436C25.55 40.4903 25.0446 40.549 24.5578 40.4903C24.0709 40.4316 23.5814 40.4636 23.0918 40.3995C21.2396 40.2982 19.3874 40.1247 17.5351 39.9086C14.8357 39.6146 12.1614 39.1215 9.53347 38.4333C8.69173 38.2084 7.86676 37.924 7.0647 37.5822C6.26223 37.2693 5.51995 36.8179 4.87112 36.2482C4.70602 36.1119 4.57532 35.938 4.48977 35.7409C4.40421 35.5438 4.36624 35.3291 4.37896 35.1143C4.51851 34.5744 4.85738 34.1087 5.32624 33.8123C6.23653 33.1975 7.23394 32.7253 8.28453 32.4117C10.7286 31.6567 13.232 31.1131 15.7676 30.7869C18.9929 30.3479 22.2371 30.063 25.4892 29.9331C26.2406 29.9358 26.9895 29.8611 27.741 29.8611C29.1725 29.8611 30.604 29.8451 32.0329 29.8611C32.9696 29.8691 33.9195 29.8371 34.8509 29.9091C35.3907 29.9518 35.9384 29.9118 36.4676 29.9705C36.8989 30.0185 37.3461 29.9945 37.7907 30.0478C39.2222 30.1279 40.6563 30.2533 42.0852 30.3947C45.2746 30.6899 48.4358 31.2386 51.5395 32.0355Z" fill="#FFBB00"/>
<path d="M10.2638 30.1999C9.18141 30.4608 8.12001 30.8032 7.08851 31.2244C6.18008 31.5492 5.36115 32.0869 4.69913 32.7932L4.05085 33.5722L4.20432 32.5611C4.23701 32.3045 4.25116 32.046 4.24665 31.7874C4.24536 31.6088 4.25775 31.4304 4.2837 31.2538C4.30308 31.1293 4.31369 31.0036 4.31545 30.8776V30.7202C4.29637 30.2457 4.3472 29.7709 4.46628 29.3115V29.2901C4.72322 28.776 5.11842 28.3452 5.60673 28.0469C6.51391 27.4779 7.49291 27.0346 8.51738 26.7289C9.6361 26.3667 10.7739 26.0675 11.9255 25.8325C15.9421 25.0448 20.01 24.5517 24.0973 24.3571H24.1106C24.4558 24.3551 24.8008 24.3417 25.1452 24.3171C25.5438 24.2761 25.9513 24.2628 26.3677 24.277C27.3467 24.2077 28.3363 24.2077 29.2942 24.2077H31.8582C32.714 24.2019 33.5698 24.217 34.4249 24.253C34.6763 24.277 34.9329 24.277 35.179 24.277L35.1835 24.2771C35.5525 24.2824 35.932 24.2879 36.3142 24.3304C37.3134 24.357 38.3285 24.4343 39.3092 24.5089L39.3121 24.5091L40.2806 24.5812C43.6646 24.8338 47.0255 25.3386 50.3356 26.0912C51.6808 26.3986 52.9959 26.8272 54.265 27.3719C54.9858 27.6703 55.6459 28.0998 56.2125 28.6392C56.3958 28.8238 56.5399 29.0441 56.6359 29.2868C56.7319 29.5295 56.7778 29.7893 56.7708 30.0505C56.7653 30.3828 56.7803 30.7152 56.8158 31.0457V31.155C56.828 31.5226 56.8457 31.8899 56.8687 32.2569L56.9322 33.3695L56.403 32.7532C56.1556 32.4565 55.8668 32.1977 55.5457 31.9848C54.5344 31.3915 53.4535 30.9281 52.3281 30.6054C50.8392 30.1606 49.3257 29.8043 47.7954 29.5383C44.3706 28.9486 40.914 28.5655 37.444 28.391H37.4255C37.1819 28.3663 36.9373 28.353 36.6926 28.351C36.4791 28.3492 36.2612 28.3395 36.039 28.3217C35.7011 28.2919 35.362 28.2786 35.0229 28.2816C34.7089 28.2799 34.3993 28.2683 34.0941 28.247C33.7449 28.2149 33.4141 28.2149 33.078 28.2149H32.1863C31.0644 28.2149 29.9028 28.1936 28.765 28.2149H28.2358C27.8494 28.2149 27.4525 28.2149 27.1218 28.2496C26.791 28.2843 26.4708 28.2816 26.148 28.2843L26.1449 28.2843C25.8231 28.287 25.4908 28.2897 25.1716 28.319C24.9388 28.3537 24.735 28.3483 24.481 28.3537C24.227 28.359 23.9862 28.3644 23.7454 28.3937H23.7269C21.184 28.5271 18.6756 28.7565 16.2703 29.0767C14.2484 29.3342 12.2428 29.7092 10.2638 30.1999Z" fill="#FFBB00"/>
<path d="M7.94319 26.3634C7.68917 26.4594 7.42897 26.567 7.1626 26.6862C6.98444 26.7645 6.80274 26.8418 6.61752 26.9183L6.05391 27.1451L6.14123 26.5421L6.15446 26.4434C6.1797 26.1886 6.24119 25.9388 6.33704 25.7017C6.48733 25.4021 6.69826 25.1376 6.95621 24.9253C7.47239 24.51 8.0432 24.1688 8.65233 23.9115C9.63893 23.4967 10.6553 23.1577 11.6926 22.8977C13.9308 22.3442 16.2024 21.9387 18.493 21.6838C20.4008 21.4543 22.3086 21.2916 24.1608 21.1875H24.1741C24.3916 21.1895 24.6089 21.1779 24.825 21.1528C25.0049 21.1368 25.1769 21.1155 25.3542 21.1155H25.3674C25.7788 21.1169 26.19 21.1044 26.6005 21.0781C27.0794 21.0408 27.5743 21.0408 28.0717 21.0408C29.2862 21.0008 30.2864 21.0008 31.2178 21.0008H31.2179C31.6968 20.9954 32.1784 21.0248 32.6467 21.0248C33.0463 21.0488 33.4591 21.0488 33.8665 21.0488H33.8666C34.1111 21.0526 34.3555 21.0633 34.5995 21.0808C34.8924 21.1022 35.1799 21.1128 35.4621 21.1128C35.7998 21.108 36.1374 21.125 36.4729 21.1635C38.0738 21.2382 39.8202 21.3743 41.7783 21.5797C44.5659 21.8625 47.3283 22.3575 50.0419 23.0604C51.2848 23.3815 52.4812 23.864 53.6008 24.4958C53.9959 24.7246 54.3457 25.0248 54.6328 25.3816C54.8582 25.7145 54.9816 26.107 54.9874 26.5101L55.0535 27.1771L54.4978 26.9103C54.1618 26.7529 53.7596 26.5715 53.3362 26.4141C51.3829 25.7223 49.3717 25.2098 47.327 24.8827C43.9113 24.3119 40.4657 23.9404 37.0074 23.7701C36.7549 23.7727 36.4927 23.7533 36.2484 23.7353L36.2136 23.7328C35.9614 23.7114 35.717 23.7008 35.4807 23.7008C35.1076 23.7061 34.9012 23.6954 34.3773 23.6634C34.028 23.6421 33.6752 23.6314 33.3188 23.6314H31.0829C30.4823 23.618 29.8737 23.6314 29.2862 23.6314H27.651C27.3864 23.6349 27.1156 23.6456 26.8387 23.6634C26.6587 23.6741 26.4497 23.6901 26.2856 23.6901H25.7935C25.5479 23.6893 25.3024 23.7 25.0579 23.7221C24.7985 23.7621 24.5392 23.7621 24.2905 23.7621C24.059 23.7635 23.8277 23.775 23.5972 23.7968H23.5761C19.6435 23.9899 15.7307 24.4777 11.8699 25.2562C10.537 25.5322 9.22482 25.9022 7.94319 26.3634Z" fill="#FFBB00"/>
<path d="M51.5395 32.0355C52.744 32.3456 53.9108 32.7885 55.0191 33.3561C55.5174 33.607 55.9651 33.9489 56.3395 34.3646C56.5717 34.6292 56.6972 34.9718 56.6914 35.3251C56.6485 35.6243 56.5166 35.9034 56.313 36.1255C55.8636 36.591 55.3336 36.9698 54.7492 37.2433C52.8367 38.097 50.8287 38.7142 48.7691 39.0816C45.5644 39.7054 42.3235 40.1225 39.0661 40.3302C38.7622 40.3666 38.4565 40.3853 38.1505 40.3862C37.5869 40.4502 37.026 40.4422 36.4623 40.4983C35.9702 40.5463 35.478 40.4983 34.9832 40.5463C34.0941 40.6157 33.2051 40.565 32.3107 40.6157L32.1665 40.6174C30.8543 40.6329 29.5399 40.6485 28.2278 40.597C27.4975 40.581 26.7778 40.6103 26.0475 40.5436C25.55 40.4903 25.0446 40.549 24.5578 40.4903C24.0709 40.4316 23.5814 40.4636 23.0918 40.3995C21.2396 40.2982 19.3874 40.1247 17.5351 39.9086C14.8357 39.6146 12.1614 39.1215 9.53347 38.4333C8.69173 38.2084 7.86676 37.924 7.0647 37.5822C6.26223 37.2693 5.51995 36.8179 4.87112 36.2482C4.70602 36.1119 4.57532 35.938 4.48977 35.7409C4.40421 35.5438 4.36624 35.3291 4.37896 35.1143C4.51851 34.5744 4.85738 34.1087 5.32624 33.8123C6.23653 33.1975 7.23394 32.7253 8.28453 32.4117C10.7286 31.6567 13.232 31.1131 15.7676 30.7869C18.9929 30.3479 22.2371 30.063 25.4892 29.9331C26.2406 29.9358 26.9895 29.8611 27.741 29.8611C29.1725 29.8611 30.604 29.8451 32.0329 29.8611C32.9696 29.8691 33.9195 29.8371 34.8509 29.9091C35.3907 29.9518 35.9384 29.9118 36.4676 29.9705C36.8989 30.0185 37.3461 29.9945 37.7907 30.0478C39.2222 30.1279 40.6563 30.2533 42.0852 30.3947C45.2746 30.6899 48.4358 31.2386 51.5395 32.0355Z" stroke="#FFBB00" stroke-width="2" mask="url(#path-4-inside-1_536_328)"/>
<path d="M10.2638 30.1999C9.18141 30.4608 8.12001 30.8032 7.08851 31.2244C6.18008 31.5492 5.36115 32.0869 4.69913 32.7932L4.05085 33.5722L4.20432 32.5611C4.23701 32.3045 4.25116 32.046 4.24665 31.7874C4.24536 31.6088 4.25775 31.4304 4.2837 31.2538C4.30308 31.1293 4.31369 31.0036 4.31545 30.8776V30.7202C4.29637 30.2457 4.3472 29.7709 4.46628 29.3115V29.2901C4.72322 28.776 5.11842 28.3452 5.60673 28.0469C6.51391 27.4779 7.49291 27.0346 8.51738 26.7289C9.6361 26.3667 10.7739 26.0675 11.9255 25.8325C15.9421 25.0448 20.01 24.5517 24.0973 24.3571H24.1106C24.4558 24.3551 24.8008 24.3417 25.1452 24.3171C25.5438 24.2761 25.9513 24.2628 26.3677 24.277C27.3467 24.2077 28.3363 24.2077 29.2942 24.2077H31.8582C32.714 24.2019 33.5698 24.217 34.4249 24.253C34.6763 24.277 34.9329 24.277 35.179 24.277L35.1835 24.2771C35.5525 24.2824 35.932 24.2879 36.3142 24.3304C37.3134 24.357 38.3285 24.4343 39.3092 24.5089L39.3121 24.5091L40.2806 24.5812C43.6646 24.8338 47.0255 25.3386 50.3356 26.0912C51.6808 26.3986 52.9959 26.8272 54.265 27.3719C54.9858 27.6703 55.6459 28.0998 56.2125 28.6392C56.3958 28.8238 56.5399 29.0441 56.6359 29.2868C56.7319 29.5295 56.7778 29.7893 56.7708 30.0505C56.7653 30.3828 56.7803 30.7152 56.8158 31.0457V31.155C56.828 31.5226 56.8457 31.8899 56.8687 32.2569L56.9322 33.3695L56.403 32.7532C56.1556 32.4565 55.8668 32.1977 55.5457 31.9848C54.5344 31.3915 53.4535 30.9281 52.3281 30.6054C50.8392 30.1606 49.3257 29.8043 47.7954 29.5383C44.3706 28.9486 40.914 28.5655 37.444 28.391H37.4255C37.1819 28.3663 36.9373 28.353 36.6926 28.351C36.4791 28.3492 36.2612 28.3395 36.039 28.3217C35.7011 28.2919 35.362 28.2786 35.0229 28.2816C34.7089 28.2799 34.3993 28.2683 34.0941 28.247C33.7449 28.2149 33.4141 28.2149 33.078 28.2149H32.1863C31.0644 28.2149 29.9028 28.1936 28.765 28.2149H28.2358C27.8494 28.2149 27.4525 28.2149 27.1218 28.2496C26.791 28.2843 26.4708 28.2816 26.148 28.2843L26.1449 28.2843C25.8231 28.287 25.4908 28.2897 25.1716 28.319C24.9388 28.3537 24.735 28.3483 24.481 28.3537C24.227 28.359 23.9862 28.3644 23.7454 28.3937H23.7269C21.184 28.5271 18.6756 28.7565 16.2703 29.0767C14.2484 29.3342 12.2428 29.7092 10.2638 30.1999Z" stroke="#FFBB00" stroke-width="2" mask="url(#path-4-inside-1_536_328)"/>
<path d="M7.94319 26.3634C7.68917 26.4594 7.42897 26.567 7.1626 26.6862C6.98444 26.7645 6.80274 26.8418 6.61752 26.9183L6.05391 27.1451L6.14123 26.5421L6.15446 26.4434C6.1797 26.1886 6.24119 25.9388 6.33704 25.7017C6.48733 25.4021 6.69826 25.1376 6.95621 24.9253C7.47239 24.51 8.0432 24.1688 8.65233 23.9115C9.63893 23.4967 10.6553 23.1577 11.6926 22.8977C13.9308 22.3442 16.2024 21.9387 18.493 21.6838C20.4008 21.4543 22.3086 21.2916 24.1608 21.1875H24.1741C24.3916 21.1895 24.6089 21.1779 24.825 21.1528C25.0049 21.1368 25.1769 21.1155 25.3542 21.1155H25.3674C25.7788 21.1169 26.19 21.1044 26.6005 21.0781C27.0794 21.0408 27.5743 21.0408 28.0717 21.0408C29.2862 21.0008 30.2864 21.0008 31.2178 21.0008H31.2179C31.6968 20.9954 32.1784 21.0248 32.6467 21.0248C33.0463 21.0488 33.4591 21.0488 33.8665 21.0488H33.8666C34.1111 21.0526 34.3555 21.0633 34.5995 21.0808C34.8924 21.1022 35.1799 21.1128 35.4621 21.1128C35.7998 21.108 36.1374 21.125 36.4729 21.1635C38.0738 21.2382 39.8202 21.3743 41.7783 21.5797C44.5659 21.8625 47.3283 22.3575 50.0419 23.0604C51.2848 23.3815 52.4812 23.864 53.6008 24.4958C53.9959 24.7246 54.3457 25.0248 54.6328 25.3816C54.8582 25.7145 54.9816 26.107 54.9874 26.5101L55.0535 27.1771L54.4978 26.9103C54.1618 26.7529 53.7596 26.5715 53.3362 26.4141C51.3829 25.7223 49.3717 25.2098 47.327 24.8827C43.9113 24.3119 40.4657 23.9404 37.0074 23.7701C36.7549 23.7727 36.4927 23.7533 36.2484 23.7353L36.2136 23.7328C35.9614 23.7114 35.717 23.7008 35.4807 23.7008C35.1076 23.7061 34.9012 23.6954 34.3773 23.6634C34.028 23.6421 33.6752 23.6314 33.3188 23.6314H31.0829C30.4823 23.618 29.8737 23.6314 29.2862 23.6314H27.651C27.3864 23.6349 27.1156 23.6456 26.8387 23.6634C26.6587 23.6741 26.4497 23.6901 26.2856 23.6901H25.7935C25.5479 23.6893 25.3024 23.7 25.0579 23.7221C24.7985 23.7621 24.5392 23.7621 24.2905 23.7621C24.059 23.7635 23.8277 23.775 23.5972 23.7968H23.5761C19.6435 23.9899 15.7307 24.4777 11.8699 25.2562C10.537 25.5322 9.22482 25.9022 7.94319 26.3634Z" stroke="#FFBB00" stroke-width="2" mask="url(#path-4-inside-1_536_328)"/>
</g>
<path d="M52.2 5.6H53.8V4H52.2M53 14.4C49.472 14.4 46.6 11.528 46.6 8C46.6 4.472 49.472 1.6 53 1.6C56.528 1.6 59.4 4.472 59.4 8C59.4 11.528 56.528 14.4 53 14.4ZM53 0C51.9494 0 50.9091 0.206926 49.9385 0.608964C48.9679 1.011 48.086 1.60028 47.3431 2.34315C45.8429 3.84344 45 5.87827 45 8C45 10.1217 45.8429 12.1566 47.3431 13.6569C48.086 14.3997 48.9679 14.989 49.9385 15.391C50.9091 15.7931 51.9494 16 53 16C55.1217 16 57.1566 15.1571 58.6569 13.6569C60.1571 12.1566 61 10.1217 61 8C61 6.94943 60.7931 5.90914 60.391 4.93853C59.989 3.96793 59.3997 3.08601 58.6569 2.34315C57.914 1.60028 57.0321 1.011 56.0615 0.608964C55.0909 0.206926 54.0506 0 53 0ZM52.2 12H53.8V7.2H52.2V12Z" fill="white"/>
<defs>
<filter id="filter0_d_536_328" x="0.0508461" y="21.0001" width="60.8814" height="27.6322" filterUnits="userSpaceOnUse" color-interpolation-filters="sRGB">
<feFlood flood-opacity="0" result="BackgroundImageFix"/>
<feColorMatrix in="SourceAlpha" type="matrix" values="0 0 0 0 0 0 0 0 0 0 0 0 0 0 0 0 0 0 127 0" result="hardAlpha"/>
<feOffset dy="4"/>
<feGaussianBlur stdDeviation="2"/>
<feComposite in2="hardAlpha" operator="out"/>
<feColorMatrix type="matrix" values="0 0 0 0 0 0 0 0 0 0 0 0 0 0 0 0 0 0 0.25 0"/>
<feBlend mode="normal" in2="BackgroundImageFix" result="effect1_dropShadow_536_328"/>
<feBlend mode="normal" in="SourceGraphic" in2="effect1_dropShadow_536_328" result="shape"/>
</filter>
<radialGradient id="paint0_radial_536_328" cx="0" cy="0" r="1" gradientUnits="userSpaceOnUse" gradientTransform="translate(31 48.1044) rotate(90) scale(21.8644 30)">
<stop offset="0.095" stop-color="#FFBB00"/>
<stop offset="0.235" stop-color="#E0A400"/>
<stop offset="0.41" stop-color="#B78600"/>
<stop offset="0.4101" stop-color="#B38300"/>
<stop offset="0.65" stop-color="#805E00"/>
<stop offset="1"/>
</radialGradient>
</defs>
</svg>
