<svg width="24" height="24" viewBox="0 0 24 24" fill="none" xmlns="http://www.w3.org/2000/svg">
<g clip-path="url(#clip0_547_1472)">
<path fill-rule="evenodd" clip-rule="evenodd" d="M17.7141 22.6523H20.5713C21.9126 22.6523 23 21.5823 23 20.2622V17.4501C23 17.2949 22.8719 17.1689 22.7143 17.1689C22.5565 17.1689 22.4286 17.2949 22.4286 17.4501V20.2622C22.4286 21.2715 21.597 22.0899 20.5713 22.0899H17.7141C17.5566 22.0899 17.4284 22.216 17.4284 22.3711C17.4284 22.5264 17.5566 22.6523 17.7141 22.6523ZM6.28566 22.0899H3.42849C2.40296 22.0899 1.57143 21.2715 1.57143 20.2622V17.4501C1.57143 17.2949 1.4433 17.1689 1.28572 17.1689C1.12793 17.1689 1 17.2949 1 17.4501V20.2622C1 21.5823 2.08717 22.6523 3.42849 22.6523H6.28566C6.44345 22.6523 6.57138 22.5264 6.57138 22.3711C6.57138 22.216 6.44345 22.0899 6.28566 22.0899ZM6.28566 1H3.42849C2.08717 1 1 2.07019 1 3.39031V6.20211C1 6.35741 1.12793 6.48331 1.28572 6.48331C1.4433 6.48331 1.57143 6.35741 1.57143 6.20211V3.39031C1.57143 2.38078 2.40296 1.5624 3.42849 1.5624H6.28566C6.44345 1.5624 6.57138 1.4365 6.57138 1.2812C6.57138 1.12611 6.44345 1 6.28566 1ZM17.7141 1.5624H20.5713C21.597 1.5624 22.4286 2.38078 22.4286 3.39031V6.20211C22.4286 6.35741 22.5565 6.48331 22.7143 6.48331C22.8719 6.48331 23 6.35741 23 6.20211V3.39031C23 2.07019 21.9126 1 20.5713 1H17.7141C17.5566 1 17.4284 1.12611 17.4284 1.2812C17.4284 1.4365 17.5566 1.5624 17.7141 1.5624Z" fill="white" stroke="white"/>
<path d="M19.8262 10C21.0267 10 22 10.9733 22 12.1738C22 13.3744 21.0268 14.3476 19.8262 14.3477H4.17383C2.97325 14.3476 2 13.3744 2 12.1738C2.00005 10.9733 2.97328 10 4.17383 10H19.8262ZM5.04395 10.8701C4.32366 10.8701 3.7394 11.4536 3.73926 12.1738C3.73926 12.8942 4.32357 13.4785 5.04395 13.4785C5.76427 13.4785 6.34863 12.8942 6.34863 12.1738C6.34849 11.4536 5.76418 10.8702 5.04395 10.8701ZM8.52148 10.8701C7.80127 10.8702 7.21792 11.4536 7.21777 12.1738C7.21777 12.8941 7.80118 13.4784 8.52148 13.4785C9.24186 13.4785 9.82617 12.8942 9.82617 12.1738C9.82603 11.4536 9.24177 10.8701 8.52148 10.8701ZM11.999 10.8701C11.2789 10.8703 10.6955 11.4537 10.6953 12.1738C10.6953 12.8941 11.2788 13.4783 11.999 13.4785C12.7194 13.4785 13.3037 12.8942 13.3037 12.1738C13.3036 11.4536 12.7193 10.8701 11.999 10.8701ZM15.4785 10.8701C14.7582 10.8701 14.174 11.4536 14.1738 12.1738C14.1738 12.8942 14.7581 13.4785 15.4785 13.4785C16.1988 13.4785 16.7832 12.8942 16.7832 12.1738C16.7831 11.4536 16.1988 10.8702 15.4785 10.8701ZM18.9561 10.8701C18.2358 10.8702 17.6525 11.4536 17.6523 12.1738C17.6523 12.8941 18.2358 13.4784 18.9561 13.4785C19.6764 13.4785 20.2607 12.8942 20.2607 12.1738C20.2606 11.4536 19.6763 10.8701 18.9561 10.8701Z" fill="#FFBB00"/>
</g>
<defs>
<clipPath id="clip0_547_1472">
<rect width="24" height="24" fill="white"/>
</clipPath>
</defs>
</svg>
