<svg width="60" height="42" viewBox="0 0 60 42" fill="none" xmlns="http://www.w3.org/2000/svg">
<path d="M18 0V6H27V21.81C25.14 22.89 24 24.87 24 27V30H36V27C36 24.87 34.86 22.89 33 21.81V6H42V0H18ZM12 27C5.37 27 0 29.01 0 31.5C0 33.99 5.37 36 12 36C18.63 36 24 33.99 24 31.5C24 29.01 18.63 27 12 27ZM48 27C41.37 27 36 29.01 36 31.5C36 33.99 41.37 36 48 36C54.63 36 60 33.99 60 31.5C60 29.01 54.63 27 48 27ZM24 33V36C24 38.16 25.14 40.14 27 41.19C28.86 42.27 31.14 42.27 33 41.19C34.86 40.14 36 38.13 36 36V33H24Z" fill="#00F8EB"/>
</svg>
