<svg width="60" height="29" viewBox="0 0 60 29" fill="none" xmlns="http://www.w3.org/2000/svg">
<g filter="url(#filter0_d_98_140)">
<mask id="path-1-inside-1_98_140" fill="white">
<path d="M50.6972 11.6989C51.8816 12.0039 53.029 12.4394 54.1188 12.9976C54.6087 13.2442 55.049 13.5805 55.4172 13.9892C55.6455 14.2494 55.7689 14.5864 55.7632 14.9337C55.721 15.228 55.5913 15.5024 55.3911 15.7208C54.9492 16.1785 54.4281 16.551 53.8534 16.82C51.9727 17.6594 49.9982 18.2664 47.973 18.6276C44.8217 19.241 41.6347 19.6511 38.4316 19.8554C38.1328 19.8912 37.8322 19.9096 37.5314 19.9105C36.9771 19.9734 36.4255 19.9656 35.8713 20.0207C35.3873 20.0679 34.9034 20.0207 34.4168 20.0679C33.5426 20.1361 32.6683 20.0863 31.7888 20.1361L31.6471 20.1378C30.3567 20.1531 29.0642 20.1684 27.774 20.1177C27.0559 20.102 26.3482 20.1309 25.63 20.0653C25.1409 20.0128 24.6439 20.0705 24.1651 20.0128C23.6864 19.9551 23.205 19.9866 22.7236 19.9236C20.9023 19.8239 19.0809 19.6534 17.2595 19.4409C14.6051 19.1518 11.9753 18.6669 9.39124 17.9901C8.56353 17.769 7.75231 17.4893 6.96362 17.1532C6.17453 16.8455 5.44462 16.4017 4.8066 15.8414C4.64425 15.7074 4.51574 15.5365 4.43161 15.3426C4.34748 15.1488 4.31014 14.9376 4.32264 14.7265C4.45987 14.1955 4.79309 13.7376 5.25414 13.4462C6.14926 12.8416 7.13005 12.3772 8.16312 12.0688C10.5664 11.3264 13.0281 10.7919 15.5214 10.4711C18.6931 10.0395 21.8831 9.7593 25.081 9.63161C25.82 9.63424 26.5563 9.56078 27.2953 9.56078C28.7029 9.56078 30.1106 9.54504 31.5156 9.56078C32.4367 9.56865 33.3708 9.53717 34.2867 9.608C34.8175 9.64998 35.3561 9.61063 35.8765 9.66834C36.3006 9.71557 36.7404 9.69196 37.1775 9.74443C38.5851 9.82313 39.9954 9.94644 41.4005 10.0855C44.5367 10.3758 47.6452 10.9153 50.6972 11.6989Z"/>
<path d="M10.1094 9.89396C9.04506 10.1505 8.00134 10.4872 6.98704 10.9014C6.09375 11.2207 5.28846 11.7495 4.63748 12.444L4 13.2101L4.15091 12.2158C4.18306 11.9635 4.19697 11.7092 4.19254 11.4549C4.19127 11.2794 4.20345 11.1039 4.22897 10.9302C4.24803 10.8078 4.25846 10.6842 4.26019 10.5603V10.4055C4.24143 9.93896 4.29141 9.47214 4.40851 9.02034V8.99935C4.66117 8.49382 5.04978 8.07017 5.52995 7.7768C6.42201 7.21729 7.3847 6.78137 8.39209 6.48079C9.49216 6.12467 10.611 5.83038 11.7434 5.5993C15.6931 4.82474 19.6932 4.33987 23.7124 4.1485H23.7254C24.0648 4.14654 24.4042 4.13342 24.7428 4.10915C25.1348 4.06892 25.5355 4.05581 25.9449 4.0698C26.9076 4.00159 27.8807 4.00159 28.8226 4.00159H31.3439C32.1854 3.99587 33.027 4.01075 33.8678 4.04619C34.115 4.0698 34.3674 4.0698 34.6094 4.0698L34.6138 4.06986C34.9767 4.07509 35.3498 4.08046 35.7256 4.12227C36.7082 4.14848 37.7063 4.22443 38.6708 4.29782L38.6736 4.29804L39.6259 4.36888C42.9535 4.61731 46.2584 5.11363 49.5133 5.85378C50.8361 6.15598 52.1293 6.57743 53.3772 7.11306C54.086 7.40647 54.7351 7.8289 55.2923 8.35922C55.4726 8.54074 55.6143 8.75745 55.7087 8.99607C55.8031 9.2347 55.8482 9.49024 55.8413 9.74705C55.8359 10.0738 55.8506 10.4007 55.8855 10.7256V10.8332C55.8976 11.1946 55.9149 11.5558 55.9376 11.9167L56 13.0107L55.4796 12.4047C55.2364 12.113 54.9524 11.8585 54.6366 11.6491C53.6422 11.0657 52.5793 10.61 51.4726 10.2927C50.0085 9.85532 48.5203 9.50492 47.0155 9.24334C43.6478 8.66346 40.2488 8.28675 36.8366 8.11523H36.8184C36.5789 8.09092 36.3384 8.07779 36.0977 8.07588C35.8878 8.07413 35.6736 8.06451 35.455 8.04702C35.1228 8.01777 34.7893 8.00464 34.4558 8.00767C34.1471 8.00592 33.8427 7.99455 33.5426 7.97356C33.1991 7.94208 32.8739 7.94208 32.5434 7.94208H31.6666C30.5633 7.94208 29.4211 7.92109 28.3022 7.94208H27.7818C27.402 7.94208 27.0117 7.94208 26.6864 7.97619C26.3612 8.01029 26.0463 8.00767 25.7289 8.01029L25.7258 8.01032C25.4094 8.01293 25.0826 8.01563 24.7688 8.0444C24.5398 8.07851 24.3395 8.07326 24.0897 8.0785C23.8399 8.08375 23.6031 8.089 23.3663 8.11786H23.3481C20.8476 8.24903 18.381 8.47465 16.0158 8.78947C14.0276 9.04266 12.0555 9.41144 10.1094 9.89396Z"/>
<path d="M7.82747 6.12137C7.57768 6.21582 7.32183 6.32163 7.0599 6.43882C6.8847 6.51577 6.70603 6.59185 6.52389 6.66706L5.96968 6.89006L6.05554 6.29715L6.06855 6.20008C6.09338 5.94954 6.15384 5.70391 6.24809 5.47075C6.39587 5.17615 6.60329 4.91607 6.85694 4.70731C7.36452 4.29887 7.92582 3.96337 8.52479 3.71038C9.49495 3.30243 10.4944 2.96917 11.5144 2.71345C13.7153 2.16917 15.949 1.77043 18.2015 1.51976C20.0775 1.29414 21.9535 1.1341 23.7748 1.03179H23.7878C24.0017 1.03369 24.2155 1.0223 24.4279 0.997681C24.6049 0.98194 24.774 0.960952 24.9483 0.960952H24.9613C25.3658 0.962287 25.7702 0.950038 26.1738 0.924224C26.6448 0.887495 27.1313 0.887492 27.6205 0.887492C28.8148 0.848141 29.7983 0.848141 30.7141 0.848141H30.7142C31.1852 0.842894 31.6587 0.871752 32.1193 0.871752C32.5122 0.895363 32.9181 0.895363 33.3188 0.895363H33.3188C33.5593 0.899138 33.7996 0.909636 34.0395 0.926846C34.3275 0.947834 34.6102 0.958328 34.8878 0.958328C35.2198 0.95361 35.5518 0.970259 35.8817 1.00817C37.4559 1.08163 39.1732 1.21543 41.0986 1.41744C43.8398 1.69554 46.5562 2.18228 49.2245 2.87348C50.4468 3.18921 51.6231 3.66366 52.7242 4.28492C53.1126 4.50987 53.4566 4.80515 53.7389 5.15593C53.9606 5.48333 54.0819 5.86927 54.0876 6.26567L54.1526 6.92154L53.6062 6.65919C53.2758 6.50441 52.8803 6.32601 52.4639 6.17122C50.5432 5.49099 48.5655 4.98698 46.5549 4.66533C43.1961 4.10409 39.8079 3.73881 36.4073 3.57133C36.1589 3.57384 35.9011 3.55483 35.6609 3.53713L35.6267 3.5346C35.3787 3.51362 35.1384 3.50312 34.906 3.50312C34.5391 3.50837 34.3362 3.49788 33.821 3.46639C33.4775 3.44541 33.1306 3.43491 32.7802 3.43491H30.5815C29.9909 3.42179 29.3924 3.43491 28.8148 3.43491H27.2068C26.9466 3.43841 26.6803 3.4489 26.408 3.46639C26.2311 3.47689 26.0255 3.49263 25.8642 3.49263H25.3802C25.1388 3.49183 24.8974 3.50234 24.6569 3.52411C24.4019 3.56346 24.1469 3.56346 23.9023 3.56346C23.6747 3.5648 23.4473 3.57618 23.2206 3.59757H23.1998C19.3328 3.78743 15.4852 4.26711 11.6888 5.03262C10.378 5.30408 9.08775 5.66789 7.82747 6.12137Z"/>
</mask>
<path d="M50.6972 11.6989C51.8816 12.0039 53.029 12.4394 54.1188 12.9976C54.6087 13.2442 55.049 13.5805 55.4172 13.9892C55.6455 14.2494 55.7689 14.5864 55.7632 14.9337C55.721 15.228 55.5913 15.5024 55.3911 15.7208C54.9492 16.1785 54.4281 16.551 53.8534 16.82C51.9727 17.6594 49.9982 18.2664 47.973 18.6276C44.8217 19.241 41.6347 19.6511 38.4316 19.8554C38.1328 19.8912 37.8322 19.9096 37.5314 19.9105C36.9771 19.9734 36.4255 19.9656 35.8713 20.0207C35.3873 20.0679 34.9034 20.0207 34.4168 20.0679C33.5426 20.1361 32.6683 20.0863 31.7888 20.1361L31.6471 20.1378C30.3567 20.1531 29.0642 20.1684 27.774 20.1177C27.0559 20.102 26.3482 20.1309 25.63 20.0653C25.1409 20.0128 24.6439 20.0705 24.1651 20.0128C23.6864 19.9551 23.205 19.9866 22.7236 19.9236C20.9023 19.8239 19.0809 19.6534 17.2595 19.4409C14.6051 19.1518 11.9753 18.6669 9.39124 17.9901C8.56353 17.769 7.75231 17.4893 6.96362 17.1532C6.17453 16.8455 5.44462 16.4017 4.8066 15.8414C4.64425 15.7074 4.51574 15.5365 4.43161 15.3426C4.34748 15.1488 4.31014 14.9376 4.32264 14.7265C4.45987 14.1955 4.79309 13.7376 5.25414 13.4462C6.14926 12.8416 7.13005 12.3772 8.16312 12.0688C10.5664 11.3264 13.0281 10.7919 15.5214 10.4711C18.6931 10.0395 21.8831 9.7593 25.081 9.63161C25.82 9.63424 26.5563 9.56078 27.2953 9.56078C28.7029 9.56078 30.1106 9.54504 31.5156 9.56078C32.4367 9.56865 33.3708 9.53717 34.2867 9.608C34.8175 9.64998 35.3561 9.61063 35.8765 9.66834C36.3006 9.71557 36.7404 9.69196 37.1775 9.74443C38.5851 9.82313 39.9954 9.94644 41.4005 10.0855C44.5367 10.3758 47.6452 10.9153 50.6972 11.6989Z" fill="#FFBB00"/>
<path d="M10.1094 9.89396C9.04506 10.1505 8.00134 10.4872 6.98704 10.9014C6.09375 11.2207 5.28846 11.7495 4.63748 12.444L4 13.2101L4.15091 12.2158C4.18306 11.9635 4.19697 11.7092 4.19254 11.4549C4.19127 11.2794 4.20345 11.1039 4.22897 10.9302C4.24803 10.8078 4.25846 10.6842 4.26019 10.5603V10.4055C4.24143 9.93896 4.29141 9.47214 4.40851 9.02034V8.99935C4.66117 8.49382 5.04978 8.07017 5.52995 7.7768C6.42201 7.21729 7.3847 6.78137 8.39209 6.48079C9.49216 6.12467 10.611 5.83038 11.7434 5.5993C15.6931 4.82474 19.6932 4.33987 23.7124 4.1485H23.7254C24.0648 4.14654 24.4042 4.13342 24.7428 4.10915C25.1348 4.06892 25.5355 4.05581 25.9449 4.0698C26.9076 4.00159 27.8807 4.00159 28.8226 4.00159H31.3439C32.1854 3.99587 33.027 4.01075 33.8678 4.04619C34.115 4.0698 34.3674 4.0698 34.6094 4.0698L34.6138 4.06986C34.9767 4.07509 35.3498 4.08046 35.7256 4.12227C36.7082 4.14848 37.7063 4.22443 38.6708 4.29782L38.6736 4.29804L39.6259 4.36888C42.9535 4.61731 46.2584 5.11363 49.5133 5.85378C50.8361 6.15598 52.1293 6.57743 53.3772 7.11306C54.086 7.40647 54.7351 7.8289 55.2923 8.35922C55.4726 8.54074 55.6143 8.75745 55.7087 8.99607C55.8031 9.2347 55.8482 9.49024 55.8413 9.74705C55.8359 10.0738 55.8506 10.4007 55.8855 10.7256V10.8332C55.8976 11.1946 55.9149 11.5558 55.9376 11.9167L56 13.0107L55.4796 12.4047C55.2364 12.113 54.9524 11.8585 54.6366 11.6491C53.6422 11.0657 52.5793 10.61 51.4726 10.2927C50.0085 9.85532 48.5203 9.50492 47.0155 9.24334C43.6478 8.66346 40.2488 8.28675 36.8366 8.11523H36.8184C36.5789 8.09092 36.3384 8.07779 36.0977 8.07588C35.8878 8.07413 35.6736 8.06451 35.455 8.04702C35.1228 8.01777 34.7893 8.00464 34.4558 8.00767C34.1471 8.00592 33.8427 7.99455 33.5426 7.97356C33.1991 7.94208 32.8739 7.94208 32.5434 7.94208H31.6666C30.5633 7.94208 29.4211 7.92109 28.3022 7.94208H27.7818C27.402 7.94208 27.0117 7.94208 26.6864 7.97619C26.3612 8.01029 26.0463 8.00767 25.7289 8.01029L25.7258 8.01032C25.4094 8.01293 25.0826 8.01563 24.7688 8.0444C24.5398 8.07851 24.3395 8.07326 24.0897 8.0785C23.8399 8.08375 23.6031 8.089 23.3663 8.11786H23.3481C20.8476 8.24903 18.381 8.47465 16.0158 8.78947C14.0276 9.04266 12.0555 9.41144 10.1094 9.89396Z" fill="#FFBB00"/>
<path d="M7.82747 6.12137C7.57768 6.21582 7.32183 6.32163 7.0599 6.43882C6.8847 6.51577 6.70603 6.59185 6.52389 6.66706L5.96968 6.89006L6.05554 6.29715L6.06855 6.20008C6.09338 5.94954 6.15384 5.70391 6.24809 5.47075C6.39587 5.17615 6.60329 4.91607 6.85694 4.70731C7.36452 4.29887 7.92582 3.96337 8.52479 3.71038C9.49495 3.30243 10.4944 2.96917 11.5144 2.71345C13.7153 2.16917 15.949 1.77043 18.2015 1.51976C20.0775 1.29414 21.9535 1.1341 23.7748 1.03179H23.7878C24.0017 1.03369 24.2155 1.0223 24.4279 0.997681C24.6049 0.98194 24.774 0.960952 24.9483 0.960952H24.9613C25.3658 0.962287 25.7702 0.950038 26.1738 0.924224C26.6448 0.887495 27.1313 0.887492 27.6205 0.887492C28.8148 0.848141 29.7983 0.848141 30.7141 0.848141H30.7142C31.1852 0.842894 31.6587 0.871752 32.1193 0.871752C32.5122 0.895363 32.9181 0.895363 33.3188 0.895363H33.3188C33.5593 0.899138 33.7996 0.909636 34.0395 0.926846C34.3275 0.947834 34.6102 0.958328 34.8878 0.958328C35.2198 0.95361 35.5518 0.970259 35.8817 1.00817C37.4559 1.08163 39.1732 1.21543 41.0986 1.41744C43.8398 1.69554 46.5562 2.18228 49.2245 2.87348C50.4468 3.18921 51.6231 3.66366 52.7242 4.28492C53.1126 4.50987 53.4566 4.80515 53.7389 5.15593C53.9606 5.48333 54.0819 5.86927 54.0876 6.26567L54.1526 6.92154L53.6062 6.65919C53.2758 6.50441 52.8803 6.32601 52.4639 6.17122C50.5432 5.49099 48.5655 4.98698 46.5549 4.66533C43.1961 4.10409 39.8079 3.73881 36.4073 3.57133C36.1589 3.57384 35.9011 3.55483 35.6609 3.53713L35.6267 3.5346C35.3787 3.51362 35.1384 3.50312 34.906 3.50312C34.5391 3.50837 34.3362 3.49788 33.821 3.46639C33.4775 3.44541 33.1306 3.43491 32.7802 3.43491H30.5815C29.9909 3.42179 29.3924 3.43491 28.8148 3.43491H27.2068C26.9466 3.43841 26.6803 3.4489 26.408 3.46639C26.2311 3.47689 26.0255 3.49263 25.8642 3.49263H25.3802C25.1388 3.49183 24.8974 3.50234 24.6569 3.52411C24.4019 3.56346 24.1469 3.56346 23.9023 3.56346C23.6747 3.5648 23.4473 3.57618 23.2206 3.59757H23.1998C19.3328 3.78743 15.4852 4.26711 11.6888 5.03262C10.378 5.30408 9.08775 5.66789 7.82747 6.12137Z" fill="#FFBB00"/>
<path d="M50.6972 11.6989C51.8816 12.0039 53.029 12.4394 54.1188 12.9976C54.6087 13.2442 55.049 13.5805 55.4172 13.9892C55.6455 14.2494 55.7689 14.5864 55.7632 14.9337C55.721 15.228 55.5913 15.5024 55.3911 15.7208C54.9492 16.1785 54.4281 16.551 53.8534 16.82C51.9727 17.6594 49.9982 18.2664 47.973 18.6276C44.8217 19.241 41.6347 19.6511 38.4316 19.8554C38.1328 19.8912 37.8322 19.9096 37.5314 19.9105C36.9771 19.9734 36.4255 19.9656 35.8713 20.0207C35.3873 20.0679 34.9034 20.0207 34.4168 20.0679C33.5426 20.1361 32.6683 20.0863 31.7888 20.1361L31.6471 20.1378C30.3567 20.1531 29.0642 20.1684 27.774 20.1177C27.0559 20.102 26.3482 20.1309 25.63 20.0653C25.1409 20.0128 24.6439 20.0705 24.1651 20.0128C23.6864 19.9551 23.205 19.9866 22.7236 19.9236C20.9023 19.8239 19.0809 19.6534 17.2595 19.4409C14.6051 19.1518 11.9753 18.6669 9.39124 17.9901C8.56353 17.769 7.75231 17.4893 6.96362 17.1532C6.17453 16.8455 5.44462 16.4017 4.8066 15.8414C4.64425 15.7074 4.51574 15.5365 4.43161 15.3426C4.34748 15.1488 4.31014 14.9376 4.32264 14.7265C4.45987 14.1955 4.79309 13.7376 5.25414 13.4462C6.14926 12.8416 7.13005 12.3772 8.16312 12.0688C10.5664 11.3264 13.0281 10.7919 15.5214 10.4711C18.6931 10.0395 21.8831 9.7593 25.081 9.63161C25.82 9.63424 26.5563 9.56078 27.2953 9.56078C28.7029 9.56078 30.1106 9.54504 31.5156 9.56078C32.4367 9.56865 33.3708 9.53717 34.2867 9.608C34.8175 9.64998 35.3561 9.61063 35.8765 9.66834C36.3006 9.71557 36.7404 9.69196 37.1775 9.74443C38.5851 9.82313 39.9954 9.94644 41.4005 10.0855C44.5367 10.3758 47.6452 10.9153 50.6972 11.6989Z" stroke="#FFBB00" stroke-width="2" mask="url(#path-1-inside-1_98_140)"/>
<path d="M10.1094 9.89396C9.04506 10.1505 8.00134 10.4872 6.98704 10.9014C6.09375 11.2207 5.28846 11.7495 4.63748 12.444L4 13.2101L4.15091 12.2158C4.18306 11.9635 4.19697 11.7092 4.19254 11.4549C4.19127 11.2794 4.20345 11.1039 4.22897 10.9302C4.24803 10.8078 4.25846 10.6842 4.26019 10.5603V10.4055C4.24143 9.93896 4.29141 9.47214 4.40851 9.02034V8.99935C4.66117 8.49382 5.04978 8.07017 5.52995 7.7768C6.42201 7.21729 7.3847 6.78137 8.39209 6.48079C9.49216 6.12467 10.611 5.83038 11.7434 5.5993C15.6931 4.82474 19.6932 4.33987 23.7124 4.1485H23.7254C24.0648 4.14654 24.4042 4.13342 24.7428 4.10915C25.1348 4.06892 25.5355 4.05581 25.9449 4.0698C26.9076 4.00159 27.8807 4.00159 28.8226 4.00159H31.3439C32.1854 3.99587 33.027 4.01075 33.8678 4.04619C34.115 4.0698 34.3674 4.0698 34.6094 4.0698L34.6138 4.06986C34.9767 4.07509 35.3498 4.08046 35.7256 4.12227C36.7082 4.14848 37.7063 4.22443 38.6708 4.29782L38.6736 4.29804L39.6259 4.36888C42.9535 4.61731 46.2584 5.11363 49.5133 5.85378C50.8361 6.15598 52.1293 6.57743 53.3772 7.11306C54.086 7.40647 54.7351 7.8289 55.2923 8.35922C55.4726 8.54074 55.6143 8.75745 55.7087 8.99607C55.8031 9.2347 55.8482 9.49024 55.8413 9.74705C55.8359 10.0738 55.8506 10.4007 55.8855 10.7256V10.8332C55.8976 11.1946 55.9149 11.5558 55.9376 11.9167L56 13.0107L55.4796 12.4047C55.2364 12.113 54.9524 11.8585 54.6366 11.6491C53.6422 11.0657 52.5793 10.61 51.4726 10.2927C50.0085 9.85532 48.5203 9.50492 47.0155 9.24334C43.6478 8.66346 40.2488 8.28675 36.8366 8.11523H36.8184C36.5789 8.09092 36.3384 8.07779 36.0977 8.07588C35.8878 8.07413 35.6736 8.06451 35.455 8.04702C35.1228 8.01777 34.7893 8.00464 34.4558 8.00767C34.1471 8.00592 33.8427 7.99455 33.5426 7.97356C33.1991 7.94208 32.8739 7.94208 32.5434 7.94208H31.6666C30.5633 7.94208 29.4211 7.92109 28.3022 7.94208H27.7818C27.402 7.94208 27.0117 7.94208 26.6864 7.97619C26.3612 8.01029 26.0463 8.00767 25.7289 8.01029L25.7258 8.01032C25.4094 8.01293 25.0826 8.01563 24.7688 8.0444C24.5398 8.07851 24.3395 8.07326 24.0897 8.0785C23.8399 8.08375 23.6031 8.089 23.3663 8.11786H23.3481C20.8476 8.24903 18.381 8.47465 16.0158 8.78947C14.0276 9.04266 12.0555 9.41144 10.1094 9.89396Z" stroke="#FFBB00" stroke-width="2" mask="url(#path-1-inside-1_98_140)"/>
<path d="M7.82747 6.12137C7.57768 6.21582 7.32183 6.32163 7.0599 6.43882C6.8847 6.51577 6.70603 6.59185 6.52389 6.66706L5.96968 6.89006L6.05554 6.29715L6.06855 6.20008C6.09338 5.94954 6.15384 5.70391 6.24809 5.47075C6.39587 5.17615 6.60329 4.91607 6.85694 4.70731C7.36452 4.29887 7.92582 3.96337 8.52479 3.71038C9.49495 3.30243 10.4944 2.96917 11.5144 2.71345C13.7153 2.16917 15.949 1.77043 18.2015 1.51976C20.0775 1.29414 21.9535 1.1341 23.7748 1.03179H23.7878C24.0017 1.03369 24.2155 1.0223 24.4279 0.997681C24.6049 0.98194 24.774 0.960952 24.9483 0.960952H24.9613C25.3658 0.962287 25.7702 0.950038 26.1738 0.924224C26.6448 0.887495 27.1313 0.887492 27.6205 0.887492C28.8148 0.848141 29.7983 0.848141 30.7141 0.848141H30.7142C31.1852 0.842894 31.6587 0.871752 32.1193 0.871752C32.5122 0.895363 32.9181 0.895363 33.3188 0.895363H33.3188C33.5593 0.899138 33.7996 0.909636 34.0395 0.926846C34.3275 0.947834 34.6102 0.958328 34.8878 0.958328C35.2198 0.95361 35.5518 0.970259 35.8817 1.00817C37.4559 1.08163 39.1732 1.21543 41.0986 1.41744C43.8398 1.69554 46.5562 2.18228 49.2245 2.87348C50.4468 3.18921 51.6231 3.66366 52.7242 4.28492C53.1126 4.50987 53.4566 4.80515 53.7389 5.15593C53.9606 5.48333 54.0819 5.86927 54.0876 6.26567L54.1526 6.92154L53.6062 6.65919C53.2758 6.50441 52.8803 6.32601 52.4639 6.17122C50.5432 5.49099 48.5655 4.98698 46.5549 4.66533C43.1961 4.10409 39.8079 3.73881 36.4073 3.57133C36.1589 3.57384 35.9011 3.55483 35.6609 3.53713L35.6267 3.5346C35.3787 3.51362 35.1384 3.50312 34.906 3.50312C34.5391 3.50837 34.3362 3.49788 33.821 3.46639C33.4775 3.44541 33.1306 3.43491 32.7802 3.43491H30.5815C29.9909 3.42179 29.3924 3.43491 28.8148 3.43491H27.2068C26.9466 3.43841 26.6803 3.4489 26.408 3.46639C26.2311 3.47689 26.0255 3.49263 25.8642 3.49263H25.3802C25.1388 3.49183 24.8974 3.50234 24.6569 3.52411C24.4019 3.56346 24.1469 3.56346 23.9023 3.56346C23.6747 3.5648 23.4473 3.57618 23.2206 3.59757H23.1998C19.3328 3.78743 15.4852 4.26711 11.6888 5.03262C10.378 5.30408 9.08775 5.66789 7.82747 6.12137Z" stroke="#FFBB00" stroke-width="2" mask="url(#path-1-inside-1_98_140)"/>
</g>
<defs>
<filter id="filter0_d_98_140" x="0" y="0.847504" width="60" height="27.305" filterUnits="userSpaceOnUse" color-interpolation-filters="sRGB">
<feFlood flood-opacity="0" result="BackgroundImageFix"/>
<feColorMatrix in="SourceAlpha" type="matrix" values="0 0 0 0 0 0 0 0 0 0 0 0 0 0 0 0 0 0 127 0" result="hardAlpha"/>
<feOffset dy="4"/>
<feGaussianBlur stdDeviation="2"/>
<feComposite in2="hardAlpha" operator="out"/>
<feColorMatrix type="matrix" values="0 0 0 0 0 0 0 0 0 0 0 0 0 0 0 0 0 0 0.25 0"/>
<feBlend mode="normal" in2="BackgroundImageFix" result="effect1_dropShadow_98_140"/>
<feBlend mode="normal" in="SourceGraphic" in2="effect1_dropShadow_98_140" result="shape"/>
</filter>
</defs>
</svg>
