<svg width="63" height="62" viewBox="0 0 63 62" fill="none" xmlns="http://www.w3.org/2000/svg">
<path fill-rule="evenodd" clip-rule="evenodd" d="M0.623455 0.851496H59.7954C59.867 0.841275 59.9385 0.831055 60.0152 0.831055C60.0918 0.831055 60.1634 0.836165 60.2349 0.851496C60.3422 0.856606 60.4393 0.882158 60.5262 0.93326C60.9912 1.12745 61.3132 1.57205 61.3132 2.09329V52.7464C61.3132 52.7924 61.3081 52.8435 61.303 52.8895C62.187 53.3545 62.7952 54.2846 62.7952 55.3527V58.751C62.7952 60.279 61.5431 61.531 60.0152 61.531C58.4872 61.531 57.2352 60.279 57.2352 58.751V55.3527C57.2352 54.2897 57.8433 53.3597 58.7274 52.8895C58.7223 52.8435 58.7172 52.7975 58.7172 52.7464V6.08954H0.623455C0.281066 6.08954 0 5.81358 0 5.47119V1.46984C0 1.12745 0.281066 0.851496 0.623455 0.851496ZM1.6404 47.953H54.7771V50.4621H1.6404V47.953ZM1.6404 41.5651H54.7771V44.0743H1.6404V41.5651ZM1.6404 35.1773H54.7771V37.6864H1.6404V35.1773ZM1.6404 28.7894H54.7771V31.2986H1.6404V28.7894ZM1.6404 22.3965H54.7771V24.9056H1.6404V22.3965ZM1.6404 16.0086H54.7771V18.5177H1.6404V16.0086ZM1.6404 9.62074H54.7771V12.1299H1.6404V9.62074Z" fill="#F58700"/>
</svg>
