<svg width="24" height="24" viewBox="0 0 24 24" fill="none" xmlns="http://www.w3.org/2000/svg">
<g clip-path="url(#clip0_214_2407)">
<path d="M13.6904 19.9773C13.3162 20.6495 12.5908 21.1062 11.7559 21.1062C10.9215 21.1062 10.196 20.6495 9.82227 19.9773H13.6904ZM13.6709 17.7634C13.9866 17.7635 14.245 18.0176 14.2451 18.3279C14.2451 18.6382 13.9867 18.8923 13.6709 18.8923H9.84082C9.52511 18.8921 9.2666 18.6381 9.2666 18.3279C9.2667 18.0177 9.52518 17.7636 9.84082 17.7634H13.6709ZM11.8525 2.54663C15.0248 2.54663 17.5977 5.07402 17.5977 8.19116C17.5975 12.2713 14.7256 12.7063 14.7256 15.9041C14.7254 16.2802 14.3416 16.656 13.959 16.656H9.74707C9.36391 16.656 8.98164 16.2802 8.98145 15.9041C8.98145 12.7063 6.10952 12.2713 6.10938 8.19116C6.10938 5.07415 8.68048 2.54684 11.8525 2.54663Z" fill="#FFBB00"/>
<path fill-rule="evenodd" clip-rule="evenodd" d="M17.7141 22.6523H20.5713C21.9126 22.6523 23 21.5823 23 20.2622V17.4501C23 17.2949 22.8719 17.1689 22.7143 17.1689C22.5565 17.1689 22.4286 17.2949 22.4286 17.4501V20.2622C22.4286 21.2715 21.597 22.0899 20.5713 22.0899H17.7141C17.5566 22.0899 17.4284 22.216 17.4284 22.3711C17.4284 22.5264 17.5566 22.6523 17.7141 22.6523ZM6.28566 22.0899H3.42849C2.40296 22.0899 1.57143 21.2715 1.57143 20.2622V17.4501C1.57143 17.2949 1.4433 17.1689 1.28572 17.1689C1.12793 17.1689 1 17.2949 1 17.4501V20.2622C1 21.5823 2.08717 22.6523 3.42849 22.6523H6.28566C6.44345 22.6523 6.57138 22.5264 6.57138 22.3711C6.57138 22.216 6.44345 22.0899 6.28566 22.0899ZM6.28566 1H3.42849C2.08717 1 1 2.07019 1 3.39031V6.20211C1 6.35741 1.12793 6.48331 1.28572 6.48331C1.4433 6.48331 1.57143 6.35741 1.57143 6.20211V3.39031C1.57143 2.38078 2.40296 1.5624 3.42849 1.5624H6.28566C6.44345 1.5624 6.57138 1.4365 6.57138 1.2812C6.57138 1.12611 6.44345 1 6.28566 1ZM17.7141 1.5624H20.5713C21.597 1.5624 22.4286 2.38078 22.4286 3.39031V6.20211C22.4286 6.35741 22.5565 6.48331 22.7143 6.48331C22.8719 6.48331 23 6.35741 23 6.20211V3.39031C23 2.07019 21.9126 1 20.5713 1H17.7141C17.5566 1 17.4284 1.12611 17.4284 1.2812C17.4284 1.4365 17.5566 1.5624 17.7141 1.5624Z" fill="white" stroke="white"/>
</g>
<defs>
<clipPath id="clip0_214_2407">
<rect width="24" height="24" fill="white"/>
</clipPath>
</defs>
</svg>
