<svg width="24" height="6" viewBox="0 0 24 6" fill="none" xmlns="http://www.w3.org/2000/svg">
<path d="M21.3916 0C22.8321 0.000160121 23.9998 1.16789 24 2.6084C24 4.04904 22.8322 5.21761 21.3916 5.21777H2.6084C1.16779 5.21761 0 4.04904 0 2.6084C0.000160782 1.16789 1.16789 0.000160765 2.6084 0H21.3916ZM3.65234 1.04395C2.78802 1.04409 2.08789 1.74502 2.08789 2.60937C2.08814 3.47352 2.78818 4.17368 3.65234 4.17383C4.51664 4.17383 5.21753 3.47361 5.21777 2.60937C5.21777 1.74493 4.51679 1.04395 3.65234 1.04395ZM7.82617 1.04395C6.96173 1.04395 6.26074 1.74493 6.26074 2.60937C6.26094 3.47365 6.96185 4.17383 7.82617 4.17383C8.6904 4.17371 9.3914 3.47358 9.3916 2.60937C9.3916 1.745 8.69052 1.04406 7.82617 1.04395ZM11.999 1.04395C11.1347 1.04409 10.4346 1.74502 10.4346 2.60937C10.4348 3.47352 11.1349 4.17368 11.999 4.17383C12.8633 4.17383 13.5642 3.47361 13.5645 2.60937C13.5645 1.74493 12.8635 1.04395 11.999 1.04395ZM16.1738 1.04395C15.3095 1.0441 14.6094 1.74502 14.6094 2.60937C14.6096 3.47356 15.3096 4.17368 16.1738 4.17383C17.0382 4.17383 17.7391 3.47365 17.7393 2.60937C17.7393 1.74493 17.0383 1.04395 16.1738 1.04395ZM20.3477 1.04395C19.4832 1.04395 18.7822 1.74493 18.7822 2.60937C18.7824 3.47365 19.4833 4.17383 20.3477 4.17383C21.2119 4.17371 21.9129 3.47358 21.9131 2.60937C21.9131 1.745 21.212 1.04406 20.3477 1.04395Z" fill="#FFBB00"/>
</svg>
