<svg width="24" height="24" viewBox="0 0 24 24" fill="none" xmlns="http://www.w3.org/2000/svg">
<path d="M14.4902 22.5645C14.0218 23.4194 13.1135 24 12.0684 24C11.0239 23.9999 10.1152 23.4194 9.64746 22.5645H14.4902ZM14.4658 19.5518C14.8611 19.5519 15.1846 19.8749 15.1846 20.2695C15.1845 20.6642 14.8611 20.9871 14.4658 20.9873H9.67188C9.2765 20.9873 8.95315 20.6643 8.95312 20.2695C8.95312 19.8748 9.27649 19.5518 9.67188 19.5518H14.4658ZM12.1895 0C16.1603 0 19.3799 3.21418 19.3799 7.17871C19.3798 12.3683 15.7852 12.9212 15.7852 16.9883C15.7851 17.4668 15.3053 17.9453 14.8262 17.9453H9.55371C9.07397 17.9453 8.59475 17.4668 8.59473 16.9883C8.59473 12.9212 5.00005 12.3683 5 7.17871C5 3.2142 8.21866 4.21024e-05 12.1895 0Z" fill="#FFBB00"/>
</svg>
