<svg width="24" height="24" viewBox="0 0 24 24" fill="none" xmlns="http://www.w3.org/2000/svg">
<g clip-path="url(#clip0_498_1516)">
<path d="M11.45 19C10.8125 19 10.3283 18.8092 9.99725 18.4277C9.66625 18.0462 9.5005 17.612 9.5 17.125C9.5 16.8 9.572 16.4843 9.716 16.1777C9.86 15.8712 10.0818 15.6183 10.3813 15.4188C10.6563 15.2438 10.8783 15.0188 11.0473 14.7438C11.2163 14.4688 11.3318 14.175 11.3938 13.8625L11.1688 13.75C11.0938 13.7125 11.025 13.6688 10.9625 13.6188L9.2375 14.2375C9.025 14.3125 8.81875 14.375 8.61875 14.425C8.41875 14.475 8.2125 14.5 8 14.5C7.2125 14.5 6.5155 14.1563 5.909 13.4688C5.3025 12.7813 4.9995 11.775 5 10.45C5 9.8125 5.19075 9.32825 5.57225 8.99725C5.95375 8.66625 6.38175 8.5005 6.85625 8.5C7.18125 8.5 7.5 8.572 7.8125 8.716C8.125 8.86 8.38125 9.08175 8.58125 9.38125C8.75625 9.65625 8.98125 9.878 9.25625 10.0465C9.53125 10.215 9.825 10.3308 10.1375 10.3938L10.25 10.1688C10.2875 10.0938 10.3313 10.025 10.3813 9.9625L9.7625 8.2375C9.6875 8.025 9.625 7.81875 9.575 7.61875C9.525 7.41875 9.5 7.21875 9.5 7.01875C9.5 6.21875 9.84375 5.5155 10.5313 4.909C11.2188 4.3025 12.225 3.9995 13.55 4C14.1875 4 14.672 4.19075 15.0035 4.57225C15.335 4.95375 15.5005 5.38175 15.5 5.85625C15.5 6.18125 15.428 6.5 15.284 6.8125C15.14 7.125 14.9183 7.38125 14.6188 7.58125C14.3438 7.75625 14.122 7.98125 13.9535 8.25625C13.785 8.53125 13.6693 8.825 13.6063 9.1375L13.8313 9.25C13.9062 9.2875 13.975 9.33125 14.0375 9.38125L15.7625 8.74375C15.975 8.66875 16.1783 8.6095 16.3723 8.566C16.5663 8.5225 16.7693 8.5005 16.9813 8.5C17.9938 8.5 18.75 8.91875 19.25 9.75625C19.75 10.5938 20 11.525 20 12.55C20 13.1875 19.8 13.672 19.4 14.0035C19 14.335 18.5562 14.5005 18.0687 14.5C17.7562 14.5 17.453 14.428 17.159 14.284C16.865 14.14 16.6183 13.9183 16.4188 13.6188C16.2438 13.3438 16.0188 13.122 15.7438 12.9535C15.4688 12.785 15.175 12.6693 14.8625 12.6063L14.75 12.8313C14.7125 12.9062 14.6688 12.975 14.6188 13.0375L15.2375 14.7625C15.3125 14.9625 15.375 15.1533 15.425 15.3348C15.475 15.5163 15.5 15.7068 15.5 15.9063C15.5125 16.7188 15.175 17.4375 14.4875 18.0625C13.8 18.6875 12.7875 19 11.45 19ZM12.5 12.625C12.8125 12.625 13.078 12.5158 13.2965 12.2973C13.515 12.0788 13.6245 11.813 13.625 11.5C13.6255 11.187 13.5163 10.9215 13.2973 10.7035C13.0783 10.4855 12.8125 10.376 12.5 10.375C12.1875 10.374 11.922 10.4835 11.7035 10.7035C11.485 10.9235 11.3755 11.189 11.375 11.5C11.3745 11.811 11.484 12.0768 11.7035 12.2973C11.923 12.5178 12.1885 12.627 12.5 12.625Z" fill="#00F8EB"/>
<path fill-rule="evenodd" clip-rule="evenodd" d="M17.7141 22.6523H20.5713C21.9126 22.6523 23 21.5823 23 20.2622V17.4501C23 17.2949 22.8719 17.1689 22.7143 17.1689C22.5565 17.1689 22.4286 17.2949 22.4286 17.4501V20.2622C22.4286 21.2715 21.597 22.0899 20.5713 22.0899H17.7141C17.5566 22.0899 17.4284 22.216 17.4284 22.3711C17.4284 22.5264 17.5566 22.6523 17.7141 22.6523ZM6.28566 22.0899H3.42849C2.40296 22.0899 1.57143 21.2715 1.57143 20.2622V17.4501C1.57143 17.2949 1.4433 17.1689 1.28572 17.1689C1.12793 17.1689 1 17.2949 1 17.4501V20.2622C1 21.5823 2.08717 22.6523 3.42849 22.6523H6.28566C6.44345 22.6523 6.57138 22.5264 6.57138 22.3711C6.57138 22.216 6.44345 22.0899 6.28566 22.0899ZM6.28566 1H3.42849C2.08717 1 1 2.07019 1 3.39031V6.20211C1 6.35741 1.12793 6.48331 1.28572 6.48331C1.4433 6.48331 1.57143 6.35741 1.57143 6.20211V3.39031C1.57143 2.38078 2.40296 1.5624 3.42849 1.5624H6.28566C6.44345 1.5624 6.57138 1.4365 6.57138 1.2812C6.57138 1.12611 6.44345 1 6.28566 1ZM17.7141 1.5624H20.5713C21.597 1.5624 22.4286 2.38078 22.4286 3.39031V6.20211C22.4286 6.35741 22.5565 6.48331 22.7143 6.48331C22.8719 6.48331 23 6.35741 23 6.20211V3.39031C23 2.07019 21.9126 1 20.5713 1H17.7141C17.5566 1 17.4284 1.12611 17.4284 1.2812C17.4284 1.4365 17.5566 1.5624 17.7141 1.5624Z" fill="white" stroke="white"/>
</g>
<defs>
<clipPath id="clip0_498_1516">
<rect width="24" height="24" fill="white"/>
</clipPath>
</defs>
</svg>
