<svg width="24" height="24" viewBox="0 0 24 24" fill="none" xmlns="http://www.w3.org/2000/svg">
<path d="M9.0222 2.50313L8.00976 3.51035C9.94904 5.45967 13.0991 5.4678 15.0484 3.52852L14.0412 2.51609C12.651 3.89914 10.4052 3.89334 9.0222 2.50313ZM7.00488 4.51006L6 5.50977C9.04422 8.56974 13.9879 8.5825 17.0478 5.53829L16.0481 4.53341C13.5473 7.0214 9.49287 7.01093 7.00488 4.51006Z" fill="#FFA500"/>
<path d="M13.6993 11.9471C13.6993 12.3023 13.5624 12.6429 13.3186 12.8941C13.0749 13.1452 12.7443 13.2863 12.3996 13.2863C12.0549 13.2863 11.7243 13.1452 11.4806 12.8941C11.2368 12.6429 11.0999 12.3023 11.0999 11.9471C11.0999 11.5919 11.2368 11.2513 11.4806 11.0002C11.7243 10.749 12.0549 10.6079 12.3996 10.6079C12.7443 10.6079 13.0749 10.749 13.3186 11.0002C13.5624 11.2513 13.6993 11.5919 13.6993 11.9471ZM11.8937 18.776L13.581 20.4915C13.6457 20.5573 13.6963 20.6363 13.7295 20.7235L14.6292 23.0855C14.6922 23.2508 14.6889 23.4352 14.62 23.598C14.5511 23.7608 14.4222 23.8887 14.2617 23.9536C14.1013 24.0185 13.9224 24.0151 13.7644 23.9441C13.6064 23.8731 13.4822 23.7403 13.4192 23.575L12.5698 21.3449L9.66891 18.3953C9.59881 18.3241 9.54534 18.2374 9.51252 18.1417C9.4797 18.0461 9.46841 17.944 9.47948 17.8432L9.7118 15.7273C9.15163 16.3012 8.71948 17.1077 8.38838 18.1767C8.36362 18.2619 8.32264 18.3412 8.26781 18.4099C8.21299 18.4786 8.14543 18.5354 8.06908 18.5769C7.99272 18.6184 7.90911 18.6438 7.82312 18.6517C7.73712 18.6595 7.65047 18.6496 7.56823 18.6226C7.48599 18.5955 7.4098 18.5519 7.34412 18.4941C7.27843 18.4364 7.22457 18.3658 7.18567 18.2864C7.14677 18.207 7.12362 18.1204 7.11757 18.0316C7.11151 17.9429 7.12268 17.8538 7.15041 17.7696C7.75802 15.8077 8.76692 14.3392 10.4598 13.666L10.4673 13.6629C10.8984 13.4979 11.3468 13.5113 11.7465 13.7239C12.1302 13.9284 12.4035 14.2817 12.5825 14.6774L12.7931 15.1461C12.9516 15.5003 13.0849 15.799 13.2132 16.0608C13.3929 16.429 13.5375 16.6734 13.6804 16.8449C13.813 17.0036 13.9446 17.1013 14.1126 17.1689C14.2933 17.2416 14.5464 17.2918 14.9373 17.3039C15.0231 17.3056 15.1078 17.3249 15.1864 17.3606C15.265 17.3963 15.3359 17.4477 15.3951 17.5118C15.4543 17.576 15.5006 17.6515 15.5312 17.7342C15.5619 17.8169 15.5764 17.905 15.5738 17.9934C15.5712 18.0819 15.5517 18.1689 15.5162 18.2495C15.4808 18.3302 15.4302 18.4027 15.3674 18.4631C15.3046 18.5234 15.2308 18.5704 15.1503 18.6011C15.0697 18.6319 14.9841 18.6459 14.8983 18.6424C14.4287 18.628 14.0119 18.5661 13.6398 18.4164C13.2554 18.2617 12.9523 18.0264 12.6943 17.7167C12.5318 17.5218 12.3889 17.2992 12.2556 17.0571L11.8937 18.776Z" fill="white"/>
<path d="M9.53575 19.0662L10.6402 20.2046L10.1318 22.0473C10.0925 22.1899 10.0128 22.3157 9.9039 22.4075L8.19343 23.8477C8.12452 23.9057 8.04566 23.9486 7.96134 23.9738C7.87703 23.999 7.78891 24.0062 7.70202 23.9948C7.61514 23.9835 7.53118 23.9539 7.45495 23.9076C7.37872 23.8614 7.31171 23.7995 7.25774 23.7255C7.20377 23.6514 7.16391 23.5667 7.14042 23.4761C7.11693 23.3855 7.11028 23.2908 7.12084 23.1974C7.13141 23.104 7.15898 23.0138 7.20199 22.9319C7.245 22.85 7.30261 22.778 7.37152 22.72L8.91473 21.4211L9.3795 19.7349L9.53575 19.0662Z" fill="white"/>
</svg>
