<svg width="24" height="24" viewBox="0 0 24 24" fill="none" xmlns="http://www.w3.org/2000/svg">
<path d="M8.29395 3.4452L8.29395 4.19558C8.29395 4.3671 8.14332 4.5061 7.95757 4.5061L2.85073 4.5061C2.66493 4.5061 2.51435 4.3671 2.51435 4.19558L2.51435 3.4452C2.51435 3.27368 2.66493 3.13467 2.85073 3.13467L7.95757 3.13467C8.14332 3.13467 8.29395 3.27368 8.29395 3.4452Z" fill="#00A1F1"/>
<path d="M8.69388 21.5918C8.59184 21.5918 8.53061 21.5714 8.44898 21.5306C8.08163 21.2857 6.34694 20 7.79592 17.449C8.18367 16.7551 8.28572 16.2041 8.14286 15.7551C7.97959 15.2449 7.44898 15.0408 7.44898 15.0408C7.20408 14.9388 7.08163 14.6531 7.18367 14.4082C7.26531 14.2041 7.42857 14.0816 7.63265 14.0816C7.69388 14.0816 7.7551 14.102 7.81633 14.1224C7.89796 14.1224 8.7551 14.4898 9.10204 15.4082C9.36735 16.1429 9.22449 17 8.67347 17.9592C7.65306 19.7551 8.73469 20.551 8.95918 20.6939C9.18367 20.8163 9.26531 21.1224 9.14286 21.3673C9.02041 21.5306 8.83674 21.5918 8.69388 21.5918ZM12 20.5102C11.898 20.5102 11.8367 20.4898 11.7551 20.449C11.0204 20.0204 9.97959 18.6939 11.1429 16.6122C11.4898 15.9796 11.5918 15.4694 11.449 15.0816C11.3061 14.6327 10.8367 14.449 10.8367 14.449C10.5714 14.3469 10.449 14.0816 10.551 13.8163C10.6327 13.6122 10.7959 13.4898 11 13.4898C11.0612 13.4898 11.1224 13.5102 11.1837 13.5306C11.3878 13.6122 12.102 13.9388 12.3878 14.7551C12.6327 15.449 12.5102 16.2449 12 17.1224C11.0204 18.8776 12.2041 19.5918 12.2653 19.6122C12.3673 19.6735 12.449 19.7755 12.4898 19.898C12.5306 20.0204 12.5102 20.1633 12.449 20.2857C12.3265 20.449 12.1429 20.5102 12 20.5102ZM5.22449 20.5102C5.12245 20.5102 5.06122 20.4898 4.97959 20.449C4.2449 20.0204 3.20408 18.6939 4.36735 16.6122C4.71429 15.9796 4.81633 15.4694 4.67347 15.0816C4.53061 14.6327 4.06122 14.449 4.06122 14.449C3.79592 14.3469 3.67347 14.0816 3.77551 13.8163C3.85714 13.6122 4.02041 13.4898 4.22449 13.4898C4.28571 13.4898 4.34694 13.5102 4.40816 13.5306C4.61224 13.6122 5.32653 13.9592 5.61225 14.7551C5.85714 15.449 5.71429 16.2449 5.22449 17.1429C4.2449 18.898 5.42857 19.6122 5.4898 19.6327C5.59184 19.6939 5.67347 19.7959 5.71429 19.9184C5.7551 20.0408 5.73469 20.1837 5.67347 20.3061C5.57143 20.449 5.36735 20.5102 5.22449 20.5102ZM17.6531 18.6939C17.4898 18.6939 17.3673 18.6327 17.2653 18.5306C17.1633 18.4286 17.102 18.2857 17.102 18.1429C17.102 17.9184 17.2449 17.7143 17.449 17.6122H17.4694V16.5102L16.4286 17.102V17.1224C16.4286 17.2857 16.3673 17.4898 16.1633 17.5918C16.0816 17.6531 15.9796 17.6735 15.8776 17.6735C15.6735 17.6735 15.4898 17.5714 15.4082 17.4082C15.3265 17.2653 15.3061 17.1224 15.3469 16.9796C15.3878 16.8367 15.4694 16.7143 15.6122 16.6531C15.6939 16.5918 15.7959 16.5714 15.8776 16.5714C15.9796 16.5714 16.0816 16.5918 16.1633 16.6531L17.102 16.1224L16.1837 15.5918C16.0612 15.6327 15.9592 15.6531 15.8776 15.6531C15.7755 15.6531 15.6939 15.6327 15.6122 15.5918C15.3673 15.4286 15.2653 15.0816 15.4082 14.8367C15.5102 14.6735 15.6939 14.5714 15.898 14.5714C16 14.5714 16.102 14.5918 16.1837 14.6531C16.3469 14.7551 16.449 14.9184 16.449 15.1224V15.1429L17.4898 15.7347V14.6327H17.4694C17.2653 14.5306 17.1224 14.3265 17.1224 14.102C17.1224 13.7959 17.3673 13.551 17.6735 13.551C17.8367 13.551 17.9796 13.6122 18.0816 13.7143C18.1837 13.8163 18.2449 13.9592 18.2449 14.102C18.2449 14.2857 18.1429 14.4694 17.9592 14.5714H17.898V15.6327L18.7959 15.1224V15.102C18.7959 14.9388 18.8571 14.7347 19.0612 14.6327C19.1429 14.5714 19.2449 14.551 19.3469 14.551C19.551 14.551 19.7347 14.6531 19.8163 14.8163C19.898 14.9592 19.9184 15.102 19.8776 15.2449C19.8367 15.3878 19.7551 15.5102 19.6122 15.5714C19.5306 15.6327 19.4286 15.6531 19.3469 15.6531C19.2449 15.6531 19.1429 15.6327 19.0612 15.5714L18.1224 16.102L19.0408 16.6327C19.1633 16.5918 19.2653 16.5714 19.3469 16.5714C19.449 16.5714 19.5306 16.5918 19.6122 16.6327C19.8571 16.7959 19.9592 17.1429 19.8163 17.3878C19.7143 17.551 19.5306 17.6531 19.3265 17.6531C19.2245 17.6531 19.1224 17.6327 19.0408 17.5714C18.8776 17.4694 18.7755 17.3061 18.7755 17.102V17.0816L17.898 16.5918V17.6531H17.9184C18.102 17.7347 18.2041 17.9184 18.2041 18.1224C18.2041 18.449 17.9592 18.6939 17.6531 18.6939ZM2.79592 12.2449C1.2449 12.2449 0 11 0 9.44898V2.79592C0 1.2449 1.2449 0 2.79592 0H21.2041C22.7551 0 24 1.2449 24 2.79592V9.44898C24 11 22.7551 12.2449 21.2041 12.2449H2.79592ZM2.5102 1.22449C1.77551 1.22449 1.18367 1.83674 1.18367 2.61225V9.71429C1.18367 10.4694 1.77551 11.102 2.5102 11.102H21.4694C22.2041 11.102 22.7959 10.4898 22.7959 9.71429V2.61225C22.7959 1.85714 22.2041 1.22449 21.4694 1.22449H2.5102ZM3.06122 9.18367C2.79592 9.18367 2.57143 8.95918 2.57143 8.69388C2.57143 8.42857 2.79592 8.20408 3.06122 8.20408H20.4694C20.7347 8.20408 20.9592 8.42857 20.9592 8.69388C20.9592 8.95918 20.7347 9.18367 20.4694 9.18367H3.06122ZM3.06122 7.12245C2.79592 7.12245 2.57143 6.89796 2.57143 6.63265C2.57143 6.36735 2.79592 6.14286 3.06122 6.14286H20.4694C20.7347 6.14286 20.9592 6.36735 20.9592 6.63265C20.9592 6.89796 20.7347 7.12245 20.4694 7.12245H3.06122Z" fill="#00A1F1"/>
</svg>
