<svg width="24" height="24" viewBox="0 0 24 24" fill="none" xmlns="http://www.w3.org/2000/svg">
<path d="M8.28319 10.7644C8.54583 9.97257 9.05498 9.29302 9.71888 8.81574C9.02616 7.21013 8.67506 5.33926 8.75156 3.5288C8.76173 3.28997 8.55098 2.8981 8.01806 3.12849C6.96234 3.58449 6.04266 4.27599 5.20795 5.04436C4.4107 5.77875 4.23047 6.94922 4.83483 7.67724C5.83603 8.88244 6.98864 9.99727 8.28319 10.7644Z" fill="#00F8EB"/>
<path d="M13.6177 8.4332C14.6624 7.02986 16.1065 5.79063 17.713 4.95208C17.9255 4.84113 18.1593 4.46289 17.6926 4.11569C16.7704 3.42972 15.7113 2.97883 14.6292 2.64053C13.594 2.31667 12.4907 2.74595 12.1625 3.63419C11.6186 5.10297 11.2301 6.65931 11.2131 8.16381C12.03 7.99506 12.8723 8.09664 13.6177 8.4332Z" fill="#00F8EB"/>
<path d="M19.3254 7.95723C17.7809 8.22113 16.2391 8.66228 14.9275 9.39967C15.4825 10.0231 15.8157 10.8039 15.8973 11.6177C17.6347 11.8204 19.4299 12.452 20.959 13.4236C21.1613 13.5519 21.6059 13.5655 21.673 12.9875C21.8065 11.8459 21.668 10.7036 21.4198 9.59687C21.1818 8.53862 20.2587 7.79743 19.3254 7.95723Z" fill="#00F8EB"/>
<path d="M15.7164 13.2357C15.4538 14.027 14.9447 14.7067 14.2808 15.1838C14.9735 16.7895 15.3245 18.6603 15.248 20.4708C15.2379 20.7097 15.4487 21.1015 15.9824 20.8711C17.0373 20.4151 17.9578 19.7236 18.7916 18.9553C19.5889 18.2209 19.7691 17.0504 19.1648 16.3224C18.1644 15.1176 17.0109 14.0024 15.7164 13.2357Z" fill="#00F8EB"/>
<path d="M10.3826 15.5668C9.33882 16.9697 7.8947 18.209 6.28815 19.0479C6.07567 19.1584 5.84195 19.5367 6.30854 19.8839C7.23081 20.5698 8.2899 21.0207 9.37192 21.3591C10.4072 21.6829 11.5105 21.2536 11.8386 20.3654C12.3826 18.8966 12.7711 17.3407 12.788 15.8358C11.9712 16.0045 11.128 15.903 10.3826 15.5668Z" fill="#00F8EB"/>
<path d="M8.10214 12.3818C6.36476 12.1791 4.56954 11.5476 3.04048 10.576C2.83817 10.4476 2.39361 10.434 2.32643 11.0121C2.19303 12.1536 2.33154 13.296 2.58059 14.4027C2.81773 15.4609 3.74084 16.2021 4.67417 16.0423C6.21861 15.7784 7.76051 15.3372 9.07198 14.5999C8.51693 13.9764 8.18375 13.1957 8.10214 12.3818Z" fill="#00F8EB"/>
<path d="M11.9994 9.16418C10.4337 9.16418 9.16467 10.4341 9.16467 11.9997C9.16467 13.5659 10.4337 14.8354 11.9994 14.8354C13.566 14.8354 14.8358 13.5659 14.8358 11.9997C14.8359 10.4341 13.566 9.16418 11.9994 9.16418Z" fill="#00F8EB"/>
<path d="M21.7037 0H2.29669C1.02764 0 0 1.02806 0 2.29627V21.7033C0 22.9715 1.02764 24 2.29669 24H21.7037C22.9719 24 23.9995 22.9715 23.9995 21.7033V2.29627C23.9995 1.02806 22.9719 0 21.7037 0ZM21.7037 1.48622C22.1508 1.48622 22.5137 1.84917 22.5137 2.29631C22.5137 2.74383 22.1508 3.10631 21.7037 3.10631C21.2558 3.10631 20.8928 2.74378 20.8928 2.29631C20.8928 1.84912 21.2558 1.48622 21.7037 1.48622ZM2.29669 1.48622C2.74378 1.48622 3.10673 1.84917 3.10673 2.29631C3.10673 2.74425 2.74378 3.10631 2.29669 3.10631C1.84875 3.10631 1.4858 2.74425 1.4858 2.29631C1.4858 1.84912 1.84875 1.48622 2.29669 1.48622ZM2.29584 22.5133C1.84875 22.5133 1.4858 22.1508 1.4858 21.7033C1.4858 21.2558 1.84875 20.8932 2.29584 20.8932C2.74378 20.8932 3.10673 21.2558 3.10673 21.7033C3.10673 22.1508 2.74378 22.5133 2.29584 22.5133ZM21.7037 22.5133C21.2558 22.5133 20.8928 22.1508 20.8928 21.7033C20.8928 21.2562 21.2558 20.8932 21.7037 20.8932C22.1508 20.8932 22.5137 21.2562 22.5137 21.7033C22.5137 22.1508 22.1508 22.5133 21.7037 22.5133ZM11.9993 22.9371C5.95927 22.9371 1.06247 18.0402 1.06247 11.9997C1.06247 5.95969 5.95931 1.06289 11.9993 1.06289C18.0403 1.06289 22.9371 5.95969 22.9371 11.9997C22.9371 18.0402 18.0403 22.9371 11.9993 22.9371Z" fill="#00F8EB"/>
</svg>
