<svg width="24" height="21" viewBox="0 0 24 21" fill="none" xmlns="http://www.w3.org/2000/svg">
<path d="M12 0C12.5403 6.18958e-05 13.0166 0.274058 13.2979 0.69043C15.7433 1.0121 18.1005 2.13492 19.9395 4.05469C21.7037 5.89669 22.7151 8.18362 22.9854 10.5361C23.5779 10.759 23.9999 11.3295 24 12C24 12.6891 23.5542 13.2725 22.9355 13.4814C22.5828 15.8611 21.4693 18.1466 19.5977 19.9395C19.2787 20.2449 18.7714 20.2348 18.4658 19.916C18.1603 19.597 18.1722 19.0898 18.4912 18.7842C20.1233 17.2207 21.083 15.2205 21.3682 13.1426C21.0624 12.8569 20.8701 12.4515 20.8701 12C20.8702 11.5296 21.0778 11.1082 21.4062 10.8213C21.1923 8.76806 20.3225 6.76727 18.7842 5.16113C17.2786 3.58939 15.3679 2.63938 13.373 2.31641C13.1072 2.80134 12.5921 3.13079 12 3.13086C11.3889 3.13079 10.8612 2.77926 10.6035 2.26855C8.62707 2.51978 6.71044 3.38433 5.16113 4.86816C3.50447 6.45518 2.53939 8.49203 2.27051 10.6035C2.78033 10.8615 3.13081 11.3895 3.13086 12C3.13086 12.5916 2.80167 13.1059 2.31738 13.3721C2.59358 15.0809 3.32967 16.7317 4.53418 18.124L4.86719 18.4912L4.92188 18.5527C5.17113 18.8723 5.14264 19.3356 4.84375 19.6221C4.54461 19.9084 4.08005 19.9172 3.77148 19.6543L3.71191 19.5977L3.32324 19.1699C1.84092 17.4564 0.965313 15.407 0.688477 13.2969C0.273051 13.0154 0 12.5396 0 12C4.0117e-05 11.48 0.254232 11.02 0.644531 10.7354C0.895202 8.15446 2.03535 5.64728 4.05469 3.71289C5.94809 1.89948 8.31187 0.881539 10.7334 0.646484C11.0179 0.254983 11.479 5.88205e-05 12 0ZM11.8262 11.6113C14.4853 11.6114 17.2138 13.3332 17.3906 16.792C17.3974 16.9253 17.3505 17.0561 17.2607 17.1553C17.171 17.2542 17.0458 17.3143 16.9121 17.3213C15.509 17.3925 9.01068 17.4362 6.74121 17.3213C6.60723 17.3145 6.48155 17.2544 6.3916 17.1553C6.30165 17.0561 6.25493 16.9254 6.26172 16.792C6.43857 13.3338 9.16702 11.6113 11.8262 11.6113ZM11.8262 5.56543C12.497 5.56545 13.1409 5.83034 13.6152 6.30273C14.0896 6.77517 14.3555 7.41683 14.3555 8.08496C14.3554 8.75292 14.0895 9.39387 13.6152 9.86621C13.1408 10.3386 12.4971 10.6035 11.8262 10.6035C11.1553 10.6035 10.5115 10.3386 10.0371 9.86621C9.5628 9.39387 9.29601 8.75294 9.2959 8.08496C9.2959 7.41683 9.5627 6.77517 10.0371 6.30273C10.5115 5.83038 11.1553 5.56543 11.8262 5.56543Z" fill="#40E0D0"/>
</svg>
