<svg width="24" height="24" viewBox="0 0 24 24" fill="none" xmlns="http://www.w3.org/2000/svg">
<g clip-path="url(#clip0_214_2405)">
<path fill-rule="evenodd" clip-rule="evenodd" d="M18.2336 23.234H21.3505C22.8138 23.234 24 22.1237 24 20.7538V17.8358C24 17.6747 23.8602 17.544 23.6883 17.544C23.5162 17.544 23.3766 17.6747 23.3766 17.8358V20.7538C23.3766 21.8011 22.4695 22.6504 21.3505 22.6504H18.2336C18.0617 22.6504 17.9219 22.7812 17.9219 22.9422C17.9219 23.1033 18.0617 23.234 18.2336 23.234ZM5.76617 22.6504H2.64926C1.5305 22.6504 0.623383 21.8011 0.623383 20.7538V17.8358C0.623383 17.6747 0.483595 17.544 0.311691 17.544C0.139556 17.544 0 17.6747 0 17.8358V20.7538C0 22.1237 1.186 23.234 2.64926 23.234H5.76617C5.93831 23.234 6.07787 23.1033 6.07787 22.9422C6.07787 22.7812 5.93831 22.6504 5.76617 22.6504ZM5.76617 0.765869H2.64926C1.186 0.765869 0 1.87638 0 3.24624V6.16399C0 6.32514 0.139556 6.45579 0.311691 6.45579C0.483595 6.45579 0.623383 6.32514 0.623383 6.16399V3.24624C0.623383 2.19868 1.5305 1.34946 2.64926 1.34946H5.76617C5.93831 1.34946 6.07787 1.21881 6.07787 1.05767C6.07787 0.896734 5.93831 0.765869 5.76617 0.765869ZM18.2336 1.34946H21.3505C22.4695 1.34946 23.3766 2.19868 23.3766 3.24624V6.16399C23.3766 6.32514 23.5162 6.45579 23.6883 6.45579C23.8602 6.45579 24 6.32514 24 6.16399V3.24624C24 1.87638 22.8138 0.765869 21.3505 0.765869H18.2336C18.0617 0.765869 17.9219 0.896734 17.9219 1.05767C17.9219 1.21881 18.0617 1.34946 18.2336 1.34946Z" fill="white" stroke="white"/>
</g>
<defs>
<clipPath id="clip0_214_2405">
<rect width="24" height="24" fill="white"/>
</clipPath>
</defs>
</svg>
