<svg width="31" height="28" viewBox="0 0 31 28" fill="none" xmlns="http://www.w3.org/2000/svg">
<path d="M11.45 8.66667L19.55 19.3333M27.3665 10.2027C28.4573 12.056 29 12.9827 29 14C29 15.0173 28.456 15.944 27.3665 17.7973L24.7705 22.2187C23.6864 24.064 23.1437 24.9867 22.2527 25.4933C21.3617 26 20.279 26 18.115 26H12.885C10.721 26 9.6383 26 8.7473 25.4933C7.8563 24.9867 7.3136 24.064 6.22955 22.2187L3.6335 17.7973C2.54405 15.944 2 15.0173 2 14C2 12.9827 2.54405 12.056 3.6335 10.2027L6.22955 5.78133C7.3136 3.936 7.8563 3.01333 8.7473 2.50667C9.6383 2 10.721 2 12.885 2H18.115C20.279 2 21.3617 2 22.2527 2.50667C23.1437 3.01333 23.6864 3.936 24.7705 5.78133L27.3665 10.2027Z" stroke="#B3B3B3" stroke-width="3" stroke-linecap="round" stroke-linejoin="round"/>
</svg>
