<svg width="18" height="18" viewBox="0 0 18 18" fill="none" xmlns="http://www.w3.org/2000/svg">
<path d="M5.72461 10.5614C5.77049 10.5614 5.81643 10.5764 5.8623 10.5917C5.92387 10.5919 6.56593 10.8674 6.82617 11.5555C7.02515 12.1066 6.91815 12.7502 6.50488 13.4696C5.73992 14.8163 6.55137 15.4133 6.71973 15.5204C6.8878 15.6123 6.94905 15.8417 6.85742 16.0253C6.76561 16.1477 6.62764 16.1942 6.52051 16.1942C6.44412 16.1942 6.39797 16.1788 6.33691 16.1483C6.06142 15.9647 4.7602 14.9999 5.84668 13.0868C6.13745 12.5665 6.21449 12.153 6.10742 11.8163C5.9857 11.4359 5.59157 11.282 5.58691 11.2802C5.40324 11.2036 5.31116 10.9892 5.3877 10.8055C5.44897 10.6527 5.57167 10.5614 5.72461 10.5614ZM3.16797 10.1171C3.2138 10.1171 3.25984 10.133 3.30566 10.1483C3.45873 10.2095 3.9947 10.4693 4.20898 11.0663C4.39265 11.5867 4.28531 12.1838 3.91797 12.8573C3.18422 14.1723 4.07002 14.7084 4.11719 14.7245C4.19368 14.7704 4.2555 14.8466 4.28613 14.9384C4.31675 15.0302 4.3008 15.1375 4.25488 15.2294C4.17834 15.3365 4.0251 15.3827 3.91797 15.3827C3.84168 15.3826 3.79549 15.3674 3.73438 15.3368C3.18336 15.0153 2.40303 14.0199 3.27539 12.4589C3.53549 11.9845 3.61191 11.6022 3.50488 11.3114C3.39843 10.9768 3.05037 10.8386 3.0459 10.8368C2.84692 10.7603 2.7555 10.5612 2.83203 10.3622C2.89321 10.2093 3.01512 10.1172 3.16797 10.1171ZM8.25 10.1171C8.29592 10.1171 8.34178 10.133 8.3877 10.1483C8.54091 10.2096 9.07678 10.4542 9.29102 11.0663C9.47462 11.5867 9.38261 12.1836 9 12.8417C8.26531 14.158 9.1533 14.6936 9.19922 14.7089C9.27571 14.7548 9.33659 14.8319 9.36719 14.9237C9.39763 15.0153 9.38263 15.1221 9.33691 15.2137C9.24508 15.3362 9.10714 15.3827 9 15.3827C8.92353 15.3827 8.87756 15.3674 8.81641 15.3368C8.26539 15.0154 7.48497 14.0201 8.35742 12.4589C8.61741 11.9847 8.69386 11.6021 8.58691 11.3114C8.48184 10.9812 8.14102 10.842 8.12793 10.8368C7.92899 10.7603 7.83663 10.5611 7.91309 10.3622C7.97431 10.2091 8.09694 10.1171 8.25 10.1171ZM13.2549 10.163C13.3773 10.163 13.485 10.2095 13.5615 10.286C13.6378 10.3624 13.6835 10.4692 13.6836 10.576C13.6836 10.7137 13.6074 10.852 13.4697 10.9286H13.4238V11.7245L14.0967 11.3417V11.326C14.0968 11.2037 14.143 11.051 14.2959 10.9745C14.357 10.9287 14.4334 10.913 14.5098 10.913C14.6628 10.913 14.8011 10.9897 14.8623 11.1122C14.9235 11.2193 14.9388 11.3264 14.9082 11.4335C14.8776 11.5406 14.8161 11.6327 14.709 11.6786C14.6478 11.7244 14.5709 11.7401 14.5098 11.7401C14.4334 11.7401 14.357 11.7244 14.2959 11.6786L13.5918 12.076L14.2803 12.4745C14.3719 12.4439 14.4486 12.4287 14.5098 12.4286C14.5862 12.4286 14.6478 12.4439 14.709 12.4745C14.8927 12.5969 14.9694 12.8572 14.8623 13.0409C14.7858 13.1632 14.648 13.24 14.4951 13.2401C14.4186 13.2401 14.3415 13.2245 14.2803 13.1786C14.1579 13.1021 14.082 12.979 14.082 12.826V12.8114L13.4238 12.4442V13.2401H13.4385C13.5762 13.3013 13.6533 13.4386 13.6533 13.5917C13.6533 13.8364 13.4696 14.0202 13.2402 14.0204C13.118 14.0204 13.0257 13.9746 12.9492 13.8983C12.8728 13.8219 12.8263 13.7144 12.8262 13.6073C12.8262 13.4389 12.9339 13.2854 13.0869 13.2089H13.1016V12.3827L12.3213 12.826V12.8417C12.3213 12.9641 12.2751 13.1177 12.1221 13.1942C12.0609 13.2399 11.9845 13.2548 11.9082 13.2548C11.7551 13.2548 11.6169 13.178 11.5557 13.0555C11.4947 12.9486 11.4792 12.8412 11.5098 12.7343C11.5404 12.6273 11.6021 12.5361 11.709 12.4901C11.7702 12.4442 11.847 12.4286 11.9082 12.4286C11.9847 12.4286 12.0609 12.4442 12.1221 12.4901L12.8262 12.0917L12.1377 11.6942C12.046 11.7248 11.9694 11.7401 11.9082 11.7401C11.8317 11.7401 11.7702 11.7248 11.709 11.6942C11.5255 11.5719 11.4489 11.3115 11.5557 11.1278C11.6322 11.0054 11.7708 10.9286 11.9238 10.9286C12.0002 10.9286 12.0766 10.9443 12.1377 10.9901C12.26 11.0666 12.3369 11.1887 12.3369 11.3417V11.3573L13.1172 11.8007V10.9745H13.1016C12.9487 10.8979 12.8418 10.7443 12.8418 10.576C12.842 10.3467 13.0255 10.1631 13.2549 10.163ZM15.9033 -0.00012207C17.0664 1.69573e-05 17.9999 0.933499 18 2.09656V7.08679C17.9999 8.24989 17.0664 9.18333 15.9033 9.18347H2.09668C0.933594 9.18333 9.53084e-05 8.24989 0 7.08679V2.09656C0.000138795 0.933499 0.933621 1.65376e-05 2.09668 -0.00012207H15.9033ZM1.88281 0.917847C1.33186 0.917847 0.887797 1.37732 0.887695 1.95886V7.28601C0.887914 7.85215 1.33193 8.32605 1.88281 8.32605H16.1016C16.6525 8.32605 17.0965 7.86745 17.0967 7.28601V1.95886C17.0966 1.39262 16.6525 0.917847 16.1016 0.917847H1.88281ZM15.3516 6.1532C15.5505 6.1532 15.7197 6.32141 15.7197 6.52039C15.7197 6.71932 15.5505 6.88757 15.3516 6.88757H2.2959C2.09696 6.88756 1.92877 6.71932 1.92871 6.52039C1.92871 6.32141 2.09693 6.15321 2.2959 6.1532H15.3516ZM15.3516 4.6073C15.5505 4.6073 15.7197 4.77551 15.7197 4.97449C15.7197 5.17342 15.5505 5.34167 15.3516 5.34167H2.2959C2.09697 5.34166 1.92878 5.17341 1.92871 4.97449C1.92871 4.77551 2.09693 4.60731 2.2959 4.6073H15.3516ZM5.96777 2.35046C6.10709 2.35046 6.2207 2.45522 6.2207 2.58386V3.14636C6.2207 3.275 6.10709 3.37976 5.96777 3.37976H2.1377C1.99847 3.37962 1.88574 3.27491 1.88574 3.14636V2.58386C1.88574 2.45531 1.99847 2.35061 2.1377 2.35046H5.96777Z" fill="#00A1F1"/>
</svg>
