<svg width="18" height="18" viewBox="0 0 18 18" fill="none" xmlns="http://www.w3.org/2000/svg">
<g clip-path="url(#clip0_691_2133)">
<path d="M10.8672 16.9237C10.5159 17.5647 9.8353 17.9997 9.05176 17.9999C8.26841 17.9999 7.5862 17.5649 7.23535 16.9237H10.8672ZM10.8496 14.6639C11.1459 14.6642 11.3887 14.9061 11.3887 15.202C11.3887 15.4979 11.1459 15.7399 10.8496 15.7401H7.25391C6.95738 15.7401 6.71486 15.4981 6.71484 15.202C6.71484 14.906 6.95737 14.6639 7.25391 14.6639H10.8496ZM9.14258 -0.00012207C12.1205 0.00010973 14.5351 2.41048 14.5352 5.38367C14.5352 9.27595 11.8389 9.69072 11.8389 12.7411C11.8389 13.0998 11.4793 13.4586 11.1201 13.4589H7.16504C6.80525 13.4588 6.44631 13.0999 6.44629 12.7411C6.44629 9.69072 3.75 9.27595 3.75 5.38367C3.75008 2.41034 6.16451 -0.00012207 9.14258 -0.00012207Z" fill="#FFBB00"/>
</g>
<defs>
<clipPath id="clip0_691_2133">
<rect width="18" height="18" fill="white"/>
</clipPath>
</defs>
</svg>
