<svg width="18" height="18" viewBox="0 0 18 18" fill="none" xmlns="http://www.w3.org/2000/svg">
<g clip-path="url(#clip0_691_2136)">
<path d="M8.98746 0.00859622C9.00706 0.00621437 10.6788 -0.192046 10.6056 1.45586L10.0773 8.93047H9.46695V9.35137C10.1338 9.58028 10.6222 10.2859 10.6222 11.1199C10.6222 11.2567 10.6057 11.4044 10.5812 11.532L11.0529 11.8523L11.3713 11.2654L17.3214 14.6092L17.3459 14.5916C18.6345 15.3631 17.6257 16.8719 17.6066 16.9002C17.6066 16.9002 16.8914 18.6502 15.6711 17.7254L10.2541 13.3641L10.5724 12.7772L10.1086 12.4656C9.81542 12.7682 9.42524 12.951 8.9943 12.951C8.56335 12.951 8.17317 12.7682 7.88004 12.4656L7.41617 12.7772L7.73453 13.3641L2.32535 17.7254C1.11548 18.6519 0.401514 16.936 0.390782 16.91C0.390782 16.91 -0.642079 15.3792 0.650547 14.6004L6.60367 11.2566L6.92105 11.8436L7.3566 11.5457C7.35381 11.4902 7.3527 11.3646 7.3527 11.1111C7.3527 10.2772 7.83211 9.58079 8.50699 9.34258V8.92168H7.89762L7.36832 1.4461C7.29617 -0.201931 8.98746 0.00859622 8.98746 0.00859622ZM8.97867 9.91973C8.39376 9.91999 7.91422 10.461 7.91422 11.1199C7.91425 11.7788 8.39378 12.3199 8.97867 12.3201C9.56376 12.3201 10.0441 11.779 10.0441 11.1199C10.0441 10.4608 9.56378 9.91973 8.97867 9.91973ZM8.97867 10.2137C9.02653 10.2137 9.0851 10.2138 9.13297 10.2322C9.18085 10.2506 9.23938 10.2597 9.28727 10.2781C9.33632 10.2965 9.38525 10.3243 9.42496 10.3611C9.46466 10.398 9.50733 10.4347 9.54703 10.4715C9.58779 10.5174 9.62021 10.5544 9.64469 10.6082C9.67737 10.6542 9.70158 10.7096 9.71793 10.7635C9.73426 10.8173 9.75141 10.8737 9.76773 10.9275C9.7759 10.9827 9.78334 11.0475 9.78336 11.1014C9.78336 11.1566 9.78404 11.2213 9.76773 11.2752C9.75138 11.3291 9.74307 11.3951 9.72672 11.449C9.71037 11.503 9.68519 11.5596 9.6525 11.6043C9.61987 11.6489 9.58748 11.6964 9.55484 11.741C9.53857 11.7633 9.52034 11.784 9.50016 11.8025L9.36734 11.9002C9.34397 11.914 9.31904 11.9252 9.29508 11.9344C9.24614 11.9619 9.19735 11.9809 9.14957 11.99C9.10169 11.9992 9.04315 12.0076 8.99527 12.0076C8.9474 12.0076 8.88884 12.0085 8.84098 11.99C8.7931 11.9716 8.73455 11.9616 8.68668 11.9432C8.63782 11.9248 8.58856 11.8978 8.54898 11.8611C8.50928 11.8243 8.4676 11.7866 8.42789 11.7498C8.38823 11.713 8.35376 11.667 8.32926 11.6131C8.29668 11.5671 8.27232 11.5116 8.25602 11.4578C8.2316 11.4027 8.22348 11.3476 8.20719 11.2938C8.19084 11.2398 8.19059 11.1739 8.19059 11.1199C8.19059 11.066 8.19085 11 8.20719 10.9461C8.21538 10.8909 8.23188 10.8261 8.2482 10.7723C8.26455 10.7172 8.28884 10.6616 8.32145 10.617C8.35408 10.5723 8.38647 10.5249 8.4191 10.4803C8.4518 10.4355 8.49329 10.3976 8.54117 10.3699C8.58898 10.3423 8.63105 10.3053 8.67887 10.2869C8.7277 10.2594 8.77669 10.2505 8.82438 10.2322C8.87215 10.2139 8.93085 10.2137 8.97867 10.2137ZM7.39273 11.5223C7.38536 11.4841 7.3779 11.5068 7.37223 11.535L7.39273 11.5223Z" fill="#00F8EB"/>
</g>
<defs>
<clipPath id="clip0_691_2136">
<rect width="18" height="18" fill="white"/>
</clipPath>
</defs>
</svg>
