<svg width="24" height="20" viewBox="0 0 24 20" fill="none" xmlns="http://www.w3.org/2000/svg">
<path d="M21.9469 19.3834H5.21589H1.89927C-0.633089 15.4344 -0.633089 10.4001 1.89927 6.48105C5.45642 0.934149 12.813 -0.663184 18.3599 2.89397C23.9068 6.45113 25.5041 13.8065 21.9469 19.3534" fill="#666666"/>
<path d="M21.9469 19.3834H5.21589H1.89927C-0.633089 15.4344 -0.633089 10.4001 1.89927 6.48105C5.45642 0.934149 12.813 -0.663184 18.3599 2.89397C23.9068 6.45113 25.5041 13.8065 21.9469 19.3534" stroke="#010101" stroke-width="0.283" stroke-linecap="round" stroke-linejoin="round"/>
<path d="M17.0028 17.8215C17.3179 17.8217 17.5702 18.0747 17.5702 18.3899V19.384C17.5699 19.3976 17.5593 19.4093 17.5458 19.4094H16.4598C16.4462 19.4094 16.4347 19.3976 16.4344 19.384V18.3899C16.4344 18.0746 16.6875 17.8215 17.0028 17.8215ZM19.5956 17.8215C19.9107 17.8217 20.163 18.0747 20.163 18.3899V19.384C20.1628 19.3907 20.1595 19.3972 20.1552 19.4016L20.1376 19.4094H19.0526C19.039 19.4094 19.0275 19.3976 19.0272 19.384V18.3899C19.0272 18.0746 19.2803 17.8215 19.5956 17.8215ZM4.07117 18.0315C4.26532 18.0316 4.42727 18.1938 4.42761 18.3879V19.3831C4.42761 19.3968 4.41592 19.4083 4.40222 19.4084H3.74011V19.4075C3.7366 19.4076 3.73276 19.4079 3.72937 19.4065C3.72028 19.4026 3.71385 19.3939 3.71375 19.384V18.3889C3.71388 18.1939 3.87679 18.0315 4.07117 18.0315ZM5.37976 18.0315C5.57403 18.0315 5.73586 18.1937 5.73621 18.3879V19.3831C5.73621 19.3969 5.72462 19.4084 5.71082 19.4084H5.04871V19.4075C5.04526 19.4076 5.04127 19.4079 5.03796 19.4065C5.02908 19.4025 5.02244 19.3938 5.02234 19.384V18.3889C5.02247 18.1941 5.18554 18.0317 5.37976 18.0315Z" fill="black"/>
<path d="M9.17752 15C8.86552 15 8.62552 14.916 8.45752 14.748C8.28952 14.58 8.20552 14.34 8.20552 14.028V7.512C8.20552 7.2 8.28952 6.96 8.45752 6.792C8.62552 6.624 8.86552 6.54 9.17752 6.54H11.5175C12.9655 6.54 14.0815 6.908 14.8655 7.644C15.6575 8.372 16.0535 9.412 16.0535 10.764C16.0535 11.444 15.9495 12.048 15.7415 12.576C15.5415 13.096 15.2495 13.536 14.8655 13.896C14.4815 14.256 14.0095 14.532 13.4495 14.724C12.8895 14.908 12.2455 15 11.5175 15H9.17752ZM10.0655 13.476H11.4095C11.8655 13.476 12.2615 13.42 12.5975 13.308C12.9335 13.196 13.2135 13.028 13.4375 12.804C13.6615 12.58 13.8295 12.3 13.9415 11.964C14.0535 11.62 14.1095 11.22 14.1095 10.764C14.1095 9.852 13.8815 9.176 13.4255 8.736C12.9775 8.288 12.3055 8.064 11.4095 8.064H10.0655V13.476Z" fill="white"/>
</svg>
