<svg width="24" height="20" viewBox="0 0 24 20" fill="none" xmlns="http://www.w3.org/2000/svg">
<path d="M21.9469 19.3834H5.21589H1.89927C-0.633089 15.4344 -0.633089 10.4001 1.89927 6.48105C5.45642 0.934149 12.813 -0.663184 18.3599 2.89397C23.9068 6.45113 25.5041 13.8065 21.9469 19.3534" fill="#B3B3B3"/>
<path d="M21.9469 19.3834H5.21589H1.89927C-0.633089 15.4344 -0.633089 10.4001 1.89927 6.48105C5.45642 0.934149 12.813 -0.663184 18.3599 2.89397C23.9068 6.45113 25.5041 13.8065 21.9469 19.3534" stroke="#010101" stroke-width="0.283" stroke-linecap="round" stroke-linejoin="round"/>
<path d="M17.0028 17.8206C17.3179 17.8207 17.5702 18.0747 17.5702 18.3899V19.384C17.5699 19.3976 17.5593 19.4093 17.5458 19.4094H16.4598C16.4462 19.4094 16.4347 19.3976 16.4344 19.384V18.3899C16.4344 18.0746 16.6875 17.8206 17.0028 17.8206ZM19.5956 17.8206C19.9107 17.8207 20.163 18.0747 20.163 18.3899V19.384C20.1628 19.3907 20.1595 19.3972 20.1552 19.4016L20.1376 19.4094H19.0526C19.039 19.4094 19.0275 19.3976 19.0272 19.384V18.3899C19.0272 18.0746 19.2803 17.8206 19.5956 17.8206ZM4.07117 18.0315C4.26532 18.0316 4.42727 18.1938 4.42761 18.3879V19.3831C4.42761 19.3968 4.41592 19.4083 4.40222 19.4084H3.74011V19.4075C3.7366 19.4076 3.73276 19.4079 3.72937 19.4065C3.72028 19.4026 3.71385 19.3939 3.71375 19.384V18.3889C3.71388 18.1939 3.87679 18.0315 4.07117 18.0315ZM5.37976 18.0315C5.57403 18.0315 5.73586 18.1937 5.73621 18.3879V19.3831C5.73621 19.3969 5.72462 19.4084 5.71082 19.4084H5.04871V19.4075C5.04526 19.4076 5.04127 19.4079 5.03796 19.4065C5.02908 19.4025 5.02244 19.3938 5.02234 19.384V18.3889C5.02247 18.1941 5.18554 18.0317 5.37976 18.0315Z" fill="black"/>
<path d="M6.68869 15C6.43269 15 6.23669 14.932 6.10069 14.796C5.96469 14.66 5.89669 14.472 5.89669 14.232C5.89669 13.984 5.96469 13.796 6.10069 13.668C6.23669 13.54 6.43269 13.476 6.68869 13.476H7.90069V8.064H8.77669L7.02469 9.132C6.84069 9.244 6.66869 9.288 6.50869 9.264C6.35669 9.24 6.22469 9.172 6.11269 9.06C6.00069 8.948 5.92469 8.816 5.88469 8.664C5.85269 8.504 5.86869 8.348 5.93269 8.196C5.99669 8.036 6.11669 7.9 6.29269 7.788L7.96069 6.78C8.12869 6.676 8.29669 6.592 8.46469 6.528C8.64069 6.464 8.81269 6.432 8.98069 6.432C9.22069 6.432 9.40869 6.496 9.54469 6.624C9.68869 6.744 9.76069 6.932 9.76069 7.188V13.476H10.8527C11.1007 13.476 11.2927 13.54 11.4287 13.668C11.5647 13.796 11.6327 13.984 11.6327 14.232C11.6327 14.48 11.5647 14.672 11.4287 14.808C11.2927 14.936 11.1007 15 10.8527 15H6.68869ZM13.656 15C13.36 15 13.14 14.932 12.996 14.796C12.86 14.652 12.792 14.444 12.792 14.172C12.792 13.996 12.836 13.832 12.924 13.68C13.012 13.528 13.132 13.372 13.284 13.212L15.54 10.836C15.876 10.476 16.116 10.156 16.26 9.876C16.412 9.596 16.488 9.316 16.488 9.036C16.488 8.684 16.372 8.416 16.14 8.232C15.916 8.048 15.588 7.956 15.156 7.956C14.924 7.956 14.684 7.992 14.436 8.064C14.196 8.128 13.944 8.236 13.68 8.388C13.504 8.484 13.34 8.52 13.188 8.496C13.044 8.464 12.92 8.396 12.816 8.292C12.712 8.18 12.644 8.048 12.612 7.896C12.58 7.744 12.596 7.592 12.66 7.44C12.724 7.288 12.844 7.16 13.02 7.056C13.372 6.84 13.756 6.68 14.172 6.576C14.588 6.464 15 6.408 15.408 6.408C16.04 6.408 16.572 6.504 17.004 6.696C17.436 6.88 17.764 7.152 17.988 7.512C18.212 7.872 18.324 8.312 18.324 8.832C18.324 9.168 18.272 9.496 18.168 9.816C18.064 10.136 17.9 10.46 17.676 10.788C17.46 11.108 17.172 11.452 16.812 11.82L14.712 13.956V13.476H17.964C18.22 13.476 18.412 13.54 18.54 13.668C18.676 13.796 18.744 13.984 18.744 14.232C18.744 14.48 18.676 14.672 18.54 14.808C18.412 14.936 18.22 15 17.964 15H13.656Z" fill="black"/>
</svg>
