<svg width="24" height="15" viewBox="0 0 24 15" fill="none" xmlns="http://www.w3.org/2000/svg">
<mask id="mask0_598_2743" style="mask-type:luminance" maskUnits="userSpaceOnUse" x="0" y="0" width="24" height="15">
<path d="M24 0H0V14.9444H24V0Z" fill="white"/>
</mask>
<g mask="url(#mask0_598_2743)">
<path d="M1.18316 7.53447C1.86053 6.80733 2.75058 6.3325 3.71759 6.1777C3.6794 5.91555 3.66001 5.65166 3.66001 5.38806C3.66001 4.66063 3.80266 3.95577 4.0842 3.29084C4.35648 2.64992 4.74566 2.07295 5.24016 1.57903C5.73495 1.08511 6.31308 0.696796 6.95515 0.425094C7.6195 0.145291 8.32552 0.00292969 9.05411 0.00292969C10.0674 0.00292969 11.057 0.285916 11.912 0.821506C12.6565 1.28649 13.2746 1.92423 13.7147 2.67886C14.219 2.46445 14.7555 2.35594 15.3111 2.35594C16.4045 2.35594 17.4323 2.781 18.204 3.55299C18.9005 4.2483 19.3154 5.15137 19.3906 6.12156H19.581C20.7564 6.12156 21.8643 6.58192 22.7017 7.41641C23.5388 8.25062 24 9.35681 24 10.5316C24 11.7063 23.5388 12.8108 22.7031 13.6467C21.8657 14.4827 20.7578 14.9416 19.5828 14.9416H4.41725C3.24219 14.9416 2.13426 14.4812 1.29688 13.6467C0.45949 12.8108 0 11.7049 0 10.5316C0 9.41902 0.419559 8.35449 1.18316 7.53447Z" fill="#7CBB00"/>
</g>
<path d="M12.5248 12.0496C12.5202 12.0521 12.5161 12.0544 12.5111 12.0572C12.3233 12.1567 12.1081 12.1776 11.9046 12.1144C11.7012 12.0524 11.5342 11.914 11.4344 11.7258C11.3347 11.5375 11.3135 11.3218 11.3767 11.1183C11.4389 10.9142 11.5774 10.7484 11.7642 10.6482C11.952 10.5487 12.1675 10.5282 12.3703 10.5912C12.7909 10.7208 13.0275 11.1674 12.8991 11.588C12.838 11.7855 12.7056 11.9492 12.5248 12.0496Z" fill="black"/>
<path d="M11.8328 11.378L11.8882 11.2155C11.9499 11.0345 11.8398 10.8399 11.6531 10.7993L9.09323 10.2459C8.97897 10.221 8.92412 10.381 9.03024 10.4316L11.3926 11.5632C11.5663 11.6462 11.7718 11.5593 11.8328 11.378Z" fill="black"/>
<path d="M16.8067 11.8311C16.8067 9.07986 14.5764 6.84957 11.8252 6.84957C9.07404 6.84957 6.84375 9.07986 6.84375 11.8311" stroke="black" stroke-width="1.125" stroke-linecap="round"/>
</svg>
