<svg width="24" height="15" viewBox="0 0 24 15" fill="none" xmlns="http://www.w3.org/2000/svg">
<mask id="mask0_598_2695" style="mask-type:luminance" maskUnits="userSpaceOnUse" x="0" y="0" width="24" height="15">
<path d="M24 0H0V14.9444H24V0Z" fill="white"/>
</mask>
<g mask="url(#mask0_598_2695)">
<path d="M1.18316 7.53447C1.86053 6.80733 2.75058 6.3325 3.71759 6.1777C3.6794 5.91555 3.66001 5.65166 3.66001 5.38806C3.66001 4.66063 3.80266 3.95577 4.0842 3.29084C4.35648 2.64992 4.74566 2.07295 5.24016 1.57903C5.73495 1.08511 6.31308 0.696796 6.95515 0.425094C7.6195 0.145291 8.32552 0.00292969 9.05411 0.00292969C10.0674 0.00292969 11.057 0.285916 11.912 0.821506C12.6565 1.28649 13.2746 1.92423 13.7147 2.67886C14.219 2.46445 14.7555 2.35594 15.3111 2.35594C16.4045 2.35594 17.4323 2.781 18.204 3.55299C18.9005 4.2483 19.3154 5.15137 19.3906 6.12157H19.581C20.7564 6.12157 21.8643 6.58192 22.7017 7.41641C23.5388 8.25062 24 9.35681 24 10.5316C24 11.7063 23.5388 12.8108 22.7031 13.6467C21.8657 14.4827 20.7578 14.9416 19.5828 14.9416H4.41724C3.24219 14.9416 2.13426 14.4812 1.29688 13.6467C0.45949 12.8108 0 11.7049 0 10.5316C0 9.41902 0.419559 8.35449 1.18316 7.53447Z" fill="#FF6200"/>
<path d="M11.8386 12.6761C11.8347 12.6726 11.8312 12.6695 11.8269 12.6656C11.6717 12.5205 11.5818 12.3238 11.5753 12.1108C11.5677 11.8983 11.6441 11.6953 11.7897 11.5397C11.9352 11.3841 12.1322 11.2938 12.3452 11.2873C12.5585 11.2797 12.7603 11.3566 12.9158 11.5006C13.0711 11.6458 13.1606 11.8429 13.1671 12.0551C13.1816 12.495 12.8363 12.8641 12.3969 12.8797C12.1902 12.8863 11.9923 12.8143 11.8386 12.6761Z" fill="black"/>
<path d="M12.2534 11.806L12.4251 11.8054C12.6163 11.8048 12.7645 11.6374 12.7421 11.4476L12.4317 8.84709C12.4181 8.73094 12.249 8.73118 12.2356 8.848L11.9349 11.4501C11.913 11.6414 12.0621 11.8073 12.2534 11.806Z" fill="black"/>
<path d="M17.4317 11.8311C17.4317 9.07986 15.2014 6.84957 12.4502 6.84957C9.69904 6.84957 7.46875 9.07986 7.46875 11.8311" stroke="black" stroke-width="1.125" stroke-linecap="round"/>
</g>
</svg>
