<svg width="24" height="15" viewBox="0 0 24 15" fill="none" xmlns="http://www.w3.org/2000/svg">
<mask id="mask0_598_2704" style="mask-type:luminance" maskUnits="userSpaceOnUse" x="0" y="0" width="24" height="15">
<path d="M24 0H0V14.9444H24V0Z" fill="white"/>
</mask>
<g mask="url(#mask0_598_2704)">
<path d="M1.18316 7.53447C1.86053 6.80733 2.75058 6.3325 3.71759 6.1777C3.6794 5.91555 3.66001 5.65166 3.66001 5.38806C3.66001 4.66063 3.80266 3.95577 4.0842 3.29084C4.35648 2.64992 4.74566 2.07295 5.24016 1.57903C5.73495 1.08511 6.31308 0.696796 6.95515 0.425094C7.6195 0.145291 8.32552 0.00292969 9.05411 0.00292969C10.0674 0.00292969 11.057 0.285916 11.912 0.821506C12.6565 1.28649 13.2746 1.92423 13.7147 2.67886C14.219 2.46445 14.7555 2.35594 15.3111 2.35594C16.4045 2.35594 17.4323 2.781 18.204 3.55299C18.9005 4.2483 19.3154 5.15137 19.3906 6.12157H19.581C20.7564 6.12157 21.8643 6.58192 22.7017 7.41641C23.5388 8.25062 24 9.35681 24 10.5316C24 11.7063 23.5388 12.8108 22.7031 13.6467C21.8657 14.4827 20.7578 14.9416 19.5828 14.9416H4.41724C3.24219 14.9416 2.13426 14.4812 1.29688 13.6467C0.45949 12.8108 0 11.7049 0 10.5316C0 9.41902 0.419559 8.35449 1.18316 7.53447Z" fill="#D85E79"/>
<path d="M11.2561 11.8495C11.2553 11.8443 11.2547 11.8396 11.2538 11.834C11.2273 11.6231 11.2838 11.4144 11.4149 11.2464C11.5449 11.0781 11.7335 10.9709 11.9448 10.9443C12.1562 10.9176 12.3655 10.9741 12.5334 11.1052C12.7023 11.2357 12.8084 11.4238 12.8359 11.634C12.8625 11.8449 12.8054 12.0537 12.6748 12.221C12.4047 12.5686 11.9033 12.6318 11.5553 12.3629C11.3922 12.2358 11.286 12.054 11.2561 11.8495Z" fill="black"/>
<path d="M12.1266 11.442L12.259 11.5513C12.4065 11.6731 12.6274 11.639 12.7315 11.4787L14.1549 9.28039C14.2187 9.18234 14.0885 9.07444 14.0036 9.15577L12.1091 10.9648C11.97 11.0979 11.9786 11.3208 12.1266 11.442Z" fill="black"/>
<path d="M17.4317 11.8311C17.4317 9.07986 15.2014 6.84957 12.4502 6.84957C9.69904 6.84957 7.46875 9.07986 7.46875 11.8311" stroke="black" stroke-width="1.125" stroke-linecap="round"/>
</g>
</svg>
