<svg width="24" height="15" viewBox="0 0 24 15" fill="none" xmlns="http://www.w3.org/2000/svg">
<mask id="mask0_598_2713" style="mask-type:luminance" maskUnits="userSpaceOnUse" x="0" y="0" width="24" height="15">
<path d="M24 0H0V14.9444H24V0Z" fill="white"/>
</mask>
<g mask="url(#mask0_598_2713)">
<path d="M1.18316 7.53447C1.86053 6.80733 2.75058 6.3325 3.71759 6.1777C3.6794 5.91555 3.66001 5.65166 3.66001 5.38806C3.66001 4.66063 3.80266 3.95577 4.0842 3.29084C4.35648 2.64992 4.74566 2.07295 5.24016 1.57903C5.73495 1.08511 6.31308 0.696796 6.95515 0.425094C7.6195 0.145291 8.32552 0.00292969 9.05411 0.00292969C10.0674 0.00292969 11.057 0.285916 11.912 0.821506C12.6565 1.28649 13.2746 1.92423 13.7147 2.67886C14.219 2.46445 14.7555 2.35594 15.3111 2.35594C16.4045 2.35594 17.4323 2.781 18.204 3.55299C18.9005 4.2483 19.3154 5.15137 19.3906 6.12157H19.581C20.7564 6.12157 21.8643 6.58192 22.7017 7.41641C23.5388 8.25062 24 9.35681 24 10.5316C24 11.7063 23.5388 12.8108 22.7031 13.6467C21.8657 14.4827 20.7578 14.9416 19.5828 14.9416H4.41724C3.24219 14.9416 2.13426 14.4812 1.29688 13.6467C0.45949 12.8108 0 11.7049 0 10.5316C0 9.41902 0.419559 8.35449 1.18316 7.53447Z" fill="#9900FF"/>
<path d="M11.6977 11.8243C11.6995 11.8194 11.7011 11.815 11.703 11.8096C11.78 11.6115 11.9292 11.4549 12.1244 11.3696C12.3189 11.2835 12.5357 11.279 12.7343 11.3561C12.9328 11.4333 13.09 11.5826 13.1753 11.7779C13.2617 11.973 13.2654 12.189 13.1896 12.3869C13.1126 12.585 12.963 12.7415 12.7684 12.8264C12.3655 13.0035 11.8943 12.8204 11.7164 12.4183C11.6334 12.2289 11.6266 12.0184 11.6977 11.8243Z" fill="black"/>
<path d="M12.6632 11.8816L12.7276 12.0408C12.7993 12.2181 13.0098 12.2933 13.1776 12.2019L15.476 10.9463C15.5787 10.8904 15.5156 10.7335 15.4022 10.7646L12.875 11.4537C12.6893 11.5045 12.5907 11.7046 12.6632 11.8816Z" fill="black"/>
<path d="M17.4317 11.8311C17.4317 9.07986 15.2014 6.84957 12.4502 6.84957C9.69904 6.84957 7.46875 9.07986 7.46875 11.8311" stroke="black" stroke-width="1.125" stroke-linecap="round"/>
</g>
</svg>
