<svg width="24" height="15" viewBox="0 0 24 15" fill="none" xmlns="http://www.w3.org/2000/svg">
<mask id="mask0_598_2687" style="mask-type:luminance" maskUnits="userSpaceOnUse" x="0" y="0" width="24" height="15">
<path d="M24 0H0V14.9444H24V0Z" fill="white"/>
</mask>
<g mask="url(#mask0_598_2687)">
<path d="M1.18316 7.53447C1.86053 6.80733 2.75058 6.3325 3.71759 6.1777C3.6794 5.91555 3.66001 5.65166 3.66001 5.38806C3.66001 4.66063 3.80266 3.95577 4.0842 3.29084C4.35648 2.64992 4.74566 2.07295 5.24016 1.57903C5.73495 1.08511 6.31308 0.696796 6.95515 0.425094C7.6195 0.145291 8.32552 0.00292969 9.05411 0.00292969C10.0674 0.00292969 11.057 0.285916 11.912 0.821506C12.6565 1.28649 13.2746 1.92423 13.7147 2.67886C14.219 2.46445 14.7555 2.35594 15.3111 2.35594C16.4045 2.35594 17.4323 2.781 18.204 3.55299C18.9005 4.2483 19.3154 5.15137 19.3906 6.12157H19.581C20.7564 6.12157 21.8643 6.58192 22.7017 7.41641C23.5388 8.25062 24 9.35681 24 10.5316C24 11.7063 23.5388 12.8108 22.7031 13.6467C21.8657 14.4827 20.7578 14.9416 19.5828 14.9416H4.41724C3.24219 14.9416 2.13426 14.4812 1.29688 13.6467C0.45949 12.8108 0 11.7049 0 10.5316C0 9.41902 0.419559 8.35449 1.18316 7.53447Z" fill="#FFBB00"/>
<path d="M12.4057 12.614C12.4005 12.614 12.3958 12.614 12.39 12.614C12.1775 12.6098 11.9792 12.5237 11.8319 12.3697C11.6842 12.2167 11.6054 12.0147 11.6095 11.8017C11.6137 11.5887 11.6999 11.3898 11.8539 11.2425C12.0073 11.0943 12.2089 11.0165 12.4208 11.0196C12.6333 11.0238 12.8317 11.1105 12.9784 11.2639C13.2833 11.5814 13.2734 12.0867 12.957 12.3921C12.8077 12.5352 12.6124 12.614 12.4057 12.614Z" fill="black"/>
<path d="M12.1239 11.692L12.2512 11.5768C12.393 11.4484 12.3912 11.2248 12.2477 11.0987L10.2782 9.37247C10.1904 9.29522 10.0648 9.40846 10.133 9.50424L11.6492 11.6402C11.7608 11.7971 11.9826 11.8209 12.1239 11.692Z" fill="black"/>
<path d="M17.4317 11.8311C17.4317 9.07986 15.2014 6.84957 12.4502 6.84957C9.69904 6.84957 7.46875 9.07986 7.46875 11.8311" stroke="black" stroke-width="1.125" stroke-linecap="round"/>
</g>
</svg>
