<svg width="10" height="10" viewBox="0 0 10 10" fill="none" xmlns="http://www.w3.org/2000/svg">
<path d="M5.00004 6.66671C5.92052 6.66671 6.66671 5.92052 6.66671 5.00004C6.66671 4.07957 5.92052 3.33337 5.00004 3.33337C4.07957 3.33337 3.33337 4.07957 3.33337 5.00004C3.33337 5.92052 4.07957 6.66671 5.00004 6.66671Z" fill="#B3B3B3"/>
<path d="M5 2.10444V1V2.10444ZM5 9V7.89556V9ZM7.04889 2.95111L7.82667 2.17333L7.04889 2.95111ZM2.17333 7.82667L2.95333 7.04667L2.17333 7.82667ZM2.95333 2.94889L2.17556 2.17111L2.95333 2.94889ZM7.83111 7.82667L7.05111 7.04667L7.83111 7.82667ZM2.10444 5H1H2.10444ZM9 5H7.89556H9Z" fill="#B3B3B3"/>
<path d="M5 2.10444V1M5 9V7.89556M7.04889 2.95111L7.82667 2.17333M2.17333 7.82667L2.95333 7.04667M2.95333 2.94889L2.17556 2.17111M7.83111 7.82667L7.05111 7.04667M2.10444 5H1M9 5H7.89556" stroke="#B3B3B3" stroke-width="0.4" stroke-miterlimit="10" stroke-linecap="round"/>
</svg>
