<svg width="20" height="20" viewBox="0 0 20 20" fill="none" xmlns="http://www.w3.org/2000/svg">
<path d="M0.985966 10.443C1.55044 9.83702 2.29215 9.44133 3.09799 9.31233C3.06616 9.09387 3.05001 8.87396 3.05001 8.65429C3.05001 8.0481 3.16888 7.46072 3.4035 6.90661C3.6304 6.37251 3.95472 5.89171 4.3668 5.4801C4.77913 5.0685 5.2609 4.74491 5.79596 4.51849C6.34958 4.28532 6.93793 4.16669 7.54509 4.16669C8.38951 4.16669 9.21417 4.40251 9.9267 4.84883C10.5471 5.23632 11.0622 5.76777 11.4289 6.39663C11.8492 6.21795 12.2962 6.12753 12.7592 6.12753C13.6704 6.12753 14.5269 6.48174 15.17 7.12507C15.7504 7.7045 16.0962 8.45705 16.1589 9.26555H16.3175C17.297 9.26555 18.2202 9.64918 18.9181 10.3446C19.6156 11.0398 20 11.9616 20 12.9406C20 13.9195 19.6156 14.8399 18.9193 15.5365C18.2215 16.2331 17.2982 16.6156 16.319 16.6156H3.68104C2.70182 16.6156 1.77855 16.2319 1.08073 15.5365C0.382908 14.8399 0 13.9183 0 12.9406C0 12.0134 0.349632 11.1263 0.985966 10.443Z" fill="#FF6200"/>
<path d="M10.1961 11.5372C10.2075 11.4402 10.3488 11.4405 10.3602 11.5372L10.6102 13.6446C10.6647 13.6725 10.7174 13.7054 10.7635 13.7481C10.8927 13.869 10.9671 14.0333 10.9725 14.21C10.9845 14.5765 10.697 14.8845 10.3309 14.8975C10.1586 14.903 9.99316 14.8428 9.86505 14.7276C9.86191 14.7248 9.85875 14.7219 9.85529 14.7188C9.72621 14.5979 9.6518 14.4341 9.6463 14.2569C9.63998 14.0798 9.70374 13.91 9.82501 13.7803C9.86233 13.7405 9.90446 13.7069 9.94904 13.6778L10.1961 11.5372ZM9.96075 9.03326C12.4098 9.03358 14.3951 11.0197 14.3953 13.4688C14.3953 13.7171 14.1943 13.9186 13.9461 13.919C13.6976 13.919 13.4959 13.7173 13.4959 13.4688C13.4957 11.5167 11.9128 9.93397 9.96075 9.93365C8.06938 9.93365 6.52523 11.4193 6.43048 13.2872L6.4256 13.4688L6.41583 13.5596C6.37382 13.7645 6.1926 13.9188 5.9754 13.919C5.72687 13.919 5.52521 13.7173 5.52521 13.4688L5.53107 13.2403C5.65019 10.8972 7.58804 9.03326 9.96075 9.03326Z" fill="black"/>
</svg>
