<svg width="20" height="20" viewBox="0 0 20 20" fill="none" xmlns="http://www.w3.org/2000/svg">
<path d="M10 0C14.0583 5.99163 16.667 9.74162 16.667 13.3916C16.667 17.0416 13.6833 20 10 20C6.31667 20 3.33301 17.0333 3.33301 13.3916C3.33304 9.74996 5.94169 5.99996 10 0ZM11.9668 12.7002C11.4668 12.7002 11.0863 12.8252 10.8252 13.0752C10.5585 13.3196 10.4248 13.664 10.4248 14.1084V14.7754C10.4304 15.2141 10.5642 15.5554 10.8252 15.7998C11.0863 16.0442 11.4637 16.1669 11.958 16.167C12.4522 16.1614 12.833 16.0362 13.0996 15.792C13.3662 15.5476 13.4999 15.2085 13.5 14.7754V14.1084C13.5 13.6695 13.3663 13.3252 13.0996 13.0752C12.8441 12.8253 12.4667 12.7002 11.9668 12.7002ZM12.2334 9.31641C12.1097 9.30871 11.9851 9.32314 11.8662 9.3584C11.7752 9.41222 11.7007 9.49002 11.6504 9.58301L7.2334 15.6914C7.20351 15.7212 7.18219 15.7589 7.17188 15.7998C7.16162 15.8408 7.16249 15.8843 7.1748 15.9248C7.20814 15.9831 7.27546 16.0166 7.38379 16.0166H7.75C7.87979 16.0244 8.01034 16.0076 8.13379 15.9668C8.22705 15.9065 8.30596 15.8267 8.36621 15.7334L12.7832 9.625C12.8088 9.59599 12.8272 9.56113 12.8359 9.52344C12.8447 9.4856 12.8434 9.44563 12.833 9.4082C12.8079 9.35001 12.7415 9.31641 12.6416 9.31641H12.2334ZM11.958 13.583C12.3857 13.583 12.5996 13.775 12.5996 14.1582V14.7168C12.594 15.1056 12.3802 15.2998 11.958 15.2998C11.536 15.2997 11.3252 15.1055 11.3252 14.7168V14.167C11.3252 13.7782 11.536 13.5831 11.958 13.583ZM8.04199 9.16699C7.54758 9.16699 7.16705 9.29202 6.90039 9.54199C6.63372 9.78644 6.5 10.1308 6.5 10.5752V11.2412C6.50556 11.6745 6.63928 12.0143 6.90039 12.2588C7.16149 12.503 7.54227 12.625 8.04199 12.625C8.53052 12.6249 8.90822 12.503 9.1748 12.2588C9.44147 12.0143 9.5752 11.6745 9.5752 11.2412V10.5752C9.5752 10.1308 9.44143 9.78643 9.1748 9.54199C8.91375 9.29205 8.53627 9.16705 8.04199 9.16699ZM8.04199 10.042C8.46938 10.0421 8.68342 10.2333 8.68359 10.6162V11.1836C8.6835 11.5722 8.46945 11.7665 8.04199 11.7666C7.61431 11.7666 7.40049 11.5723 7.40039 11.1836V10.625C7.40039 10.2361 7.61421 10.042 8.04199 10.042Z" fill="#FFBB00"/>
</svg>
