<svg width="20" height="20" viewBox="0 0 20 20" fill="none" xmlns="http://www.w3.org/2000/svg">
<path d="M6.33336 4.00007C6.33336 2.93918 6.75479 1.92175 7.50495 1.17159C8.25511 0.421434 9.27254 0 10.3334 0C11.3943 0 12.4117 0.421434 13.1619 1.17159C13.9121 1.92175 14.3335 2.93918 14.3335 4.00007V11.1389C15.0124 11.9087 15.4547 12.858 15.6075 13.873C15.7602 14.888 15.6168 15.9254 15.1945 16.861C14.7722 17.7965 14.0889 18.5902 13.2267 19.147C12.3644 19.7038 11.3598 20 10.3334 20C9.30702 20 8.30242 19.7038 7.44017 19.147C6.57792 18.5902 5.89464 17.7965 5.47234 16.861C5.05004 15.9254 4.90665 14.888 5.05938 13.873C5.2121 12.858 5.65446 11.9087 6.33336 11.1389V4.00007ZM10.3334 2.00003C9.80298 2.00003 9.29427 2.21075 8.91919 2.58583C8.54411 2.96091 8.33339 3.46962 8.33339 4.00007V11.9669L8.02672 12.2602C7.54664 12.7207 7.2153 13.3142 7.07533 13.9645C6.93536 14.6149 6.99316 15.2922 7.2413 15.9094C7.48944 16.5266 7.91656 17.0554 8.46773 17.4278C9.01889 17.8003 9.66889 17.9993 10.3341 17.9993C10.9993 17.9993 11.6493 17.8003 12.2005 17.4278C12.7516 17.0554 13.1787 16.5266 13.4269 15.9094C13.675 15.2922 13.7328 14.6149 13.5929 13.9645C13.4529 13.3142 13.1215 12.7207 12.6415 12.2602L12.3335 11.9682V4.00007C12.3335 3.46962 12.1227 2.96091 11.7477 2.58583C11.3726 2.21075 10.8639 2.00003 10.3334 2.00003ZM11.0001 7.33346C11.0001 7.15664 10.9299 6.98707 10.8048 6.86204C10.6798 6.73702 10.5102 6.66678 10.3334 6.66678C10.1566 6.66678 9.98704 6.73702 9.86201 6.86204C9.73699 6.98707 9.66675 7.15664 9.66675 7.33346V12.7802C9.22193 12.9375 8.84703 13.2469 8.60831 13.6539C8.36959 14.0608 8.28241 14.5391 8.3622 15.0041C8.44198 15.4691 8.68358 15.8909 9.0443 16.195C9.40502 16.4991 9.86163 16.6659 10.3334 16.6659C10.8052 16.6659 11.2618 16.4991 11.6226 16.195C11.9833 15.8909 12.2249 15.4691 12.3047 15.0041C12.3844 14.5391 12.2973 14.0608 12.0585 13.6539C11.8198 13.2469 11.4449 12.9375 11.0001 12.7802V7.33346Z" fill="#00A1F1"/>
</svg>
