<svg width="20" height="20" viewBox="0 0 20 20" fill="none" xmlns="http://www.w3.org/2000/svg">
<g clip-path="url(#clip0_598_614)">
<path d="M9.9985 4.69853C7.07235 4.69853 4.70026 7.07062 4.70026 9.9952C4.70026 12.9214 7.07235 15.2934 9.9985 15.2934C12.9247 15.2934 15.2967 12.9214 15.2967 9.9952C15.2967 7.07062 12.9247 4.69853 9.9985 4.69853ZM8.85889 3.73364H11.1397C11.2451 3.73364 11.3427 3.6817 11.4041 3.59512C11.4639 3.51013 11.4781 3.39837 11.4419 3.2992L10.3007 0.210922C10.2535 0.0834245 10.1339 0 9.9985 0C9.86314 0 9.74351 0.0849986 9.69629 0.210922L8.5551 3.30078C8.5189 3.39994 8.53307 3.51013 8.59288 3.5967C8.65427 3.68327 8.75343 3.73364 8.85889 3.73364ZM15.2338 6.37489C15.2936 6.43628 15.377 6.46933 15.4604 6.46933C15.4793 6.46933 15.4982 6.46776 15.5171 6.46461C15.621 6.44572 15.7076 6.37804 15.7532 6.28202L17.1321 3.28976C17.1888 3.16698 17.162 3.02374 17.0676 2.92773C16.9715 2.83171 16.8267 2.80653 16.7039 2.86162L13.7133 4.24206C13.6172 4.28613 13.5496 4.37428 13.5307 4.47816C13.5118 4.58205 13.5464 4.68751 13.6188 4.76307L15.2338 6.37489ZM19.7859 9.69456L16.6945 8.55495C16.5953 8.51874 16.4852 8.53291 16.3986 8.59272C16.312 8.65254 16.2616 8.75013 16.2616 8.85559L16.2632 11.1364C16.2632 11.2418 16.3152 11.341 16.4017 11.4008C16.4568 11.437 16.5214 11.4575 16.5859 11.4575C16.6237 11.4575 16.6614 11.4512 16.6976 11.437L19.7891 10.2974C19.915 10.2518 20 10.1306 20 9.99363C19.9969 9.86141 19.9134 9.74178 19.7859 9.69456ZM15.7532 13.7115C15.7315 13.6643 15.6987 13.6231 15.6575 13.5913C15.6164 13.5595 15.5683 13.5381 15.5171 13.5289C15.4132 13.5116 15.3062 13.5447 15.2338 13.6187L13.6204 15.2321C13.5464 15.306 13.5118 15.4131 13.5307 15.517C13.5496 15.6193 13.6172 15.709 13.7133 15.7531L16.7055 17.1319C16.748 17.1524 16.7937 17.1603 16.8409 17.1603C16.9243 17.1603 17.0062 17.1272 17.0676 17.0658C17.1636 16.9698 17.1888 16.8266 17.1321 16.7038L15.7532 13.7115ZM11.1381 16.2583L8.85732 16.2599C8.75186 16.2599 8.65427 16.3119 8.59445 16.3984C8.53464 16.485 8.52047 16.5952 8.5551 16.6928L9.69629 19.7842C9.74351 19.9101 9.86314 19.9951 9.9985 19.9951C10.1339 19.9951 10.2535 19.9101 10.3007 19.7842L11.4419 16.6928C11.4781 16.5936 11.4639 16.4834 11.4041 16.3969C11.3427 16.3103 11.2451 16.2583 11.1381 16.2583ZM4.76322 13.6187C4.68924 13.5447 4.58378 13.5116 4.4799 13.5289C4.37601 13.5478 4.28786 13.6155 4.24379 13.7115L2.86492 16.7038C2.80826 16.8266 2.83502 16.9714 2.93103 17.0658C2.97751 17.1124 3.03715 17.1435 3.10189 17.155C3.16664 17.1666 3.23337 17.158 3.29306 17.1304L6.28533 15.7499C6.33252 15.7282 6.37377 15.6954 6.40556 15.6542C6.43735 15.6131 6.45874 15.565 6.46792 15.5138C6.4868 15.4099 6.45218 15.3045 6.3782 15.2305L4.76322 13.6187ZM3.41426 11.4591C3.4788 11.4591 3.54334 11.4386 3.59843 11.4008C3.685 11.341 3.73694 11.2418 3.73694 11.1364L3.73537 8.85559C3.73538 8.80376 3.72287 8.75269 3.69891 8.70673C3.67495 8.66077 3.64025 8.62127 3.59775 8.5916C3.55525 8.56193 3.50622 8.54296 3.45481 8.5363C3.40341 8.52965 3.35116 8.5355 3.30251 8.55337L0.211079 9.69456C0.149181 9.71725 0.0957443 9.75841 0.0579939 9.81246C0.0202436 9.86651 0 9.93085 0 9.99677C0 10.0627 0.0202436 10.127 0.0579939 10.1811C0.0957443 10.2351 0.149181 10.2763 0.211079 10.299L3.30408 11.4386C3.34028 11.4528 3.37649 11.4591 3.41426 11.4591ZM4.24536 6.28202C4.26716 6.32919 4.30002 6.37039 4.34116 6.40213C4.3823 6.43387 4.4305 6.45521 4.48165 6.46432C4.5328 6.47344 4.5854 6.47007 4.63497 6.4545C4.68454 6.43893 4.72962 6.41162 4.76637 6.37489L6.3782 4.76149C6.45218 4.68594 6.48523 4.58048 6.46634 4.47659C6.44745 4.37428 6.37977 4.28613 6.28375 4.24206L3.28992 2.86319C3.16714 2.80653 3.0239 2.83329 2.92788 2.9293C2.83187 3.02532 2.80668 3.16856 2.86335 3.29133L4.24536 6.28202Z" fill="#FFBB00"/>
</g>
<defs>
<clipPath id="clip0_598_614">
<rect width="20" height="20" fill="white"/>
</clipPath>
</defs>
</svg>
