<svg width="24" height="24" viewBox="0 0 24 24" fill="none" xmlns="http://www.w3.org/2000/svg">
<path d="M11.9473 0.485352C11.9647 0.515237 13.7945 3.44941 15.6025 6.83887C16.6634 8.83364 17.5134 10.594 18.1211 12.0732C18.4847 12.9573 18.7682 13.7498 18.96 14.4297C19.1766 15.1967 19.2861 15.8444 19.2861 16.3574C19.2861 17.3883 19.084 18.3892 18.6855 19.333C18.2995 20.242 17.7492 21.0594 17.0469 21.7617C16.3447 22.4638 15.528 23.0145 14.6191 23.4004C13.6755 23.7988 12.6744 23.9999 11.6436 24C10.6126 24 9.61083 23.7988 8.66699 23.4004C7.75817 23.0145 6.93898 22.4638 6.23926 21.7617C5.53697 21.0594 4.9866 20.242 4.60059 19.333C4.20217 18.3892 4.00005 17.3883 4 16.3574C4 15.8444 4.10955 15.1966 4.32617 14.4297C4.51793 13.7498 4.79895 12.9573 5.16504 12.0732C5.7727 10.594 6.62021 8.83364 7.68359 6.83887C9.48915 3.44941 11.3189 0.515237 11.3389 0.485352L11.6436 0L11.9473 0.485352ZM11.6436 1.35938C11.0508 2.33313 9.6752 4.62701 8.31543 7.17969C5.95951 11.5977 4.7168 14.771 4.7168 16.3574C4.71699 20.1776 7.82337 23.2832 11.6436 23.2832C15.4635 23.283 18.5691 20.1774 18.5693 16.3574C18.5693 14.771 17.3266 11.5977 14.9707 7.17969C13.6109 4.62701 12.2363 2.33313 11.6436 1.35938ZM6.77441 16.041C7.72319 15.7397 8.7168 15.495 9.71289 15.7041C10.5123 15.871 11.2276 16.3097 11.9697 16.6484C13.2521 17.2336 14.6615 17.5324 16.0684 17.5225C16.4917 17.52 16.9276 17.4875 17.3086 17.3008C17.1143 18.4762 16.5613 19.5568 15.7021 20.416C14.6189 21.5017 13.1775 22.0995 11.6436 22.0996C10.1095 22.0996 8.66732 21.5018 7.58398 20.416C6.4983 19.3328 5.90048 17.8913 5.90039 16.3574C5.90039 16.2952 5.90562 16.2177 5.91309 16.123C6.15952 16.1727 6.43343 16.1505 6.77441 16.041Z" fill="#00A1F1"/>
</svg>
